%TF.GenerationSoftware,KiCad,Pcbnew,(6.0.9)*%
%TF.CreationDate,2023-01-30T22:20:02+01:00*%
%TF.ProjectId,P_ytka_pcb,50427974-6b61-45f7-9063-622e6b696361,rev?*%
%TF.SameCoordinates,Original*%
%TF.FileFunction,Copper,L2,Bot*%
%TF.FilePolarity,Positive*%
%FSLAX46Y46*%
G04 Gerber Fmt 4.6, Leading zero omitted, Abs format (unit mm)*
G04 Created by KiCad (PCBNEW (6.0.9)) date 2023-01-30 22:20:02*
%MOMM*%
%LPD*%
G01*
G04 APERTURE LIST*
G04 Aperture macros list*
%AMRoundRect*
0 Rectangle with rounded corners*
0 $1 Rounding radius*
0 $2 $3 $4 $5 $6 $7 $8 $9 X,Y pos of 4 corners*
0 Add a 4 corners polygon primitive as box body*
4,1,4,$2,$3,$4,$5,$6,$7,$8,$9,$2,$3,0*
0 Add four circle primitives for the rounded corners*
1,1,$1+$1,$2,$3*
1,1,$1+$1,$4,$5*
1,1,$1+$1,$6,$7*
1,1,$1+$1,$8,$9*
0 Add four rect primitives between the rounded corners*
20,1,$1+$1,$2,$3,$4,$5,0*
20,1,$1+$1,$4,$5,$6,$7,0*
20,1,$1+$1,$6,$7,$8,$9,0*
20,1,$1+$1,$8,$9,$2,$3,0*%
G04 Aperture macros list end*
%TA.AperFunction,ComponentPad*%
%ADD10C,1.800000*%
%TD*%
%TA.AperFunction,ComponentPad*%
%ADD11R,2.000000X2.000000*%
%TD*%
%TA.AperFunction,SMDPad,CuDef*%
%ADD12RoundRect,0.088500X0.206500X-0.526500X0.206500X0.526500X-0.206500X0.526500X-0.206500X-0.526500X0*%
%TD*%
%TA.AperFunction,ComponentPad*%
%ADD13C,1.750000*%
%TD*%
%TA.AperFunction,SMDPad,CuDef*%
%ADD14R,1.800000X2.800000*%
%TD*%
%TA.AperFunction,ComponentPad*%
%ADD15C,2.700000*%
%TD*%
%TA.AperFunction,ComponentPad*%
%ADD16O,1.700000X1.700000*%
%TD*%
%TA.AperFunction,SMDPad,CuDef*%
%ADD17R,3.500000X1.700000*%
%TD*%
%TA.AperFunction,ComponentPad*%
%ADD18R,1.700000X1.700000*%
%TD*%
%TA.AperFunction,SMDPad,CuDef*%
%ADD19R,1.700000X3.500000*%
%TD*%
%TA.AperFunction,ViaPad*%
%ADD20C,0.800000*%
%TD*%
%TA.AperFunction,ViaPad*%
%ADD21C,1.500000*%
%TD*%
%TA.AperFunction,Conductor*%
%ADD22C,0.250000*%
%TD*%
%TA.AperFunction,Conductor*%
%ADD23C,0.500000*%
%TD*%
G04 APERTURE END LIST*
D10*
%TO.P,U3,1,VCC*%
%TO.N,+3V3*%
X132018400Y-46881800D03*
%TO.P,U3,2,RX*%
%TO.N,/UART1 TX*%
X132018400Y-49461800D03*
%TO.P,U3,3,TX*%
%TO.N,/UART1 RX*%
X132018400Y-51961800D03*
%TO.P,U3,4,GND*%
%TO.N,GND*%
X132018400Y-54501800D03*
%TD*%
%TO.P,J1,1,Pin_1*%
%TO.N,/Cadence_Pin*%
X133273800Y-109937200D03*
%TO.P,J1,2,Pin_2*%
%TO.N,/Wheel_Pin*%
X135813800Y-109937200D03*
%TO.P,J1,3,Pin_3*%
%TO.N,GND*%
X138353800Y-109937200D03*
%TO.P,J1,4,Pin_4*%
%TO.N,/Button_2_Pin*%
X140893800Y-109937200D03*
%TO.P,J1,5,Pin_5*%
%TO.N,/Button_1_Pin*%
X143433800Y-109937200D03*
%TD*%
%TO.P,U2,1,VCC*%
%TO.N,Net-(Q1-Pad3)*%
X170484600Y-71990200D03*
%TO.P,U2,2,GND*%
%TO.N,GND*%
X170484600Y-69450200D03*
%TO.P,U2,3,DIN*%
%TO.N,Net-(U1-Pad25)*%
X170484600Y-66910200D03*
%TO.P,U2,4,CLK*%
%TO.N,Net-(U1-Pad24)*%
X170484600Y-64370200D03*
%TO.P,U2,5,CS*%
%TO.N,Net-(U1-Pad22)*%
X170484600Y-61830200D03*
%TO.P,U2,6,DC*%
%TO.N,Net-(U1-Pad21)*%
X170484600Y-59290200D03*
%TO.P,U2,7,RST*%
%TO.N,/SPI1 RST*%
X170484600Y-56750200D03*
%TO.P,U2,8,BL*%
%TO.N,unconnected-(U2-Pad8)*%
X170484600Y-54210200D03*
%TD*%
%TO.P,U4,1,S*%
%TO.N,/Buzzer_Pin*%
X163753800Y-102311200D03*
%TO.P,U4,2,GND*%
%TO.N,GND*%
X161213800Y-102311200D03*
%TO.P,U4,3,VCC*%
%TO.N,+3V3*%
X158673800Y-102311200D03*
%TD*%
D11*
%TO.P,U6,1,VCC*%
%TO.N,+5VP*%
X169706600Y-105923000D03*
%TO.P,U6,2,GND*%
%TO.N,GND*%
X155706600Y-105923000D03*
%TO.P,U6,3,OUT+*%
%TO.N,Net-(SW5-Pad3)*%
X169706600Y-82923000D03*
%TO.P,U6,4,OUT-*%
%TO.N,GND*%
X155706600Y-82923000D03*
%TO.P,U6,5,B+*%
%TO.N,Net-(BT1-Pad1)*%
X167166600Y-82923000D03*
%TO.P,U6,6,B-*%
%TO.N,Net-(BT1-Pad2)*%
X158246600Y-82923000D03*
%TD*%
D12*
%TO.P,D1,1,G*%
%TO.N,+5VP*%
X157668000Y-76879000D03*
%TO.P,D1,2,S*%
%TO.N,+5V*%
X155768000Y-76879000D03*
%TO.P,D1,3,D*%
%TO.N,Net-(D1-Pad3)*%
X156718000Y-74759000D03*
%TD*%
D13*
%TO.P,U5,1,INT2*%
%TO.N,unconnected-(U5-Pad1)*%
X153968200Y-52800000D03*
%TO.P,U5,2,INT1*%
%TO.N,unconnected-(U5-Pad2)*%
X156508200Y-52800000D03*
%TO.P,U5,3,SDA*%
%TO.N,/I^{2}C1 SDA*%
X159048200Y-52800000D03*
%TO.P,U5,4,SCL*%
%TO.N,/I^{2}C1 SCL*%
X161588200Y-52800000D03*
%TO.P,U5,5,VCC*%
%TO.N,+3V3*%
X164128200Y-52800000D03*
%TO.P,U5,6,GND*%
%TO.N,GND*%
X166668200Y-52800000D03*
%TD*%
D14*
%TO.P,BT1,1,+*%
%TO.N,Net-(BT1-Pad1)*%
X163300200Y-112963000D03*
%TO.P,BT1,2,-*%
%TO.N,Net-(BT1-Pad2)*%
X158352200Y-112963000D03*
%TD*%
D15*
%TO.P,SW5,*%
%TO.N,*%
X126283200Y-62025000D03*
%TO.P,SW5,1,A*%
%TO.N,Net-(D1-Pad3)*%
X126283200Y-57325000D03*
%TO.P,SW5,3,B*%
%TO.N,Net-(SW5-Pad3)*%
X126283200Y-52625000D03*
%TD*%
D16*
%TO.P,U1,1,GPIO0*%
%TO.N,/Wheel_Pin*%
X129286000Y-113487200D03*
D17*
X128386000Y-113487200D03*
D16*
%TO.P,U1,2,GPIO1*%
%TO.N,/Cadence_Pin*%
X129286000Y-110947200D03*
D17*
X128386000Y-110947200D03*
%TO.P,U1,3,GND*%
%TO.N,GND*%
X128386000Y-108407200D03*
D18*
X129286000Y-108407200D03*
D16*
%TO.P,U1,4,GPIO2*%
%TO.N,/Button_2_Pin*%
X129286000Y-105867200D03*
D17*
X128386000Y-105867200D03*
%TO.P,U1,5,GPIO3*%
%TO.N,/Button_1_Pin*%
X128386000Y-103327200D03*
D16*
X129286000Y-103327200D03*
D17*
%TO.P,U1,6,GPIO4*%
%TO.N,unconnected-(U1-Pad6)*%
X128386000Y-100787200D03*
D16*
X129286000Y-100787200D03*
D17*
%TO.P,U1,7,GPIO5*%
%TO.N,unconnected-(U1-Pad7)*%
X128386000Y-98247200D03*
D16*
X129286000Y-98247200D03*
D18*
%TO.P,U1,8,GND*%
%TO.N,GND*%
X129286000Y-95707200D03*
D17*
X128386000Y-95707200D03*
D16*
%TO.P,U1,9,GPIO6*%
%TO.N,unconnected-(U1-Pad9)*%
X129286000Y-93167200D03*
D17*
X128386000Y-93167200D03*
D16*
%TO.P,U1,10,GPIO7*%
%TO.N,unconnected-(U1-Pad10)*%
X129286000Y-90627200D03*
D17*
X128386000Y-90627200D03*
D16*
%TO.P,U1,11,GPIO8*%
%TO.N,/UART1 TX*%
X129286000Y-88087200D03*
D17*
X128386000Y-88087200D03*
D16*
%TO.P,U1,12,GPIO9*%
%TO.N,/UART1 RX*%
X129286000Y-85547200D03*
D17*
X128386000Y-85547200D03*
%TO.P,U1,13,GND*%
%TO.N,GND*%
X128386000Y-83007200D03*
D18*
X129286000Y-83007200D03*
D17*
%TO.P,U1,14,GPIO10*%
%TO.N,unconnected-(U1-Pad14)*%
X128386000Y-80467200D03*
D16*
X129286000Y-80467200D03*
D17*
%TO.P,U1,15,GPIO11*%
%TO.N,unconnected-(U1-Pad15)*%
X128386000Y-77927200D03*
D16*
X129286000Y-77927200D03*
%TO.P,U1,16,GPIO12*%
%TO.N,/I^{2}C1 SDA*%
X129286000Y-75387200D03*
D17*
X128386000Y-75387200D03*
D16*
%TO.P,U1,17,GPIO13*%
%TO.N,/I^{2}C1 SCL*%
X129286000Y-72847200D03*
D17*
X128386000Y-72847200D03*
D18*
%TO.P,U1,18,GND*%
%TO.N,GND*%
X129286000Y-70307200D03*
D17*
X128386000Y-70307200D03*
D16*
%TO.P,U1,19,GPIO14*%
%TO.N,unconnected-(U1-Pad19)*%
X129286000Y-67767200D03*
D17*
X128386000Y-67767200D03*
D16*
%TO.P,U1,20,GPIO15*%
%TO.N,unconnected-(U1-Pad20)*%
X129286000Y-65227200D03*
D17*
X128386000Y-65227200D03*
%TO.P,U1,21,GPIO16*%
%TO.N,Net-(U1-Pad21)*%
X147966000Y-65227200D03*
D16*
X147066000Y-65227200D03*
%TO.P,U1,22,GPIO17*%
%TO.N,Net-(U1-Pad22)*%
X147066000Y-67767200D03*
D17*
X147966000Y-67767200D03*
D18*
%TO.P,U1,23,GND*%
%TO.N,GND*%
X147066000Y-70307200D03*
D17*
X147966000Y-70307200D03*
D16*
%TO.P,U1,24,GPIO18*%
%TO.N,Net-(U1-Pad24)*%
X147066000Y-72847200D03*
D17*
X147966000Y-72847200D03*
D16*
%TO.P,U1,25,GPIO19*%
%TO.N,Net-(U1-Pad25)*%
X147066000Y-75387200D03*
D17*
X147966000Y-75387200D03*
D16*
%TO.P,U1,26,GPIO20*%
%TO.N,/SPI1 RST*%
X147066000Y-77927200D03*
D17*
X147966000Y-77927200D03*
D16*
%TO.P,U1,27,GPIO21*%
%TO.N,Net-(Q1-Pad1)*%
X147066000Y-80467200D03*
D17*
X147966000Y-80467200D03*
%TO.P,U1,28,GND*%
%TO.N,GND*%
X147966000Y-83007200D03*
D18*
X147066000Y-83007200D03*
D17*
%TO.P,U1,29,GPIO22*%
%TO.N,/Buzzer_Pin*%
X147966000Y-85547200D03*
D16*
X147066000Y-85547200D03*
D17*
%TO.P,U1,30,RUN*%
%TO.N,unconnected-(U1-Pad30)*%
X147966000Y-88087200D03*
D16*
X147066000Y-88087200D03*
D17*
%TO.P,U1,31,GPIO26_ADC0*%
%TO.N,unconnected-(U1-Pad31)*%
X147966000Y-90627200D03*
D16*
X147066000Y-90627200D03*
D17*
%TO.P,U1,32,GPIO27_ADC1*%
%TO.N,unconnected-(U1-Pad32)*%
X147966000Y-93167200D03*
D16*
X147066000Y-93167200D03*
D18*
%TO.P,U1,33,AGND*%
%TO.N,unconnected-(U1-Pad33)*%
X147066000Y-95707200D03*
D17*
X147966000Y-95707200D03*
D16*
%TO.P,U1,34,GPIO28_ADC2*%
%TO.N,unconnected-(U1-Pad34)*%
X147066000Y-98247200D03*
D17*
X147966000Y-98247200D03*
%TO.P,U1,35,ADC_VREF*%
%TO.N,unconnected-(U1-Pad35)*%
X147966000Y-100787200D03*
D16*
X147066000Y-100787200D03*
%TO.P,U1,36,3V3*%
%TO.N,+3V3*%
X147066000Y-103327200D03*
D17*
X147966000Y-103327200D03*
D16*
%TO.P,U1,37,3V3_EN*%
%TO.N,unconnected-(U1-Pad37)*%
X147066000Y-105867200D03*
D17*
X147966000Y-105867200D03*
%TO.P,U1,38,GND*%
%TO.N,GND*%
X147966000Y-108407200D03*
D18*
X147066000Y-108407200D03*
D17*
%TO.P,U1,39,VSYS*%
%TO.N,+5V*%
X147966000Y-110947200D03*
D16*
X147066000Y-110947200D03*
%TO.P,U1,40,VBUS*%
%TO.N,+5VP*%
X147066000Y-113487200D03*
D17*
X147966000Y-113487200D03*
D19*
%TO.P,U1,41,SWCLK*%
%TO.N,unconnected-(U1-Pad41)*%
X135636000Y-64557200D03*
D16*
X135636000Y-65457200D03*
D18*
%TO.P,U1,42,GND*%
%TO.N,GND*%
X138176000Y-65457200D03*
D19*
X138176000Y-64557200D03*
D16*
%TO.P,U1,43,SWDIO*%
%TO.N,unconnected-(U1-Pad43)*%
X140716000Y-65457200D03*
D19*
X140716000Y-64557200D03*
%TD*%
D20*
%TO.N,GND*%
X163068000Y-55676800D03*
%TO.N,+3V3*%
X170059894Y-75177106D03*
X128270000Y-42672000D03*
%TO.N,/Buzzer_Pin*%
X156997400Y-95478600D03*
X159105600Y-97612200D03*
%TO.N,/I^{2}C1 SCL*%
X121539000Y-66929000D03*
%TO.N,/SPI1 RST*%
X152069800Y-71780400D03*
X167259000Y-60579000D03*
D21*
%TO.N,+5VP*%
X163677600Y-81102200D03*
%TD*%
D22*
%TO.N,GND*%
X165393401Y-60273727D02*
X164236473Y-59116799D01*
X165393401Y-60288201D02*
X165393401Y-60273727D01*
X163068000Y-57962800D02*
X163068000Y-55753000D01*
X170484600Y-69450200D02*
X167984000Y-66949600D01*
X164236473Y-59116799D02*
X164221999Y-59116799D01*
X164221999Y-59116799D02*
X163068000Y-57962800D01*
X167984000Y-62878800D02*
X165393401Y-60288201D01*
X167984000Y-66949600D02*
X167984000Y-62878800D01*
%TO.N,+5V*%
X152654000Y-80010000D02*
X152654000Y-106969200D01*
X155768000Y-76879000D02*
X155768000Y-76896000D01*
X152654000Y-106969200D02*
X148676000Y-110947200D01*
X148676000Y-110947200D02*
X147066000Y-110947200D01*
X155768000Y-76896000D02*
X152654000Y-80010000D01*
%TO.N,Net-(D1-Pad3)*%
X131334804Y-57295200D02*
X131305004Y-57325000D01*
X156718000Y-74759000D02*
X151594400Y-69635400D01*
X131305004Y-57325000D02*
X126283200Y-57325000D01*
X149343404Y-57295200D02*
X151594400Y-59546196D01*
X131334804Y-57295200D02*
X149343404Y-57295200D01*
X151594400Y-59546196D02*
X151594400Y-69635400D01*
%TO.N,+3V3*%
X152025800Y-38608000D02*
X164344800Y-50927000D01*
X164128200Y-51143600D02*
X164344800Y-50927000D01*
X164344800Y-50927000D02*
X172415200Y-50927000D01*
X172415200Y-50927000D02*
X172415200Y-72821800D01*
X128270000Y-42672000D02*
X128270000Y-39370000D01*
X172415200Y-72821800D02*
X170059894Y-75177106D01*
X128270000Y-39370000D02*
X129032000Y-38608000D01*
X164128200Y-52800000D02*
X164128200Y-51143600D01*
X129032000Y-38608000D02*
X152025800Y-38608000D01*
%TO.N,/Buzzer_Pin*%
X159105600Y-97586800D02*
X159105600Y-97612200D01*
X156997400Y-95478600D02*
X159105600Y-97586800D01*
%TO.N,/I^{2}C1 SDA*%
X151206200Y-44958000D02*
X159048200Y-52800000D01*
X124079000Y-44958000D02*
X151206200Y-44958000D01*
X127676000Y-75387200D02*
X122682000Y-70393200D01*
X129286000Y-75387200D02*
X127676000Y-75387200D01*
X122682000Y-46355000D02*
X124079000Y-44958000D01*
X122682000Y-70393200D02*
X122682000Y-46355000D01*
%TO.N,/I^{2}C1 SCL*%
X121539000Y-66929000D02*
X121539000Y-46482000D01*
X121539000Y-46482000D02*
X124079000Y-43942000D01*
X124079000Y-43942000D02*
X152730200Y-43942000D01*
X152730200Y-43942000D02*
X161588200Y-52800000D01*
%TO.N,Net-(SW5-Pad3)*%
X169706600Y-82923000D02*
X169706600Y-82813000D01*
X152323800Y-59639200D02*
X149529800Y-56845200D01*
X156210200Y-69316600D02*
X152831800Y-69316600D01*
X169706600Y-82813000D02*
X156210200Y-69316600D01*
X130503400Y-56845200D02*
X126283200Y-52625000D01*
X149529800Y-56845200D02*
X130503400Y-56845200D01*
X152831800Y-69316600D02*
X152323800Y-68808600D01*
X152323800Y-68808600D02*
X152323800Y-59639200D01*
%TO.N,Net-(BT1-Pad1)*%
X171475400Y-108127800D02*
X171475400Y-87231800D01*
X171475400Y-87231800D02*
X167166600Y-82923000D01*
X168135400Y-108127800D02*
X171475400Y-108127800D01*
X163300200Y-112963000D02*
X168135400Y-108127800D01*
%TO.N,Net-(BT1-Pad2)*%
X153104000Y-107714800D02*
X153104000Y-88780200D01*
X158246600Y-83637600D02*
X158246600Y-82923000D01*
X158352200Y-112963000D02*
X153104000Y-107714800D01*
X153104000Y-88780200D02*
X158246600Y-83637600D01*
%TO.N,/SPI1 RST*%
X152069800Y-76225400D02*
X150368000Y-77927200D01*
X167259000Y-59975800D02*
X170484600Y-56750200D01*
X167259000Y-60579000D02*
X167259000Y-59975800D01*
X152069800Y-71780400D02*
X152069800Y-76225400D01*
X150368000Y-77927200D02*
X147066000Y-77927200D01*
D23*
%TO.N,+5VP*%
X163677600Y-81102200D02*
X159454400Y-76879000D01*
X159454400Y-76879000D02*
X157668000Y-76879000D01*
%TD*%
%TA.AperFunction,Conductor*%
%TO.N,GND*%
G36*
X155963727Y-69970102D02*
G01*
X155984701Y-69987005D01*
X167197100Y-81199405D01*
X167231126Y-81261717D01*
X167226061Y-81332532D01*
X167183514Y-81389368D01*
X167116994Y-81414179D01*
X167108005Y-81414500D01*
X166118466Y-81414500D01*
X166056284Y-81421255D01*
X165919895Y-81472385D01*
X165803339Y-81559739D01*
X165715985Y-81676295D01*
X165664855Y-81812684D01*
X165658100Y-81874866D01*
X165658100Y-83971134D01*
X165664855Y-84033316D01*
X165715985Y-84169705D01*
X165803339Y-84286261D01*
X165919895Y-84373615D01*
X166056284Y-84424745D01*
X166118466Y-84431500D01*
X167727006Y-84431500D01*
X167795127Y-84451502D01*
X167816101Y-84468405D01*
X170804995Y-87457299D01*
X170839021Y-87519611D01*
X170841900Y-87546394D01*
X170841900Y-104288500D01*
X170821898Y-104356621D01*
X170768242Y-104403114D01*
X170715900Y-104414500D01*
X168658466Y-104414500D01*
X168596284Y-104421255D01*
X168459895Y-104472385D01*
X168343339Y-104559739D01*
X168255985Y-104676295D01*
X168204855Y-104812684D01*
X168198100Y-104874866D01*
X168198100Y-106971134D01*
X168204855Y-107033316D01*
X168255985Y-107169705D01*
X168343339Y-107286261D01*
X168342343Y-107287008D01*
X168372108Y-107341517D01*
X168367043Y-107412332D01*
X168324496Y-107469168D01*
X168257976Y-107493979D01*
X168248987Y-107494300D01*
X168214163Y-107494300D01*
X168202979Y-107493773D01*
X168195491Y-107492099D01*
X168187568Y-107492348D01*
X168127433Y-107494238D01*
X168123475Y-107494300D01*
X168095544Y-107494300D01*
X168091629Y-107494795D01*
X168091625Y-107494795D01*
X168091567Y-107494803D01*
X168091538Y-107494806D01*
X168079696Y-107495739D01*
X168035510Y-107497127D01*
X168018144Y-107502172D01*
X168016058Y-107502778D01*
X167996706Y-107506786D01*
X167984468Y-107508332D01*
X167984466Y-107508333D01*
X167976603Y-107509326D01*
X167935486Y-107525606D01*
X167924285Y-107529441D01*
X167881806Y-107541782D01*
X167874987Y-107545815D01*
X167874982Y-107545817D01*
X167864371Y-107552093D01*
X167846621Y-107560790D01*
X167827783Y-107568248D01*
X167821367Y-107572909D01*
X167821366Y-107572910D01*
X167792025Y-107594228D01*
X167782101Y-107600747D01*
X167750860Y-107619222D01*
X167750855Y-107619226D01*
X167744037Y-107623258D01*
X167729713Y-107637582D01*
X167714681Y-107650421D01*
X167698293Y-107662328D01*
X167670112Y-107696393D01*
X167662122Y-107705173D01*
X164349070Y-111018225D01*
X164286758Y-111052251D01*
X164253166Y-111054946D01*
X164251719Y-111054868D01*
X164248334Y-111054500D01*
X162352066Y-111054500D01*
X162289884Y-111061255D01*
X162153495Y-111112385D01*
X162036939Y-111199739D01*
X161949585Y-111316295D01*
X161898455Y-111452684D01*
X161891700Y-111514866D01*
X161891700Y-114122700D01*
X161871698Y-114190821D01*
X161818042Y-114237314D01*
X161765700Y-114248700D01*
X159886700Y-114248700D01*
X159818579Y-114228698D01*
X159772086Y-114175042D01*
X159760700Y-114122700D01*
X159760700Y-111514866D01*
X159753945Y-111452684D01*
X159702815Y-111316295D01*
X159615461Y-111199739D01*
X159498905Y-111112385D01*
X159362516Y-111061255D01*
X159300334Y-111054500D01*
X157404066Y-111054500D01*
X157400681Y-111054868D01*
X157399234Y-111054946D01*
X157330132Y-111038654D01*
X157303330Y-111018225D01*
X153774405Y-107489300D01*
X153740379Y-107426988D01*
X153737500Y-107400205D01*
X153737500Y-106967669D01*
X154198601Y-106967669D01*
X154198971Y-106974490D01*
X154204495Y-107025352D01*
X154208121Y-107040604D01*
X154253276Y-107161054D01*
X154261814Y-107176649D01*
X154338315Y-107278724D01*
X154350876Y-107291285D01*
X154452951Y-107367786D01*
X154468546Y-107376324D01*
X154588994Y-107421478D01*
X154604249Y-107425105D01*
X154655114Y-107430631D01*
X154661928Y-107431000D01*
X155434485Y-107431000D01*
X155449724Y-107426525D01*
X155450929Y-107425135D01*
X155452600Y-107417452D01*
X155452600Y-107412884D01*
X155960600Y-107412884D01*
X155965075Y-107428123D01*
X155966465Y-107429328D01*
X155974148Y-107430999D01*
X156751269Y-107430999D01*
X156758090Y-107430629D01*
X156808952Y-107425105D01*
X156824204Y-107421479D01*
X156944654Y-107376324D01*
X156960249Y-107367786D01*
X157062324Y-107291285D01*
X157074885Y-107278724D01*
X157151386Y-107176649D01*
X157159924Y-107161054D01*
X157205078Y-107040606D01*
X157208705Y-107025351D01*
X157214231Y-106974486D01*
X157214600Y-106967672D01*
X157214600Y-106195115D01*
X157210125Y-106179876D01*
X157208735Y-106178671D01*
X157201052Y-106177000D01*
X155978715Y-106177000D01*
X155963476Y-106181475D01*
X155962271Y-106182865D01*
X155960600Y-106190548D01*
X155960600Y-107412884D01*
X155452600Y-107412884D01*
X155452600Y-106195115D01*
X155448125Y-106179876D01*
X155446735Y-106178671D01*
X155439052Y-106177000D01*
X154216716Y-106177000D01*
X154201477Y-106181475D01*
X154200272Y-106182865D01*
X154198601Y-106190548D01*
X154198601Y-106967669D01*
X153737500Y-106967669D01*
X153737500Y-105650885D01*
X154198600Y-105650885D01*
X154203075Y-105666124D01*
X154204465Y-105667329D01*
X154212148Y-105669000D01*
X155434485Y-105669000D01*
X155449724Y-105664525D01*
X155450929Y-105663135D01*
X155452600Y-105655452D01*
X155452600Y-105650885D01*
X155960600Y-105650885D01*
X155965075Y-105666124D01*
X155966465Y-105667329D01*
X155974148Y-105669000D01*
X157196484Y-105669000D01*
X157211723Y-105664525D01*
X157212928Y-105663135D01*
X157214599Y-105655452D01*
X157214599Y-104878331D01*
X157214229Y-104871510D01*
X157208705Y-104820648D01*
X157205079Y-104805396D01*
X157159924Y-104684946D01*
X157151386Y-104669351D01*
X157074885Y-104567276D01*
X157062324Y-104554715D01*
X156960249Y-104478214D01*
X156944654Y-104469676D01*
X156824206Y-104424522D01*
X156808951Y-104420895D01*
X156758086Y-104415369D01*
X156751272Y-104415000D01*
X155978715Y-104415000D01*
X155963476Y-104419475D01*
X155962271Y-104420865D01*
X155960600Y-104428548D01*
X155960600Y-105650885D01*
X155452600Y-105650885D01*
X155452600Y-104433116D01*
X155448125Y-104417877D01*
X155446735Y-104416672D01*
X155439052Y-104415001D01*
X154661931Y-104415001D01*
X154655110Y-104415371D01*
X154604248Y-104420895D01*
X154588996Y-104424521D01*
X154468546Y-104469676D01*
X154452951Y-104478214D01*
X154350876Y-104554715D01*
X154338315Y-104567276D01*
X154261814Y-104669351D01*
X154253276Y-104684946D01*
X154208122Y-104805394D01*
X154204495Y-104820649D01*
X154198969Y-104871514D01*
X154198600Y-104878328D01*
X154198600Y-105650885D01*
X153737500Y-105650885D01*
X153737500Y-102276669D01*
X157260895Y-102276669D01*
X157261192Y-102281822D01*
X157261192Y-102281825D01*
X157266867Y-102380241D01*
X157274227Y-102507897D01*
X157275364Y-102512943D01*
X157275365Y-102512949D01*
X157307541Y-102655723D01*
X157325146Y-102733842D01*
X157327088Y-102738624D01*
X157327089Y-102738628D01*
X157410340Y-102943650D01*
X157412284Y-102948437D01*
X157533301Y-103145919D01*
X157684947Y-103320984D01*
X157863149Y-103468930D01*
X158063122Y-103585784D01*
X158279494Y-103668409D01*
X158284560Y-103669440D01*
X158284561Y-103669440D01*
X158337646Y-103680240D01*
X158506456Y-103714585D01*
X158637124Y-103719376D01*
X158732749Y-103722883D01*
X158732753Y-103722883D01*
X158737913Y-103723072D01*
X158743033Y-103722416D01*
X158743035Y-103722416D01*
X158816091Y-103713057D01*
X158967647Y-103693642D01*
X158972595Y-103692157D01*
X158972602Y-103692156D01*
X159184547Y-103628569D01*
X159189490Y-103627086D01*
X159270961Y-103587174D01*
X159392849Y-103527462D01*
X159392852Y-103527460D01*
X159397484Y-103525191D01*
X159471206Y-103472606D01*
X160417223Y-103472606D01*
X160422504Y-103479661D01*
X160598880Y-103582727D01*
X160608163Y-103587174D01*
X160814803Y-103666083D01*
X160824701Y-103668959D01*
X161041453Y-103713057D01*
X161051683Y-103714276D01*
X161272714Y-103722382D01*
X161283023Y-103721914D01*
X161502423Y-103693808D01*
X161512488Y-103691668D01*
X161724357Y-103628105D01*
X161733952Y-103624344D01*
X161932578Y-103527038D01*
X161941436Y-103521759D01*
X161998897Y-103480772D01*
X162007297Y-103470074D01*
X162000310Y-103456921D01*
X161226611Y-102683221D01*
X161212668Y-102675608D01*
X161210834Y-102675739D01*
X161204220Y-102679990D01*
X160423980Y-103460231D01*
X160417223Y-103472606D01*
X159471206Y-103472606D01*
X159586043Y-103390694D01*
X159750103Y-103227205D01*
X159841075Y-103100604D01*
X159897070Y-103056956D01*
X159967773Y-103050510D01*
X160030738Y-103083313D01*
X160035942Y-103089784D01*
X160054353Y-103106442D01*
X160063131Y-103102658D01*
X160841779Y-102324011D01*
X160848156Y-102312332D01*
X161578208Y-102312332D01*
X161578339Y-102314166D01*
X161582590Y-102320780D01*
X162360107Y-103098296D01*
X162372113Y-103104852D01*
X162398748Y-103084504D01*
X162399627Y-103085654D01*
X162436472Y-103056934D01*
X162507176Y-103050489D01*
X162570140Y-103083292D01*
X162590232Y-103108274D01*
X162610600Y-103141513D01*
X162610604Y-103141518D01*
X162613301Y-103145919D01*
X162764947Y-103320984D01*
X162943149Y-103468930D01*
X163143122Y-103585784D01*
X163359494Y-103668409D01*
X163364560Y-103669440D01*
X163364561Y-103669440D01*
X163417646Y-103680240D01*
X163586456Y-103714585D01*
X163717124Y-103719376D01*
X163812749Y-103722883D01*
X163812753Y-103722883D01*
X163817913Y-103723072D01*
X163823033Y-103722416D01*
X163823035Y-103722416D01*
X163896091Y-103713057D01*
X164047647Y-103693642D01*
X164052595Y-103692157D01*
X164052602Y-103692156D01*
X164264547Y-103628569D01*
X164269490Y-103627086D01*
X164350961Y-103587174D01*
X164472849Y-103527462D01*
X164472852Y-103527460D01*
X164477484Y-103525191D01*
X164666043Y-103390694D01*
X164830103Y-103227205D01*
X164965258Y-103039117D01*
X165012441Y-102943650D01*
X165065584Y-102836122D01*
X165065585Y-102836120D01*
X165067878Y-102831480D01*
X165135208Y-102609871D01*
X165165440Y-102380241D01*
X165165522Y-102376891D01*
X165167045Y-102314565D01*
X165167045Y-102314561D01*
X165167127Y-102311200D01*
X165151204Y-102117524D01*
X165148573Y-102085518D01*
X165148572Y-102085512D01*
X165148149Y-102080367D01*
X165114597Y-101946792D01*
X165092984Y-101860744D01*
X165092983Y-101860740D01*
X165091725Y-101855733D01*
X165089666Y-101850997D01*
X165001430Y-101648068D01*
X165001428Y-101648065D01*
X164999370Y-101643331D01*
X164873564Y-101448865D01*
X164717687Y-101277558D01*
X164713636Y-101274359D01*
X164713632Y-101274355D01*
X164539977Y-101137211D01*
X164539972Y-101137208D01*
X164535923Y-101134010D01*
X164531407Y-101131517D01*
X164531404Y-101131515D01*
X164337679Y-101024573D01*
X164337675Y-101024571D01*
X164333155Y-101022076D01*
X164328286Y-101020352D01*
X164328282Y-101020350D01*
X164119703Y-100946488D01*
X164119699Y-100946487D01*
X164114828Y-100944762D01*
X164109735Y-100943855D01*
X164109732Y-100943854D01*
X163891895Y-100905051D01*
X163891889Y-100905050D01*
X163886806Y-100904145D01*
X163813896Y-100903254D01*
X163660381Y-100901379D01*
X163660379Y-100901379D01*
X163655211Y-100901316D01*
X163426264Y-100936350D01*
X163206114Y-101008306D01*
X163201526Y-101010694D01*
X163201522Y-101010696D01*
X163005261Y-101112863D01*
X163000672Y-101115252D01*
X162996539Y-101118355D01*
X162996536Y-101118357D01*
X162937084Y-101162995D01*
X162815455Y-101254317D01*
X162655439Y-101421764D01*
X162639563Y-101445038D01*
X162587802Y-101520916D01*
X162532890Y-101565918D01*
X162462365Y-101574089D01*
X162398619Y-101542834D01*
X162388779Y-101531194D01*
X162372338Y-101517035D01*
X162362773Y-101521438D01*
X161585821Y-102298389D01*
X161578208Y-102312332D01*
X160848156Y-102312332D01*
X160849392Y-102310068D01*
X160849261Y-102308234D01*
X160845010Y-102301620D01*
X160067662Y-101524273D01*
X160056130Y-101517976D01*
X160028474Y-101539644D01*
X160027334Y-101538189D01*
X159993495Y-101565924D01*
X159922971Y-101574098D01*
X159859222Y-101542846D01*
X159838522Y-101518359D01*
X159796375Y-101453209D01*
X159796370Y-101453203D01*
X159793564Y-101448865D01*
X159637687Y-101277558D01*
X159633636Y-101274359D01*
X159633632Y-101274355D01*
X159478590Y-101151911D01*
X160419308Y-101151911D01*
X160426051Y-101164240D01*
X161200989Y-101939179D01*
X161214932Y-101946792D01*
X161216766Y-101946661D01*
X161223380Y-101942410D01*
X162002794Y-101162995D01*
X162009811Y-101150144D01*
X162002037Y-101139474D01*
X161999702Y-101137630D01*
X161991120Y-101131929D01*
X161797478Y-101025033D01*
X161788072Y-101020806D01*
X161579572Y-100946972D01*
X161569609Y-100944340D01*
X161351847Y-100905550D01*
X161341596Y-100904581D01*
X161120416Y-100901879D01*
X161110132Y-100902599D01*
X160891493Y-100936055D01*
X160881466Y-100938444D01*
X160671226Y-101007161D01*
X160661716Y-101011158D01*
X160465525Y-101113289D01*
X160456807Y-101118778D01*
X160427761Y-101140586D01*
X160419308Y-101151911D01*
X159478590Y-101151911D01*
X159459977Y-101137211D01*
X159459972Y-101137208D01*
X159455923Y-101134010D01*
X159451407Y-101131517D01*
X159451404Y-101131515D01*
X159257679Y-101024573D01*
X159257675Y-101024571D01*
X159253155Y-101022076D01*
X159248286Y-101020352D01*
X159248282Y-101020350D01*
X159039703Y-100946488D01*
X159039699Y-100946487D01*
X159034828Y-100944762D01*
X159029735Y-100943855D01*
X159029732Y-100943854D01*
X158811895Y-100905051D01*
X158811889Y-100905050D01*
X158806806Y-100904145D01*
X158733896Y-100903254D01*
X158580381Y-100901379D01*
X158580379Y-100901379D01*
X158575211Y-100901316D01*
X158346264Y-100936350D01*
X158126114Y-101008306D01*
X158121526Y-101010694D01*
X158121522Y-101010696D01*
X157925261Y-101112863D01*
X157920672Y-101115252D01*
X157916539Y-101118355D01*
X157916536Y-101118357D01*
X157857084Y-101162995D01*
X157735455Y-101254317D01*
X157575439Y-101421764D01*
X157572528Y-101426032D01*
X157572524Y-101426037D01*
X157556952Y-101448865D01*
X157444919Y-101613099D01*
X157347402Y-101823181D01*
X157285507Y-102046369D01*
X157260895Y-102276669D01*
X153737500Y-102276669D01*
X153737500Y-95478600D01*
X156083896Y-95478600D01*
X156103858Y-95668528D01*
X156162873Y-95850156D01*
X156258360Y-96015544D01*
X156386147Y-96157466D01*
X156540648Y-96269718D01*
X156546676Y-96272402D01*
X156546678Y-96272403D01*
X156709081Y-96344709D01*
X156715112Y-96347394D01*
X156808513Y-96367247D01*
X156895456Y-96385728D01*
X156895461Y-96385728D01*
X156901913Y-96387100D01*
X156957806Y-96387100D01*
X157025927Y-96407102D01*
X157046901Y-96424005D01*
X158155881Y-97532985D01*
X158189907Y-97595297D01*
X158191728Y-97612239D01*
X158192096Y-97612200D01*
X158212058Y-97802128D01*
X158271073Y-97983756D01*
X158366560Y-98149144D01*
X158494347Y-98291066D01*
X158648848Y-98403318D01*
X158654876Y-98406002D01*
X158654878Y-98406003D01*
X158817281Y-98478309D01*
X158823312Y-98480994D01*
X158916713Y-98500847D01*
X159003656Y-98519328D01*
X159003661Y-98519328D01*
X159010113Y-98520700D01*
X159201087Y-98520700D01*
X159207539Y-98519328D01*
X159207544Y-98519328D01*
X159294487Y-98500847D01*
X159387888Y-98480994D01*
X159393919Y-98478309D01*
X159556322Y-98406003D01*
X159556324Y-98406002D01*
X159562352Y-98403318D01*
X159716853Y-98291066D01*
X159844640Y-98149144D01*
X159940127Y-97983756D01*
X159999142Y-97802128D01*
X160019104Y-97612200D01*
X159999142Y-97422272D01*
X159940127Y-97240644D01*
X159844640Y-97075256D01*
X159764132Y-96985842D01*
X159721275Y-96938245D01*
X159721274Y-96938244D01*
X159716853Y-96933334D01*
X159562352Y-96821082D01*
X159556324Y-96818398D01*
X159556322Y-96818397D01*
X159393919Y-96746091D01*
X159393918Y-96746091D01*
X159387888Y-96743406D01*
X159294487Y-96723553D01*
X159207544Y-96705072D01*
X159207539Y-96705072D01*
X159201087Y-96703700D01*
X159170594Y-96703700D01*
X159102473Y-96683698D01*
X159081499Y-96666795D01*
X157944522Y-95529817D01*
X157910496Y-95467505D01*
X157908307Y-95453892D01*
X157891632Y-95295235D01*
X157891632Y-95295233D01*
X157890942Y-95288672D01*
X157831927Y-95107044D01*
X157736440Y-94941656D01*
X157620176Y-94812531D01*
X157613075Y-94804645D01*
X157613074Y-94804644D01*
X157608653Y-94799734D01*
X157454152Y-94687482D01*
X157448124Y-94684798D01*
X157448122Y-94684797D01*
X157285719Y-94612491D01*
X157285718Y-94612491D01*
X157279688Y-94609806D01*
X157186288Y-94589953D01*
X157099344Y-94571472D01*
X157099339Y-94571472D01*
X157092887Y-94570100D01*
X156901913Y-94570100D01*
X156895461Y-94571472D01*
X156895456Y-94571472D01*
X156808513Y-94589953D01*
X156715112Y-94609806D01*
X156709082Y-94612491D01*
X156709081Y-94612491D01*
X156546678Y-94684797D01*
X156546676Y-94684798D01*
X156540648Y-94687482D01*
X156386147Y-94799734D01*
X156381726Y-94804644D01*
X156381725Y-94804645D01*
X156374625Y-94812531D01*
X156258360Y-94941656D01*
X156162873Y-95107044D01*
X156103858Y-95288672D01*
X156083896Y-95478600D01*
X153737500Y-95478600D01*
X153737500Y-89094794D01*
X153757502Y-89026673D01*
X153774405Y-89005699D01*
X158311699Y-84468405D01*
X158374011Y-84434379D01*
X158400794Y-84431500D01*
X159294734Y-84431500D01*
X159356916Y-84424745D01*
X159493305Y-84373615D01*
X159609861Y-84286261D01*
X159697215Y-84169705D01*
X159748345Y-84033316D01*
X159755100Y-83971134D01*
X159755100Y-81874866D01*
X159748345Y-81812684D01*
X159697215Y-81676295D01*
X159609861Y-81559739D01*
X159493305Y-81472385D01*
X159356916Y-81421255D01*
X159294734Y-81414500D01*
X157198466Y-81414500D01*
X157136284Y-81421255D01*
X157020117Y-81464804D01*
X156949311Y-81469987D01*
X156931658Y-81464804D01*
X156824206Y-81424522D01*
X156808951Y-81420895D01*
X156758086Y-81415369D01*
X156751272Y-81415000D01*
X155978715Y-81415000D01*
X155963476Y-81419475D01*
X155962271Y-81420865D01*
X155960600Y-81428548D01*
X155960600Y-84412884D01*
X155965075Y-84428123D01*
X155966465Y-84429328D01*
X155974148Y-84430999D01*
X156253107Y-84430999D01*
X156321228Y-84451001D01*
X156367721Y-84504657D01*
X156377825Y-84574931D01*
X156348331Y-84639511D01*
X156342202Y-84646094D01*
X153502595Y-87485700D01*
X153440283Y-87519726D01*
X153369467Y-87514661D01*
X153312632Y-87472114D01*
X153287821Y-87405594D01*
X153287500Y-87396605D01*
X153287500Y-83967669D01*
X154198601Y-83967669D01*
X154198971Y-83974490D01*
X154204495Y-84025352D01*
X154208121Y-84040604D01*
X154253276Y-84161054D01*
X154261814Y-84176649D01*
X154338315Y-84278724D01*
X154350876Y-84291285D01*
X154452951Y-84367786D01*
X154468546Y-84376324D01*
X154588994Y-84421478D01*
X154604249Y-84425105D01*
X154655114Y-84430631D01*
X154661928Y-84431000D01*
X155434485Y-84431000D01*
X155449724Y-84426525D01*
X155450929Y-84425135D01*
X155452600Y-84417452D01*
X155452600Y-83195115D01*
X155448125Y-83179876D01*
X155446735Y-83178671D01*
X155439052Y-83177000D01*
X154216716Y-83177000D01*
X154201477Y-83181475D01*
X154200272Y-83182865D01*
X154198601Y-83190548D01*
X154198601Y-83967669D01*
X153287500Y-83967669D01*
X153287500Y-82650885D01*
X154198600Y-82650885D01*
X154203075Y-82666124D01*
X154204465Y-82667329D01*
X154212148Y-82669000D01*
X155434485Y-82669000D01*
X155449724Y-82664525D01*
X155450929Y-82663135D01*
X155452600Y-82655452D01*
X155452600Y-81433116D01*
X155448125Y-81417877D01*
X155446735Y-81416672D01*
X155439052Y-81415001D01*
X154661931Y-81415001D01*
X154655110Y-81415371D01*
X154604248Y-81420895D01*
X154588996Y-81424521D01*
X154468546Y-81469676D01*
X154452951Y-81478214D01*
X154350876Y-81554715D01*
X154338315Y-81567276D01*
X154261814Y-81669351D01*
X154253276Y-81684946D01*
X154208122Y-81805394D01*
X154204495Y-81820649D01*
X154198969Y-81871514D01*
X154198600Y-81878328D01*
X154198600Y-82650885D01*
X153287500Y-82650885D01*
X153287500Y-80324594D01*
X153307502Y-80256473D01*
X153324405Y-80235499D01*
X155520500Y-78039405D01*
X155582812Y-78005379D01*
X155609595Y-78002500D01*
X155980222Y-78002499D01*
X156013624Y-78002499D01*
X156017709Y-78001961D01*
X156017713Y-78001961D01*
X156122161Y-77988211D01*
X156122163Y-77988211D01*
X156130348Y-77987133D01*
X156275576Y-77926978D01*
X156361810Y-77860808D01*
X156393732Y-77836314D01*
X156393735Y-77836311D01*
X156400285Y-77831285D01*
X156405314Y-77824732D01*
X156490951Y-77713126D01*
X156495978Y-77706575D01*
X156556133Y-77561348D01*
X156571500Y-77444625D01*
X156571499Y-76313376D01*
X156569069Y-76294913D01*
X156557211Y-76204839D01*
X156557211Y-76204837D01*
X156556133Y-76196652D01*
X156502039Y-76066056D01*
X156498171Y-76056718D01*
X156490582Y-75986128D01*
X156522362Y-75922641D01*
X156583420Y-75886414D01*
X156614579Y-75882500D01*
X156718000Y-75882500D01*
X156821421Y-75882499D01*
X156889541Y-75902501D01*
X156936034Y-75956156D01*
X156946139Y-76026430D01*
X156937830Y-76056717D01*
X156892332Y-76166560D01*
X156879867Y-76196652D01*
X156864500Y-76313375D01*
X156864501Y-77444624D01*
X156879867Y-77561348D01*
X156940022Y-77706576D01*
X156987868Y-77768930D01*
X157030686Y-77824732D01*
X157030688Y-77824734D01*
X157035715Y-77831285D01*
X157160425Y-77926978D01*
X157305652Y-77987133D01*
X157356217Y-77993790D01*
X157418288Y-78001962D01*
X157418289Y-78001962D01*
X157422375Y-78002500D01*
X157667970Y-78002500D01*
X157913624Y-78002499D01*
X157917709Y-78001961D01*
X157917713Y-78001961D01*
X158022161Y-77988211D01*
X158022163Y-77988211D01*
X158030348Y-77987133D01*
X158175576Y-77926978D01*
X158261810Y-77860808D01*
X158293732Y-77836314D01*
X158293735Y-77836311D01*
X158300285Y-77831285D01*
X158305314Y-77824732D01*
X158332371Y-77789469D01*
X158395978Y-77706575D01*
X158398659Y-77700102D01*
X158449622Y-77651508D01*
X158507360Y-77637500D01*
X159088029Y-77637500D01*
X159156150Y-77657502D01*
X159177124Y-77674405D01*
X162388082Y-80885363D01*
X162422108Y-80947675D01*
X162424508Y-80985439D01*
X162414293Y-81102200D01*
X162433485Y-81321571D01*
X162490480Y-81534276D01*
X162505702Y-81566919D01*
X162581218Y-81728866D01*
X162581221Y-81728871D01*
X162583544Y-81733853D01*
X162586700Y-81738360D01*
X162586701Y-81738362D01*
X162684707Y-81878328D01*
X162709851Y-81914238D01*
X162865562Y-82069949D01*
X163045946Y-82196256D01*
X163245524Y-82289320D01*
X163458229Y-82346315D01*
X163677600Y-82365507D01*
X163896971Y-82346315D01*
X164109676Y-82289320D01*
X164309254Y-82196256D01*
X164489638Y-82069949D01*
X164645349Y-81914238D01*
X164670494Y-81878328D01*
X164768499Y-81738362D01*
X164768500Y-81738360D01*
X164771656Y-81733853D01*
X164773979Y-81728871D01*
X164773982Y-81728866D01*
X164849498Y-81566919D01*
X164864720Y-81534276D01*
X164921715Y-81321571D01*
X164940907Y-81102200D01*
X164921715Y-80882829D01*
X164864720Y-80670124D01*
X164801147Y-80533790D01*
X164773982Y-80475534D01*
X164773979Y-80475529D01*
X164771656Y-80470547D01*
X164766964Y-80463846D01*
X164648508Y-80294673D01*
X164648506Y-80294670D01*
X164645349Y-80290162D01*
X164489638Y-80134451D01*
X164480763Y-80128236D01*
X164363059Y-80045819D01*
X164309254Y-80008144D01*
X164109676Y-79915080D01*
X163896971Y-79858085D01*
X163677600Y-79838893D01*
X163672125Y-79839372D01*
X163672124Y-79839372D01*
X163560839Y-79849108D01*
X163491235Y-79835119D01*
X163460763Y-79812682D01*
X160038170Y-76390089D01*
X160025784Y-76375677D01*
X160017251Y-76364082D01*
X160017246Y-76364077D01*
X160012908Y-76358182D01*
X160007330Y-76353443D01*
X160007327Y-76353440D01*
X159972632Y-76323965D01*
X159965116Y-76317035D01*
X159959421Y-76311340D01*
X159950161Y-76304014D01*
X159937149Y-76293719D01*
X159933745Y-76290928D01*
X159883697Y-76248409D01*
X159883695Y-76248408D01*
X159878115Y-76243667D01*
X159871599Y-76240339D01*
X159866550Y-76236972D01*
X159861421Y-76233805D01*
X159855684Y-76229266D01*
X159789525Y-76198345D01*
X159785625Y-76196439D01*
X159783835Y-76195525D01*
X159720592Y-76163231D01*
X159713484Y-76161492D01*
X159707841Y-76159393D01*
X159702078Y-76157476D01*
X159695450Y-76154378D01*
X159623983Y-76139513D01*
X159619699Y-76138543D01*
X159548790Y-76121192D01*
X159543188Y-76120844D01*
X159543185Y-76120844D01*
X159537636Y-76120500D01*
X159537638Y-76120464D01*
X159533645Y-76120225D01*
X159529453Y-76119851D01*
X159522285Y-76118360D01*
X159456075Y-76120151D01*
X159444879Y-76120454D01*
X159441472Y-76120500D01*
X158507360Y-76120500D01*
X158439239Y-76100498D01*
X158398690Y-76057971D01*
X158395978Y-76051424D01*
X158322876Y-75956156D01*
X158305314Y-75933268D01*
X158305311Y-75933265D01*
X158300285Y-75926715D01*
X158175575Y-75831022D01*
X158030348Y-75770867D01*
X157957421Y-75761266D01*
X157917712Y-75756038D01*
X157917711Y-75756038D01*
X157913625Y-75755500D01*
X157899786Y-75755500D01*
X157564578Y-75755501D01*
X157496459Y-75735499D01*
X157449966Y-75681844D01*
X157439861Y-75611570D01*
X157448170Y-75581283D01*
X157502973Y-75448977D01*
X157502973Y-75448976D01*
X157506133Y-75441348D01*
X157516968Y-75359051D01*
X157520962Y-75328712D01*
X157520962Y-75328711D01*
X157521500Y-75324625D01*
X157521499Y-74193376D01*
X157518941Y-74173939D01*
X157507211Y-74084839D01*
X157507211Y-74084837D01*
X157506133Y-74076652D01*
X157445978Y-73931424D01*
X157366724Y-73828138D01*
X157355314Y-73813268D01*
X157355311Y-73813265D01*
X157350285Y-73806715D01*
X157225575Y-73711022D01*
X157080348Y-73650867D01*
X157007421Y-73641266D01*
X156967712Y-73636038D01*
X156967711Y-73636038D01*
X156963625Y-73635500D01*
X156928986Y-73635500D01*
X156542595Y-73635501D01*
X156474475Y-73615499D01*
X156453500Y-73598596D01*
X153020100Y-70165195D01*
X152986074Y-70102883D01*
X152991139Y-70032067D01*
X153033686Y-69975232D01*
X153100206Y-69950421D01*
X153109195Y-69950100D01*
X155895606Y-69950100D01*
X155963727Y-69970102D01*
G37*
%TD.AperFunction*%
%TA.AperFunction,Conductor*%
G36*
X128509126Y-38018902D02*
G01*
X128555619Y-38072558D01*
X128565723Y-38142832D01*
X128536229Y-38207412D01*
X128530100Y-38213996D01*
X127877742Y-38866353D01*
X127869463Y-38873887D01*
X127862982Y-38878000D01*
X127831641Y-38911375D01*
X127816357Y-38927651D01*
X127813602Y-38930493D01*
X127793865Y-38950230D01*
X127791385Y-38953427D01*
X127783682Y-38962447D01*
X127753414Y-38994679D01*
X127749595Y-39001625D01*
X127749593Y-39001628D01*
X127743652Y-39012434D01*
X127732801Y-39028953D01*
X127720386Y-39044959D01*
X127717241Y-39052228D01*
X127717238Y-39052232D01*
X127702826Y-39085537D01*
X127697609Y-39096187D01*
X127676305Y-39134940D01*
X127674334Y-39142615D01*
X127674334Y-39142616D01*
X127671267Y-39154562D01*
X127664863Y-39173266D01*
X127656819Y-39191855D01*
X127655580Y-39199678D01*
X127655577Y-39199688D01*
X127649901Y-39235524D01*
X127647495Y-39247144D01*
X127639469Y-39278405D01*
X127636500Y-39289970D01*
X127636500Y-39310224D01*
X127634949Y-39329934D01*
X127631780Y-39349943D01*
X127632526Y-39357835D01*
X127635941Y-39393961D01*
X127636500Y-39405819D01*
X127636500Y-41969476D01*
X127616498Y-42037597D01*
X127604142Y-42053779D01*
X127530960Y-42135056D01*
X127435473Y-42300444D01*
X127376458Y-42482072D01*
X127375768Y-42488633D01*
X127375768Y-42488635D01*
X127365720Y-42584241D01*
X127356496Y-42672000D01*
X127376458Y-42861928D01*
X127435473Y-43043556D01*
X127438776Y-43049278D01*
X127438777Y-43049279D01*
X127479319Y-43119500D01*
X127496057Y-43188496D01*
X127472836Y-43255587D01*
X127417029Y-43299474D01*
X127370200Y-43308500D01*
X124157763Y-43308500D01*
X124146579Y-43307973D01*
X124139091Y-43306299D01*
X124131168Y-43306548D01*
X124071033Y-43308438D01*
X124067075Y-43308500D01*
X124039144Y-43308500D01*
X124035229Y-43308995D01*
X124035225Y-43308995D01*
X124035167Y-43309003D01*
X124035138Y-43309006D01*
X124023296Y-43309939D01*
X123979110Y-43311327D01*
X123961744Y-43316372D01*
X123959658Y-43316978D01*
X123940306Y-43320986D01*
X123928068Y-43322532D01*
X123928066Y-43322533D01*
X123920203Y-43323526D01*
X123879086Y-43339806D01*
X123867885Y-43343641D01*
X123825406Y-43355982D01*
X123818587Y-43360015D01*
X123818582Y-43360017D01*
X123807971Y-43366293D01*
X123790221Y-43374990D01*
X123771383Y-43382448D01*
X123764967Y-43387109D01*
X123764966Y-43387110D01*
X123735625Y-43408428D01*
X123725701Y-43414947D01*
X123694460Y-43433422D01*
X123694455Y-43433426D01*
X123687637Y-43437458D01*
X123673313Y-43451782D01*
X123658281Y-43464621D01*
X123641893Y-43476528D01*
X123613712Y-43510593D01*
X123605722Y-43519373D01*
X121146747Y-45978348D01*
X121138461Y-45985888D01*
X121131982Y-45990000D01*
X121126557Y-45995777D01*
X121085357Y-46039651D01*
X121082602Y-46042493D01*
X121062865Y-46062230D01*
X121060385Y-46065427D01*
X121052682Y-46074447D01*
X121022414Y-46106679D01*
X121018595Y-46113625D01*
X121018593Y-46113628D01*
X121012652Y-46124434D01*
X121001801Y-46140953D01*
X120989386Y-46156959D01*
X120986241Y-46164228D01*
X120986238Y-46164232D01*
X120971826Y-46197537D01*
X120966609Y-46208187D01*
X120945305Y-46246940D01*
X120943334Y-46254615D01*
X120943334Y-46254616D01*
X120940267Y-46266562D01*
X120933863Y-46285266D01*
X120929689Y-46294913D01*
X120925819Y-46303855D01*
X120924580Y-46311678D01*
X120924577Y-46311688D01*
X120918901Y-46347524D01*
X120916495Y-46359144D01*
X120905500Y-46401970D01*
X120905500Y-46422224D01*
X120903949Y-46441934D01*
X120900780Y-46461943D01*
X120901526Y-46469835D01*
X120904941Y-46505961D01*
X120905500Y-46517819D01*
X120905500Y-66226476D01*
X120885498Y-66294597D01*
X120873142Y-66310779D01*
X120799960Y-66392056D01*
X120780989Y-66424915D01*
X120711371Y-66545497D01*
X120704473Y-66557444D01*
X120645458Y-66739072D01*
X120644768Y-66745633D01*
X120644768Y-66745635D01*
X120632152Y-66865669D01*
X120625496Y-66929000D01*
X120626186Y-66935565D01*
X120644194Y-67106897D01*
X120645458Y-67118928D01*
X120704473Y-67300556D01*
X120707776Y-67306278D01*
X120707777Y-67306279D01*
X120733537Y-67350897D01*
X120799960Y-67465944D01*
X120804378Y-67470851D01*
X120804379Y-67470852D01*
X120877302Y-67551841D01*
X120927747Y-67607866D01*
X121082248Y-67720118D01*
X121088276Y-67722802D01*
X121088278Y-67722803D01*
X121250681Y-67795109D01*
X121256712Y-67797794D01*
X121350113Y-67817647D01*
X121437056Y-67836128D01*
X121437061Y-67836128D01*
X121443513Y-67837500D01*
X121634487Y-67837500D01*
X121640939Y-67836128D01*
X121640944Y-67836128D01*
X121727887Y-67817647D01*
X121821288Y-67797794D01*
X121871251Y-67775549D01*
X121941618Y-67766115D01*
X122005915Y-67796221D01*
X122043729Y-67856310D01*
X122048500Y-67890656D01*
X122048500Y-70314433D01*
X122047973Y-70325616D01*
X122046298Y-70333109D01*
X122046547Y-70341035D01*
X122046547Y-70341036D01*
X122048438Y-70401186D01*
X122048500Y-70405145D01*
X122048500Y-70433056D01*
X122048997Y-70436990D01*
X122048997Y-70436991D01*
X122049005Y-70437056D01*
X122049938Y-70448893D01*
X122051327Y-70493089D01*
X122056978Y-70512539D01*
X122060987Y-70531900D01*
X122063526Y-70551997D01*
X122066445Y-70559368D01*
X122066445Y-70559370D01*
X122079804Y-70593112D01*
X122083649Y-70604342D01*
X122095982Y-70646793D01*
X122100015Y-70653612D01*
X122100017Y-70653617D01*
X122106293Y-70664228D01*
X122114988Y-70681976D01*
X122122448Y-70700817D01*
X122127110Y-70707233D01*
X122127110Y-70707234D01*
X122148436Y-70736587D01*
X122154952Y-70746507D01*
X122177458Y-70784562D01*
X122191779Y-70798883D01*
X122204619Y-70813916D01*
X122216528Y-70830307D01*
X122222634Y-70835358D01*
X122250605Y-70858498D01*
X122259384Y-70866488D01*
X126090595Y-74697699D01*
X126124621Y-74760011D01*
X126127500Y-74786794D01*
X126127500Y-76285334D01*
X126134255Y-76347516D01*
X126185385Y-76483905D01*
X126253117Y-76574279D01*
X126258630Y-76581635D01*
X126283478Y-76648141D01*
X126268425Y-76717524D01*
X126258632Y-76732762D01*
X126185385Y-76830495D01*
X126134255Y-76966884D01*
X126127500Y-77029066D01*
X126127500Y-78825334D01*
X126134255Y-78887516D01*
X126185385Y-79023905D01*
X126226933Y-79079342D01*
X126258630Y-79121635D01*
X126283478Y-79188141D01*
X126268425Y-79257524D01*
X126258632Y-79272762D01*
X126185385Y-79370495D01*
X126134255Y-79506884D01*
X126127500Y-79569066D01*
X126127500Y-81365334D01*
X126134255Y-81427516D01*
X126185385Y-81563905D01*
X126190771Y-81571091D01*
X126258942Y-81662052D01*
X126283790Y-81728558D01*
X126268737Y-81797941D01*
X126258942Y-81813182D01*
X126191214Y-81903551D01*
X126182676Y-81919146D01*
X126137522Y-82039594D01*
X126133895Y-82054849D01*
X126128369Y-82105714D01*
X126128000Y-82112528D01*
X126128000Y-82735085D01*
X126132475Y-82750324D01*
X126133865Y-82751529D01*
X126141548Y-82753200D01*
X130625884Y-82753200D01*
X130641123Y-82748725D01*
X130642328Y-82747335D01*
X130643999Y-82739652D01*
X130643999Y-82112531D01*
X130643629Y-82105710D01*
X130638105Y-82054848D01*
X130634479Y-82039596D01*
X130589324Y-81919146D01*
X130580786Y-81903551D01*
X130513058Y-81813182D01*
X130488210Y-81746675D01*
X130503263Y-81677293D01*
X130513058Y-81662052D01*
X130581229Y-81571091D01*
X130586615Y-81563905D01*
X130637745Y-81427516D01*
X130644500Y-81365334D01*
X130644500Y-80565056D01*
X130645578Y-80548609D01*
X130647092Y-80537108D01*
X130647529Y-80533790D01*
X130648258Y-80503963D01*
X130649074Y-80470565D01*
X130649074Y-80470561D01*
X130649156Y-80467200D01*
X130644924Y-80415724D01*
X130644500Y-80405400D01*
X130644500Y-79569066D01*
X130637745Y-79506884D01*
X130586615Y-79370495D01*
X130513370Y-79272764D01*
X130488522Y-79206259D01*
X130503575Y-79136876D01*
X130513370Y-79121635D01*
X130545067Y-79079342D01*
X130586615Y-79023905D01*
X130637745Y-78887516D01*
X130644500Y-78825334D01*
X130644500Y-78025056D01*
X130645578Y-78008609D01*
X130647092Y-77997108D01*
X130647529Y-77993790D01*
X130648169Y-77967588D01*
X130649074Y-77930565D01*
X130649074Y-77930561D01*
X130649156Y-77927200D01*
X130644924Y-77875724D01*
X130644500Y-77865400D01*
X130644500Y-77029066D01*
X130637745Y-76966884D01*
X130586615Y-76830495D01*
X130513370Y-76732764D01*
X130488522Y-76666259D01*
X130503575Y-76596876D01*
X130513370Y-76581635D01*
X130518883Y-76574279D01*
X130586615Y-76483905D01*
X130637745Y-76347516D01*
X130644500Y-76285334D01*
X130644500Y-75485056D01*
X130645578Y-75468609D01*
X130647092Y-75457108D01*
X130647529Y-75453790D01*
X130649156Y-75387200D01*
X130644924Y-75335724D01*
X130644500Y-75325400D01*
X130644500Y-74489066D01*
X130637745Y-74426884D01*
X130586615Y-74290495D01*
X130513370Y-74192764D01*
X130488522Y-74126259D01*
X130503575Y-74056876D01*
X130513370Y-74041635D01*
X130581229Y-73951091D01*
X130586615Y-73943905D01*
X130637745Y-73807516D01*
X130644500Y-73745334D01*
X130644500Y-72945056D01*
X130645578Y-72928609D01*
X130647092Y-72917108D01*
X130647529Y-72913790D01*
X130649156Y-72847200D01*
X130644924Y-72795724D01*
X130644500Y-72785400D01*
X130644500Y-71949066D01*
X130637745Y-71886884D01*
X130586615Y-71750495D01*
X130513058Y-71652348D01*
X130488210Y-71585842D01*
X130503263Y-71516459D01*
X130513058Y-71501218D01*
X130580786Y-71410849D01*
X130589324Y-71395254D01*
X130634478Y-71274806D01*
X130638105Y-71259551D01*
X130643631Y-71208686D01*
X130644000Y-71201872D01*
X130644000Y-70579315D01*
X130639525Y-70564076D01*
X130638135Y-70562871D01*
X130630452Y-70561200D01*
X126146116Y-70561200D01*
X126130877Y-70565675D01*
X126129672Y-70567065D01*
X126128001Y-70574748D01*
X126128001Y-71201869D01*
X126128371Y-71208690D01*
X126133895Y-71259552D01*
X126137521Y-71274804D01*
X126182676Y-71395254D01*
X126191214Y-71410849D01*
X126258942Y-71501218D01*
X126283790Y-71567725D01*
X126268737Y-71637107D01*
X126258942Y-71652348D01*
X126185385Y-71750495D01*
X126134255Y-71886884D01*
X126127500Y-71949066D01*
X126127500Y-72638606D01*
X126107498Y-72706727D01*
X126053842Y-72753220D01*
X125983568Y-72763324D01*
X125918988Y-72733830D01*
X125912405Y-72727701D01*
X124701164Y-71516459D01*
X123352405Y-70167700D01*
X123318379Y-70105388D01*
X123315500Y-70078605D01*
X123315500Y-61966474D01*
X124420872Y-61966474D01*
X124431205Y-62229462D01*
X124432005Y-62233842D01*
X124473793Y-62462650D01*
X124478490Y-62488371D01*
X124561784Y-62738034D01*
X124597511Y-62809534D01*
X124653958Y-62922502D01*
X124679425Y-62973470D01*
X124681954Y-62977129D01*
X124826289Y-63185965D01*
X124829065Y-63189982D01*
X124940205Y-63310212D01*
X125002004Y-63377065D01*
X125007720Y-63383249D01*
X125211823Y-63549415D01*
X125215631Y-63551708D01*
X125215633Y-63551709D01*
X125433488Y-63682868D01*
X125433492Y-63682870D01*
X125437304Y-63685165D01*
X125530829Y-63724768D01*
X125675559Y-63786054D01*
X125675564Y-63786056D01*
X125679662Y-63787791D01*
X125683960Y-63788930D01*
X125683964Y-63788932D01*
X125804314Y-63820842D01*
X125934062Y-63855244D01*
X126137227Y-63879290D01*
X126202523Y-63907161D01*
X126242387Y-63965909D01*
X126244161Y-64036883D01*
X126223244Y-64079980D01*
X126185385Y-64130495D01*
X126134255Y-64266884D01*
X126127500Y-64329066D01*
X126127500Y-66125334D01*
X126134255Y-66187516D01*
X126185385Y-66323905D01*
X126255543Y-66417516D01*
X126258630Y-66421635D01*
X126283478Y-66488141D01*
X126268425Y-66557524D01*
X126258632Y-66572762D01*
X126185385Y-66670495D01*
X126134255Y-66806884D01*
X126127500Y-66869066D01*
X126127500Y-68665334D01*
X126134255Y-68727516D01*
X126185385Y-68863905D01*
X126230684Y-68924347D01*
X126258942Y-68962052D01*
X126283790Y-69028558D01*
X126268737Y-69097941D01*
X126258942Y-69113182D01*
X126191214Y-69203551D01*
X126182676Y-69219146D01*
X126137522Y-69339594D01*
X126133895Y-69354849D01*
X126128369Y-69405714D01*
X126128000Y-69412528D01*
X126128000Y-70035085D01*
X126132475Y-70050324D01*
X126133865Y-70051529D01*
X126141548Y-70053200D01*
X130625884Y-70053200D01*
X130641123Y-70048725D01*
X130642328Y-70047335D01*
X130643999Y-70039652D01*
X130643999Y-69412531D01*
X130643629Y-69405710D01*
X130638105Y-69354848D01*
X130634479Y-69339596D01*
X130589324Y-69219146D01*
X130580786Y-69203551D01*
X130513058Y-69113182D01*
X130488210Y-69046675D01*
X130503263Y-68977293D01*
X130513058Y-68962052D01*
X130541316Y-68924347D01*
X130586615Y-68863905D01*
X130637745Y-68727516D01*
X130644500Y-68665334D01*
X130644500Y-67865056D01*
X130645578Y-67848609D01*
X130645614Y-67848334D01*
X130647529Y-67833790D01*
X130647714Y-67826205D01*
X130649074Y-67770565D01*
X130649074Y-67770561D01*
X130649156Y-67767200D01*
X130646418Y-67733895D01*
X145703251Y-67733895D01*
X145703548Y-67739048D01*
X145703548Y-67739051D01*
X145707291Y-67803963D01*
X145707500Y-67811216D01*
X145707500Y-68665334D01*
X145714255Y-68727516D01*
X145765385Y-68863905D01*
X145810684Y-68924347D01*
X145838942Y-68962052D01*
X145863790Y-69028558D01*
X145848737Y-69097941D01*
X145838942Y-69113182D01*
X145771214Y-69203551D01*
X145762676Y-69219146D01*
X145717522Y-69339594D01*
X145713895Y-69354849D01*
X145708369Y-69405714D01*
X145708000Y-69412528D01*
X145708000Y-70035085D01*
X145712475Y-70050324D01*
X145713865Y-70051529D01*
X145721548Y-70053200D01*
X150205884Y-70053200D01*
X150221123Y-70048725D01*
X150222328Y-70047335D01*
X150223999Y-70039652D01*
X150223999Y-69412531D01*
X150223629Y-69405710D01*
X150218105Y-69354848D01*
X150214479Y-69339596D01*
X150169324Y-69219146D01*
X150160786Y-69203551D01*
X150093058Y-69113182D01*
X150068210Y-69046675D01*
X150083263Y-68977293D01*
X150093058Y-68962052D01*
X150121316Y-68924347D01*
X150166615Y-68863905D01*
X150217745Y-68727516D01*
X150224500Y-68665334D01*
X150224500Y-66869066D01*
X150217745Y-66806884D01*
X150166615Y-66670495D01*
X150093370Y-66572764D01*
X150068522Y-66506259D01*
X150083575Y-66436876D01*
X150093370Y-66421635D01*
X150096457Y-66417516D01*
X150166615Y-66323905D01*
X150217745Y-66187516D01*
X150224500Y-66125334D01*
X150224500Y-64329066D01*
X150217745Y-64266884D01*
X150166615Y-64130495D01*
X150079261Y-64013939D01*
X149962705Y-63926585D01*
X149826316Y-63875455D01*
X149764134Y-63868700D01*
X147080985Y-63868700D01*
X147079446Y-63868691D01*
X146976081Y-63867428D01*
X146976079Y-63867428D01*
X146970911Y-63867365D01*
X146965797Y-63868148D01*
X146962289Y-63868393D01*
X146953496Y-63868700D01*
X146167866Y-63868700D01*
X146105684Y-63875455D01*
X145969295Y-63926585D01*
X145852739Y-64013939D01*
X145765385Y-64130495D01*
X145714255Y-64266884D01*
X145707500Y-64329066D01*
X145707500Y-65147419D01*
X145706787Y-65160807D01*
X145703251Y-65193895D01*
X145703548Y-65199048D01*
X145703548Y-65199051D01*
X145707291Y-65263963D01*
X145707500Y-65271216D01*
X145707500Y-66125334D01*
X145714255Y-66187516D01*
X145765385Y-66323905D01*
X145835543Y-66417516D01*
X145838630Y-66421635D01*
X145863478Y-66488141D01*
X145848425Y-66557524D01*
X145838632Y-66572762D01*
X145765385Y-66670495D01*
X145714255Y-66806884D01*
X145707500Y-66869066D01*
X145707500Y-67687419D01*
X145706787Y-67700807D01*
X145703251Y-67733895D01*
X130646418Y-67733895D01*
X130644924Y-67715724D01*
X130644500Y-67705400D01*
X130644500Y-66869066D01*
X130637745Y-66806884D01*
X130586615Y-66670495D01*
X130513370Y-66572764D01*
X130488522Y-66506259D01*
X130503575Y-66436876D01*
X130513370Y-66421635D01*
X130516457Y-66417516D01*
X130586615Y-66323905D01*
X130637745Y-66187516D01*
X130644500Y-66125334D01*
X130644500Y-65325056D01*
X130645578Y-65308609D01*
X130647092Y-65297108D01*
X130647529Y-65293790D01*
X130647714Y-65286205D01*
X130649074Y-65230565D01*
X130649074Y-65230561D01*
X130649156Y-65227200D01*
X130644924Y-65175724D01*
X130644500Y-65165400D01*
X130644500Y-64329066D01*
X130637745Y-64266884D01*
X130586615Y-64130495D01*
X130499261Y-64013939D01*
X130382705Y-63926585D01*
X130246316Y-63875455D01*
X130184134Y-63868700D01*
X129300985Y-63868700D01*
X129299446Y-63868691D01*
X129196081Y-63867428D01*
X129196079Y-63867428D01*
X129190911Y-63867365D01*
X129185797Y-63868148D01*
X129182289Y-63868393D01*
X129173496Y-63868700D01*
X127284655Y-63868700D01*
X127216534Y-63848698D01*
X127170041Y-63795042D01*
X127159937Y-63724768D01*
X127189431Y-63660188D01*
X127214653Y-63637935D01*
X127421489Y-63499732D01*
X127421493Y-63499729D01*
X127425197Y-63497254D01*
X127428514Y-63494283D01*
X127428518Y-63494280D01*
X127617929Y-63324629D01*
X127617930Y-63324628D01*
X127621247Y-63321657D01*
X127790598Y-63120189D01*
X127814846Y-63081310D01*
X127886934Y-62965721D01*
X127929874Y-62896869D01*
X127932913Y-62889996D01*
X128034495Y-62660219D01*
X128036293Y-62656152D01*
X128107734Y-62402843D01*
X128121054Y-62303675D01*
X128142343Y-62145176D01*
X128142344Y-62145168D01*
X128142770Y-62141994D01*
X128145127Y-62067008D01*
X128146346Y-62028222D01*
X128146346Y-62028217D01*
X128146447Y-62025000D01*
X128127859Y-61762466D01*
X128116367Y-61709085D01*
X128073401Y-61509523D01*
X128072464Y-61505171D01*
X128053418Y-61453543D01*
X127982910Y-61262424D01*
X127981369Y-61258247D01*
X127963162Y-61224503D01*
X130909143Y-61224503D01*
X130909702Y-61228747D01*
X130909702Y-61228751D01*
X130914135Y-61262424D01*
X130946668Y-61509534D01*
X131022529Y-61786836D01*
X131024213Y-61790784D01*
X131125490Y-62028222D01*
X131135323Y-62051276D01*
X131147093Y-62070942D01*
X131244587Y-62233842D01*
X131282961Y-62297961D01*
X131462713Y-62522328D01*
X131500427Y-62558117D01*
X131658369Y-62707998D01*
X131671251Y-62720223D01*
X131904717Y-62887986D01*
X131908512Y-62889995D01*
X131908513Y-62889996D01*
X131928622Y-62900643D01*
X132158792Y-63022512D01*
X132218033Y-63044191D01*
X132409134Y-63114124D01*
X132428773Y-63121311D01*
X132709664Y-63182555D01*
X132738241Y-63184804D01*
X132932682Y-63200107D01*
X132932691Y-63200107D01*
X132935139Y-63200300D01*
X133090671Y-63200300D01*
X133092807Y-63200154D01*
X133092818Y-63200154D01*
X133300948Y-63185965D01*
X133300954Y-63185964D01*
X133305225Y-63185673D01*
X133309420Y-63184804D01*
X133309422Y-63184804D01*
X133445983Y-63156524D01*
X133586742Y-63127374D01*
X133857743Y-63031407D01*
X133861547Y-63029443D01*
X133861553Y-63029441D01*
X134093710Y-62909616D01*
X134163418Y-62896147D01*
X134229341Y-62922502D01*
X134270551Y-62980315D01*
X134277500Y-63021582D01*
X134277500Y-65377419D01*
X134276787Y-65390807D01*
X134273251Y-65423895D01*
X134273548Y-65429048D01*
X134273548Y-65429051D01*
X134277291Y-65493963D01*
X134277500Y-65501216D01*
X134277500Y-66355334D01*
X134284255Y-66417516D01*
X134335385Y-66553905D01*
X134422739Y-66670461D01*
X134539295Y-66757815D01*
X134675684Y-66808945D01*
X134737866Y-66815700D01*
X135606826Y-66815700D01*
X135611443Y-66815785D01*
X135692673Y-66818764D01*
X135692677Y-66818764D01*
X135697837Y-66818953D01*
X135702957Y-66818297D01*
X135702959Y-66818297D01*
X135715261Y-66816721D01*
X135731271Y-66815700D01*
X136534134Y-66815700D01*
X136596316Y-66808945D01*
X136732705Y-66757815D01*
X136830851Y-66684258D01*
X136897358Y-66659410D01*
X136966741Y-66674463D01*
X136981982Y-66684258D01*
X137072351Y-66751986D01*
X137087946Y-66760524D01*
X137208394Y-66805678D01*
X137223649Y-66809305D01*
X137274514Y-66814831D01*
X137281328Y-66815200D01*
X137903885Y-66815200D01*
X137919124Y-66810725D01*
X137920329Y-66809335D01*
X137922000Y-66801652D01*
X137922000Y-66797084D01*
X138430000Y-66797084D01*
X138434475Y-66812323D01*
X138435865Y-66813528D01*
X138443548Y-66815199D01*
X139070669Y-66815199D01*
X139077490Y-66814829D01*
X139128352Y-66809305D01*
X139143604Y-66805679D01*
X139264054Y-66760524D01*
X139279649Y-66751986D01*
X139370018Y-66684258D01*
X139436525Y-66659410D01*
X139505907Y-66674463D01*
X139521148Y-66684258D01*
X139619295Y-66757815D01*
X139755684Y-66808945D01*
X139817866Y-66815700D01*
X140686826Y-66815700D01*
X140691443Y-66815785D01*
X140772673Y-66818764D01*
X140772677Y-66818764D01*
X140777837Y-66818953D01*
X140782957Y-66818297D01*
X140782959Y-66818297D01*
X140795261Y-66816721D01*
X140811271Y-66815700D01*
X141614134Y-66815700D01*
X141676316Y-66808945D01*
X141812705Y-66757815D01*
X141929261Y-66670461D01*
X142016615Y-66553905D01*
X142067745Y-66417516D01*
X142074500Y-66355334D01*
X142074500Y-65555056D01*
X142075578Y-65538609D01*
X142077092Y-65527108D01*
X142077529Y-65523790D01*
X142079156Y-65457200D01*
X142078786Y-65452692D01*
X142074924Y-65405724D01*
X142074500Y-65395400D01*
X142074500Y-62759066D01*
X142067745Y-62696884D01*
X142016615Y-62560495D01*
X141929261Y-62443939D01*
X141812705Y-62356585D01*
X141676316Y-62305455D01*
X141614134Y-62298700D01*
X139817866Y-62298700D01*
X139755684Y-62305455D01*
X139619295Y-62356585D01*
X139581604Y-62384833D01*
X139521148Y-62430142D01*
X139454642Y-62454990D01*
X139385259Y-62439937D01*
X139370018Y-62430142D01*
X139279649Y-62362414D01*
X139264054Y-62353876D01*
X139143606Y-62308722D01*
X139128351Y-62305095D01*
X139077486Y-62299569D01*
X139070672Y-62299200D01*
X138448115Y-62299200D01*
X138432876Y-62303675D01*
X138431671Y-62305065D01*
X138430000Y-62312748D01*
X138430000Y-66797084D01*
X137922000Y-66797084D01*
X137922000Y-62317316D01*
X137917525Y-62302077D01*
X137916135Y-62300872D01*
X137908452Y-62299201D01*
X137281331Y-62299201D01*
X137274510Y-62299571D01*
X137223648Y-62305095D01*
X137208396Y-62308721D01*
X137087946Y-62353876D01*
X137072351Y-62362414D01*
X136981982Y-62430142D01*
X136915475Y-62454990D01*
X136846093Y-62439937D01*
X136830852Y-62430142D01*
X136770396Y-62384833D01*
X136732705Y-62356585D01*
X136596316Y-62305455D01*
X136534134Y-62298700D01*
X134976746Y-62298700D01*
X134908625Y-62278698D01*
X134862132Y-62225042D01*
X134852028Y-62154768D01*
X134869314Y-62106864D01*
X134889084Y-62074603D01*
X134889087Y-62074598D01*
X134891327Y-62070942D01*
X135006883Y-61807698D01*
X135085644Y-61531206D01*
X135115915Y-61318504D01*
X135125546Y-61250836D01*
X135125546Y-61250834D01*
X135126151Y-61246584D01*
X135126245Y-61228751D01*
X135127635Y-60963383D01*
X135127635Y-60963376D01*
X135127657Y-60959097D01*
X135126681Y-60951679D01*
X135108257Y-60811736D01*
X135090132Y-60674066D01*
X135014271Y-60396764D01*
X134968124Y-60288574D01*
X134903163Y-60136276D01*
X134903161Y-60136272D01*
X134901477Y-60132324D01*
X134796929Y-59957637D01*
X134756043Y-59889321D01*
X134756040Y-59889317D01*
X134753839Y-59885639D01*
X134574087Y-59661272D01*
X134445567Y-59539311D01*
X134368658Y-59466327D01*
X134368655Y-59466325D01*
X134365549Y-59463377D01*
X134132083Y-59295614D01*
X134110243Y-59284050D01*
X134041850Y-59247838D01*
X133878008Y-59161088D01*
X133743017Y-59111688D01*
X133612058Y-59063764D01*
X133612056Y-59063763D01*
X133608027Y-59062289D01*
X133327136Y-59001045D01*
X133296085Y-58998601D01*
X133104118Y-58983493D01*
X133104109Y-58983493D01*
X133101661Y-58983300D01*
X132946129Y-58983300D01*
X132943993Y-58983446D01*
X132943982Y-58983446D01*
X132735852Y-58997635D01*
X132735846Y-58997636D01*
X132731575Y-58997927D01*
X132727380Y-58998796D01*
X132727378Y-58998796D01*
X132590816Y-59027077D01*
X132450058Y-59056226D01*
X132179057Y-59152193D01*
X132164681Y-59159613D01*
X131980521Y-59254665D01*
X131923588Y-59284050D01*
X131920087Y-59286511D01*
X131920083Y-59286513D01*
X131805983Y-59366704D01*
X131688377Y-59449359D01*
X131673292Y-59463377D01*
X131488870Y-59634753D01*
X131477778Y-59645060D01*
X131295687Y-59867532D01*
X131145473Y-60112658D01*
X131143747Y-60116591D01*
X131143746Y-60116592D01*
X131136840Y-60132324D01*
X131029917Y-60375902D01*
X130951156Y-60652394D01*
X130910649Y-60937016D01*
X130910627Y-60941305D01*
X130910626Y-60941312D01*
X130909222Y-61209408D01*
X130909143Y-61224503D01*
X127963162Y-61224503D01*
X127856391Y-61026622D01*
X127700024Y-60814918D01*
X127659072Y-60773317D01*
X127561367Y-60674066D01*
X127515387Y-60627358D01*
X127511847Y-60624657D01*
X127511841Y-60624651D01*
X127309706Y-60470386D01*
X127309702Y-60470383D01*
X127306165Y-60467684D01*
X127076532Y-60339084D01*
X126831070Y-60244122D01*
X126826745Y-60243119D01*
X126826740Y-60243118D01*
X126648148Y-60201723D01*
X126574676Y-60184693D01*
X126312467Y-60161983D01*
X126308032Y-60162227D01*
X126308028Y-60162227D01*
X126054116Y-60176200D01*
X126054109Y-60176201D01*
X126049673Y-60176445D01*
X125922602Y-60201721D01*
X125795911Y-60226921D01*
X125795906Y-60226922D01*
X125791539Y-60227791D01*
X125787336Y-60229267D01*
X125547423Y-60313518D01*
X125547420Y-60313519D01*
X125543215Y-60314996D01*
X125539262Y-60317049D01*
X125539256Y-60317052D01*
X125433536Y-60371970D01*
X125309656Y-60436321D01*
X125306041Y-60438904D01*
X125306035Y-60438908D01*
X125214473Y-60504340D01*
X125095522Y-60589344D01*
X125092295Y-60592422D01*
X125092293Y-60592424D01*
X125002249Y-60678322D01*
X124905085Y-60771011D01*
X124742145Y-60977700D01*
X124713729Y-61026622D01*
X124612187Y-61201438D01*
X124612184Y-61201444D01*
X124609953Y-61205285D01*
X124511147Y-61449225D01*
X124510076Y-61453538D01*
X124510074Y-61453543D01*
X124481022Y-61570501D01*
X124447698Y-61704654D01*
X124420872Y-61966474D01*
X123315500Y-61966474D01*
X123315500Y-46669594D01*
X123335502Y-46601473D01*
X123352405Y-46580499D01*
X124304499Y-45628405D01*
X124366811Y-45594379D01*
X124393594Y-45591500D01*
X131013268Y-45591500D01*
X131081389Y-45611502D01*
X131127882Y-45665158D01*
X131137986Y-45735432D01*
X131108492Y-45800012D01*
X131088925Y-45818258D01*
X131080055Y-45824917D01*
X131076483Y-45828655D01*
X130925799Y-45986337D01*
X130920039Y-45992364D01*
X130917125Y-45996636D01*
X130917124Y-45996637D01*
X130901552Y-46019465D01*
X130789519Y-46183699D01*
X130692002Y-46393781D01*
X130630107Y-46616969D01*
X130605495Y-46847269D01*
X130605792Y-46852422D01*
X130605792Y-46852425D01*
X130614914Y-47010633D01*
X130618827Y-47078497D01*
X130619964Y-47083543D01*
X130619965Y-47083549D01*
X130652141Y-47226323D01*
X130669746Y-47304442D01*
X130671688Y-47309224D01*
X130671689Y-47309228D01*
X130754940Y-47514250D01*
X130756884Y-47519037D01*
X130877901Y-47716519D01*
X131029547Y-47891584D01*
X131207749Y-48039530D01*
X131212216Y-48042140D01*
X131245865Y-48061803D01*
X131294589Y-48113441D01*
X131307660Y-48183224D01*
X131280929Y-48248996D01*
X131257948Y-48271351D01*
X131246521Y-48279931D01*
X131080055Y-48404917D01*
X130920039Y-48572364D01*
X130917125Y-48576636D01*
X130917124Y-48576637D01*
X130901552Y-48599465D01*
X130789519Y-48763699D01*
X130692002Y-48973781D01*
X130630107Y-49196969D01*
X130605495Y-49427269D01*
X130605792Y-49432422D01*
X130605792Y-49432425D01*
X130612395Y-49546940D01*
X130618827Y-49658497D01*
X130619964Y-49663543D01*
X130619965Y-49663549D01*
X130644484Y-49772347D01*
X130669746Y-49884442D01*
X130671688Y-49889224D01*
X130671689Y-49889228D01*
X130751179Y-50084988D01*
X130756884Y-50099037D01*
X130877901Y-50296519D01*
X131029547Y-50471584D01*
X131193956Y-50608079D01*
X131204862Y-50617133D01*
X131244497Y-50676035D01*
X131245995Y-50747016D01*
X131208881Y-50807539D01*
X131200030Y-50814837D01*
X131080055Y-50904917D01*
X130920039Y-51072364D01*
X130917125Y-51076636D01*
X130917124Y-51076637D01*
X130898589Y-51103809D01*
X130789519Y-51263699D01*
X130692002Y-51473781D01*
X130630107Y-51696969D01*
X130605495Y-51927269D01*
X130605792Y-51932422D01*
X130605792Y-51932425D01*
X130616003Y-52109523D01*
X130618827Y-52158497D01*
X130619964Y-52163543D01*
X130619965Y-52163549D01*
X130650791Y-52300331D01*
X130669746Y-52384442D01*
X130671688Y-52389224D01*
X130671689Y-52389228D01*
X130754940Y-52594250D01*
X130756884Y-52599037D01*
X130772794Y-52625000D01*
X130874164Y-52790420D01*
X130877901Y-52796519D01*
X131029547Y-52971584D01*
X131207749Y-53119530D01*
X131212214Y-53122139D01*
X131216379Y-53124573D01*
X131265100Y-53176214D01*
X131278167Y-53245998D01*
X131251433Y-53311768D01*
X131234723Y-53328021D01*
X131223908Y-53342511D01*
X131230651Y-53354840D01*
X132005589Y-54129779D01*
X132019532Y-54137392D01*
X132021366Y-54137261D01*
X132027980Y-54133010D01*
X132807394Y-53353595D01*
X132814411Y-53340744D01*
X132806637Y-53330075D01*
X132805055Y-53328825D01*
X132763992Y-53270909D01*
X132760759Y-53199986D01*
X132796383Y-53138574D01*
X132809978Y-53127363D01*
X132850852Y-53098208D01*
X132930643Y-53041294D01*
X133094703Y-52877805D01*
X133229858Y-52689717D01*
X133277041Y-52594250D01*
X133330184Y-52486722D01*
X133330185Y-52486720D01*
X133332478Y-52482080D01*
X133399808Y-52260471D01*
X133430040Y-52030841D01*
X133430122Y-52027491D01*
X133431645Y-51965165D01*
X133431645Y-51965161D01*
X133431727Y-51961800D01*
X133416670Y-51778653D01*
X133413173Y-51736118D01*
X133413172Y-51736112D01*
X133412749Y-51730967D01*
X133381176Y-51605269D01*
X133357584Y-51511344D01*
X133357583Y-51511340D01*
X133356325Y-51506333D01*
X133345863Y-51482271D01*
X133266030Y-51298668D01*
X133266028Y-51298665D01*
X133263970Y-51293931D01*
X133138164Y-51099465D01*
X133132957Y-51093742D01*
X133088534Y-51044922D01*
X132982287Y-50928158D01*
X132978236Y-50924959D01*
X132978232Y-50924955D01*
X132832090Y-50809540D01*
X132791027Y-50751623D01*
X132787795Y-50680700D01*
X132823420Y-50619289D01*
X132837013Y-50608079D01*
X132930643Y-50541294D01*
X133094703Y-50377805D01*
X133229858Y-50189717D01*
X133240839Y-50167500D01*
X133330184Y-49986722D01*
X133330185Y-49986720D01*
X133332478Y-49982080D01*
X133399808Y-49760471D01*
X133430040Y-49530841D01*
X133430122Y-49527491D01*
X133431645Y-49465165D01*
X133431645Y-49465161D01*
X133431727Y-49461800D01*
X133420136Y-49320814D01*
X133413173Y-49236118D01*
X133413172Y-49236112D01*
X133412749Y-49230967D01*
X133374664Y-49079342D01*
X133357584Y-49011344D01*
X133357583Y-49011340D01*
X133356325Y-49006333D01*
X133354266Y-49001597D01*
X133266030Y-48798668D01*
X133266028Y-48798665D01*
X133263970Y-48793931D01*
X133138164Y-48599465D01*
X132982287Y-48428158D01*
X132978236Y-48424959D01*
X132978232Y-48424955D01*
X132804577Y-48287811D01*
X132804572Y-48287808D01*
X132800523Y-48284610D01*
X132796007Y-48282117D01*
X132796004Y-48282115D01*
X132793525Y-48280747D01*
X132792716Y-48279931D01*
X132791687Y-48279247D01*
X132791828Y-48279035D01*
X132743553Y-48230316D01*
X132728778Y-48160873D01*
X132753893Y-48094467D01*
X132781246Y-48067857D01*
X132930643Y-47961294D01*
X133094703Y-47797805D01*
X133229858Y-47609717D01*
X133277041Y-47514250D01*
X133330184Y-47406722D01*
X133330185Y-47406720D01*
X133332478Y-47402080D01*
X133399808Y-47180471D01*
X133430040Y-46950841D01*
X133431338Y-46897721D01*
X133431645Y-46885165D01*
X133431645Y-46885161D01*
X133431727Y-46881800D01*
X133414287Y-46669672D01*
X133413173Y-46656118D01*
X133413172Y-46656112D01*
X133412749Y-46650967D01*
X133356325Y-46426333D01*
X133354266Y-46421597D01*
X133266030Y-46218668D01*
X133266028Y-46218665D01*
X133263970Y-46213931D01*
X133138164Y-46019465D01*
X133129878Y-46010358D01*
X133088534Y-45964922D01*
X132982287Y-45848158D01*
X132978232Y-45844955D01*
X132978226Y-45844950D01*
X132942052Y-45816382D01*
X132900988Y-45758466D01*
X132897756Y-45687543D01*
X132933381Y-45626131D01*
X132996552Y-45593728D01*
X133020143Y-45591500D01*
X150891606Y-45591500D01*
X150959727Y-45611502D01*
X150980701Y-45628405D01*
X156552972Y-51200677D01*
X156586998Y-51262989D01*
X156581933Y-51333804D01*
X156539386Y-51390640D01*
X156472866Y-51415451D01*
X156462343Y-51415763D01*
X156432795Y-51415402D01*
X156416530Y-51415203D01*
X156416528Y-51415203D01*
X156411361Y-51415140D01*
X156186478Y-51449552D01*
X155970235Y-51520231D01*
X155965647Y-51522619D01*
X155965643Y-51522621D01*
X155806878Y-51605269D01*
X155768439Y-51625279D01*
X155764306Y-51628382D01*
X155764303Y-51628384D01*
X155620815Y-51736118D01*
X155586510Y-51761875D01*
X155429333Y-51926351D01*
X155426421Y-51930620D01*
X155426415Y-51930628D01*
X155341955Y-52054441D01*
X155287044Y-52099444D01*
X155216519Y-52107615D01*
X155152772Y-52076361D01*
X155132075Y-52051877D01*
X155070898Y-51957311D01*
X155070896Y-51957308D01*
X155068090Y-51952971D01*
X154914979Y-51784704D01*
X154736441Y-51643704D01*
X154719149Y-51634158D01*
X154666816Y-51605269D01*
X154537272Y-51533757D01*
X154532403Y-51532033D01*
X154532399Y-51532031D01*
X154327696Y-51459541D01*
X154327692Y-51459540D01*
X154322821Y-51457815D01*
X154317728Y-51456908D01*
X154317725Y-51456907D01*
X154103934Y-51418825D01*
X154103928Y-51418824D01*
X154098845Y-51417919D01*
X154025396Y-51417022D01*
X153876531Y-51415203D01*
X153876529Y-51415203D01*
X153871361Y-51415140D01*
X153646478Y-51449552D01*
X153430235Y-51520231D01*
X153425647Y-51522619D01*
X153425643Y-51522621D01*
X153266878Y-51605269D01*
X153228439Y-51625279D01*
X153224306Y-51628382D01*
X153224303Y-51628384D01*
X153080815Y-51736118D01*
X153046510Y-51761875D01*
X152889333Y-51926351D01*
X152862856Y-51965165D01*
X152771258Y-52099444D01*
X152761131Y-52114289D01*
X152758958Y-52118971D01*
X152758956Y-52118974D01*
X152672767Y-52304654D01*
X152665345Y-52320643D01*
X152604548Y-52539869D01*
X152603999Y-52545006D01*
X152583290Y-52738783D01*
X152580372Y-52766082D01*
X152580669Y-52771234D01*
X152580669Y-52771238D01*
X152586043Y-52864438D01*
X152593468Y-52993206D01*
X152594605Y-52998252D01*
X152594606Y-52998258D01*
X152613927Y-53083991D01*
X152643483Y-53215141D01*
X152729075Y-53425927D01*
X152847944Y-53619904D01*
X152996898Y-53791861D01*
X153171937Y-53937181D01*
X153176389Y-53939783D01*
X153176394Y-53939786D01*
X153270399Y-53994718D01*
X153368360Y-54051962D01*
X153580893Y-54133120D01*
X153585959Y-54134151D01*
X153585960Y-54134151D01*
X153647160Y-54146602D01*
X153803827Y-54178476D01*
X153931637Y-54183163D01*
X154026011Y-54186624D01*
X154026015Y-54186624D01*
X154031175Y-54186813D01*
X154036295Y-54186157D01*
X154036297Y-54186157D01*
X154251704Y-54158563D01*
X154251705Y-54158563D01*
X154256832Y-54157906D01*
X154261782Y-54156421D01*
X154469791Y-54094015D01*
X154469792Y-54094014D01*
X154474737Y-54092531D01*
X154679039Y-53992444D01*
X154683243Y-53989446D01*
X154683247Y-53989443D01*
X154860047Y-53863333D01*
X154860049Y-53863331D01*
X154864251Y-53860334D01*
X155025399Y-53699747D01*
X155136815Y-53544696D01*
X155192809Y-53501048D01*
X155263513Y-53494602D01*
X155326477Y-53527405D01*
X155346570Y-53552388D01*
X155385242Y-53615496D01*
X155385246Y-53615501D01*
X155387944Y-53619904D01*
X155536898Y-53791861D01*
X155711937Y-53937181D01*
X155716389Y-53939783D01*
X155716394Y-53939786D01*
X155810399Y-53994718D01*
X155908360Y-54051962D01*
X156120893Y-54133120D01*
X156125959Y-54134151D01*
X156125960Y-54134151D01*
X156187160Y-54146602D01*
X156343827Y-54178476D01*
X156471637Y-54183163D01*
X156566011Y-54186624D01*
X156566015Y-54186624D01*
X156571175Y-54186813D01*
X156576295Y-54186157D01*
X156576297Y-54186157D01*
X156791704Y-54158563D01*
X156791705Y-54158563D01*
X156796832Y-54157906D01*
X156801782Y-54156421D01*
X157009791Y-54094015D01*
X157009792Y-54094014D01*
X157014737Y-54092531D01*
X157219039Y-53992444D01*
X157223243Y-53989446D01*
X157223247Y-53989443D01*
X157400047Y-53863333D01*
X157400049Y-53863331D01*
X157404251Y-53860334D01*
X157565399Y-53699747D01*
X157676815Y-53544696D01*
X157732809Y-53501048D01*
X157803513Y-53494602D01*
X157866477Y-53527405D01*
X157886570Y-53552388D01*
X157925242Y-53615496D01*
X157925246Y-53615501D01*
X157927944Y-53619904D01*
X158076898Y-53791861D01*
X158251937Y-53937181D01*
X158256389Y-53939783D01*
X158256394Y-53939786D01*
X158350399Y-53994718D01*
X158448360Y-54051962D01*
X158660893Y-54133120D01*
X158665959Y-54134151D01*
X158665960Y-54134151D01*
X158727160Y-54146602D01*
X158883827Y-54178476D01*
X159011637Y-54183163D01*
X159106011Y-54186624D01*
X159106015Y-54186624D01*
X159111175Y-54186813D01*
X159116295Y-54186157D01*
X159116297Y-54186157D01*
X159331704Y-54158563D01*
X159331705Y-54158563D01*
X159336832Y-54157906D01*
X159341782Y-54156421D01*
X159549791Y-54094015D01*
X159549792Y-54094014D01*
X159554737Y-54092531D01*
X159759039Y-53992444D01*
X159763243Y-53989446D01*
X159763247Y-53989443D01*
X159940047Y-53863333D01*
X159940049Y-53863331D01*
X159944251Y-53860334D01*
X160105399Y-53699747D01*
X160216815Y-53544696D01*
X160272809Y-53501048D01*
X160343513Y-53494602D01*
X160406477Y-53527405D01*
X160426570Y-53552388D01*
X160465242Y-53615496D01*
X160465246Y-53615501D01*
X160467944Y-53619904D01*
X160616898Y-53791861D01*
X160791937Y-53937181D01*
X160796389Y-53939783D01*
X160796394Y-53939786D01*
X160890399Y-53994718D01*
X160988360Y-54051962D01*
X161200893Y-54133120D01*
X161205959Y-54134151D01*
X161205960Y-54134151D01*
X161267160Y-54146602D01*
X161423827Y-54178476D01*
X161551637Y-54183163D01*
X161646011Y-54186624D01*
X161646015Y-54186624D01*
X161651175Y-54186813D01*
X161656295Y-54186157D01*
X161656297Y-54186157D01*
X161871704Y-54158563D01*
X161871705Y-54158563D01*
X161876832Y-54157906D01*
X161881782Y-54156421D01*
X162089791Y-54094015D01*
X162089792Y-54094014D01*
X162094737Y-54092531D01*
X162299039Y-53992444D01*
X162303243Y-53989446D01*
X162303247Y-53989443D01*
X162480047Y-53863333D01*
X162480049Y-53863331D01*
X162484251Y-53860334D01*
X162645399Y-53699747D01*
X162756815Y-53544696D01*
X162812809Y-53501048D01*
X162883513Y-53494602D01*
X162946477Y-53527405D01*
X162966570Y-53552388D01*
X163005242Y-53615496D01*
X163005246Y-53615501D01*
X163007944Y-53619904D01*
X163156898Y-53791861D01*
X163331937Y-53937181D01*
X163336389Y-53939783D01*
X163336394Y-53939786D01*
X163430399Y-53994718D01*
X163528360Y-54051962D01*
X163740893Y-54133120D01*
X163745959Y-54134151D01*
X163745960Y-54134151D01*
X163807160Y-54146602D01*
X163963827Y-54178476D01*
X164091637Y-54183163D01*
X164186011Y-54186624D01*
X164186015Y-54186624D01*
X164191175Y-54186813D01*
X164196295Y-54186157D01*
X164196297Y-54186157D01*
X164411704Y-54158563D01*
X164411705Y-54158563D01*
X164416832Y-54157906D01*
X164421782Y-54156421D01*
X164629791Y-54094015D01*
X164629792Y-54094014D01*
X164634737Y-54092531D01*
X164839039Y-53992444D01*
X164843243Y-53989446D01*
X164843247Y-53989443D01*
X164908176Y-53943130D01*
X165889900Y-53943130D01*
X165895181Y-53950184D01*
X166064119Y-54048904D01*
X166073402Y-54053351D01*
X166276202Y-54130793D01*
X166286100Y-54133669D01*
X166498825Y-54176948D01*
X166509053Y-54178167D01*
X166725988Y-54186122D01*
X166736274Y-54185655D01*
X166951600Y-54158072D01*
X166961677Y-54155930D01*
X167169601Y-54093549D01*
X167179199Y-54089788D01*
X167374147Y-53994284D01*
X167382985Y-53989015D01*
X167435372Y-53951648D01*
X167443772Y-53940948D01*
X167436785Y-53927795D01*
X166681012Y-53172022D01*
X166667068Y-53164408D01*
X166665235Y-53164539D01*
X166658620Y-53168790D01*
X165896660Y-53930750D01*
X165889900Y-53943130D01*
X164908176Y-53943130D01*
X165020047Y-53863333D01*
X165020049Y-53863331D01*
X165024251Y-53860334D01*
X165185399Y-53699747D01*
X165297131Y-53544256D01*
X165353125Y-53500608D01*
X165423829Y-53494162D01*
X165486793Y-53526965D01*
X165506885Y-53551946D01*
X165516478Y-53567599D01*
X165526935Y-53577061D01*
X165535713Y-53573277D01*
X166296178Y-52812812D01*
X166302556Y-52801132D01*
X167032608Y-52801132D01*
X167032739Y-52802965D01*
X167036990Y-52809580D01*
X167796588Y-53569178D01*
X167808598Y-53575736D01*
X167820338Y-53566768D01*
X167854707Y-53518940D01*
X167860016Y-53510103D01*
X167956194Y-53315503D01*
X167959992Y-53305910D01*
X168023097Y-53098208D01*
X168025274Y-53088138D01*
X168053846Y-52871113D01*
X168054365Y-52864438D01*
X168055858Y-52803364D01*
X168055664Y-52796646D01*
X168037730Y-52578507D01*
X168036045Y-52568327D01*
X167983162Y-52357791D01*
X167979842Y-52348040D01*
X167893280Y-52148959D01*
X167888413Y-52139884D01*
X167819344Y-52033118D01*
X167808658Y-52023915D01*
X167799091Y-52028319D01*
X167040222Y-52787188D01*
X167032608Y-52801132D01*
X166302556Y-52801132D01*
X166303792Y-52798868D01*
X166303661Y-52797035D01*
X166299410Y-52790420D01*
X165540058Y-52031068D01*
X165528522Y-52024768D01*
X165516239Y-52034391D01*
X165502250Y-52054898D01*
X165447338Y-52099901D01*
X165376813Y-52108071D01*
X165313066Y-52076816D01*
X165292370Y-52052333D01*
X165230898Y-51957311D01*
X165230896Y-51957308D01*
X165228090Y-51952971D01*
X165074979Y-51784704D01*
X165070924Y-51781501D01*
X165067869Y-51778653D01*
X165031688Y-51717568D01*
X165034276Y-51646618D01*
X165074811Y-51588331D01*
X165140424Y-51561212D01*
X165153798Y-51560500D01*
X165763225Y-51560500D01*
X165831346Y-51580502D01*
X165873768Y-51626034D01*
X165898308Y-51670898D01*
X166655388Y-52427978D01*
X166669332Y-52435592D01*
X166671165Y-52435461D01*
X166677780Y-52431210D01*
X167439393Y-51669597D01*
X167463138Y-51626113D01*
X167513341Y-51575911D01*
X167573724Y-51560500D01*
X171655700Y-51560500D01*
X171723821Y-51580502D01*
X171770314Y-51634158D01*
X171781700Y-51686500D01*
X171781700Y-53217065D01*
X171761698Y-53285186D01*
X171708042Y-53331679D01*
X171637768Y-53341783D01*
X171573188Y-53312289D01*
X171562506Y-53301864D01*
X171547331Y-53285186D01*
X171448487Y-53176558D01*
X171444436Y-53173359D01*
X171444432Y-53173355D01*
X171270777Y-53036211D01*
X171270772Y-53036208D01*
X171266723Y-53033010D01*
X171262207Y-53030517D01*
X171262204Y-53030515D01*
X171068479Y-52923573D01*
X171068475Y-52923571D01*
X171063955Y-52921076D01*
X171059086Y-52919352D01*
X171059082Y-52919350D01*
X170850503Y-52845488D01*
X170850499Y-52845487D01*
X170845628Y-52843762D01*
X170840535Y-52842855D01*
X170840532Y-52842854D01*
X170622695Y-52804051D01*
X170622689Y-52804050D01*
X170617606Y-52803145D01*
X170544696Y-52802254D01*
X170391181Y-52800379D01*
X170391179Y-52800379D01*
X170386011Y-52800316D01*
X170157064Y-52835350D01*
X169936914Y-52907306D01*
X169932326Y-52909694D01*
X169932322Y-52909696D01*
X169745157Y-53007128D01*
X169731472Y-53014252D01*
X169727339Y-53017355D01*
X169727336Y-53017357D01*
X169550390Y-53150212D01*
X169546255Y-53153317D01*
X169542683Y-53157055D01*
X169391267Y-53315503D01*
X169386239Y-53320764D01*
X169383325Y-53325036D01*
X169383324Y-53325037D01*
X169324245Y-53411644D01*
X169255719Y-53512099D01*
X169158202Y-53722181D01*
X169096307Y-53945369D01*
X169071695Y-54175669D01*
X169071992Y-54180822D01*
X169071992Y-54180825D01*
X169081585Y-54347203D01*
X169085027Y-54406897D01*
X169086164Y-54411943D01*
X169086165Y-54411949D01*
X169101520Y-54480083D01*
X169135946Y-54632842D01*
X169223084Y-54847437D01*
X169225783Y-54851841D01*
X169332837Y-55026537D01*
X169344101Y-55044919D01*
X169495747Y-55219984D01*
X169673949Y-55367930D01*
X169678419Y-55370542D01*
X169682111Y-55372700D01*
X169730832Y-55424340D01*
X169743901Y-55494124D01*
X169717166Y-55559894D01*
X169694189Y-55582245D01*
X169576963Y-55670261D01*
X169546255Y-55693317D01*
X169386239Y-55860764D01*
X169383325Y-55865036D01*
X169383324Y-55865037D01*
X169350618Y-55912982D01*
X169255719Y-56052099D01*
X169158202Y-56262181D01*
X169096307Y-56485369D01*
X169071695Y-56715669D01*
X169071992Y-56720822D01*
X169071992Y-56720825D01*
X169084729Y-56941729D01*
X169085027Y-56946897D01*
X169086164Y-56951943D01*
X169086165Y-56951949D01*
X169126223Y-57129698D01*
X169121687Y-57200550D01*
X169092401Y-57246494D01*
X166866747Y-59472148D01*
X166858461Y-59479688D01*
X166851982Y-59483800D01*
X166846557Y-59489577D01*
X166805357Y-59533451D01*
X166802602Y-59536293D01*
X166782865Y-59556030D01*
X166780385Y-59559227D01*
X166772682Y-59568247D01*
X166742414Y-59600479D01*
X166738595Y-59607425D01*
X166738593Y-59607428D01*
X166732652Y-59618234D01*
X166721801Y-59634753D01*
X166709386Y-59650759D01*
X166706241Y-59658028D01*
X166706238Y-59658032D01*
X166691826Y-59691337D01*
X166686609Y-59701987D01*
X166665305Y-59740740D01*
X166663334Y-59748415D01*
X166663334Y-59748416D01*
X166660267Y-59760362D01*
X166653863Y-59779066D01*
X166645819Y-59797655D01*
X166644580Y-59805478D01*
X166644577Y-59805488D01*
X166638901Y-59841324D01*
X166636495Y-59852944D01*
X166633602Y-59864214D01*
X166625500Y-59895769D01*
X166624423Y-59895492D01*
X166595971Y-59957637D01*
X166519960Y-60042056D01*
X166516659Y-60047774D01*
X166437028Y-60185699D01*
X166424473Y-60207444D01*
X166365458Y-60389072D01*
X166364768Y-60395633D01*
X166364768Y-60395635D01*
X166358480Y-60455461D01*
X166345496Y-60579000D01*
X166365458Y-60768928D01*
X166424473Y-60950556D01*
X166427776Y-60956278D01*
X166427777Y-60956279D01*
X166461686Y-61015010D01*
X166519960Y-61115944D01*
X166524378Y-61120851D01*
X166524379Y-61120852D01*
X166637589Y-61246584D01*
X166647747Y-61257866D01*
X166802248Y-61370118D01*
X166808276Y-61372802D01*
X166808278Y-61372803D01*
X166970659Y-61445099D01*
X166976712Y-61447794D01*
X167070112Y-61467647D01*
X167157056Y-61486128D01*
X167157061Y-61486128D01*
X167163513Y-61487500D01*
X167354487Y-61487500D01*
X167360939Y-61486128D01*
X167360944Y-61486128D01*
X167447888Y-61467647D01*
X167541288Y-61447794D01*
X167547341Y-61445099D01*
X167709722Y-61372803D01*
X167709724Y-61372802D01*
X167715752Y-61370118D01*
X167870253Y-61257866D01*
X167880411Y-61246584D01*
X167993621Y-61120852D01*
X167993622Y-61120851D01*
X167998040Y-61115944D01*
X168056314Y-61015010D01*
X168090223Y-60956279D01*
X168090224Y-60956278D01*
X168093527Y-60950556D01*
X168152542Y-60768928D01*
X168172504Y-60579000D01*
X168159520Y-60455461D01*
X168153232Y-60395635D01*
X168153232Y-60395633D01*
X168152542Y-60389072D01*
X168093527Y-60207444D01*
X168079547Y-60183229D01*
X168062808Y-60114235D01*
X168086027Y-60047143D01*
X168099570Y-60031134D01*
X168862264Y-59268440D01*
X168924576Y-59234414D01*
X168995391Y-59239479D01*
X169052227Y-59282026D01*
X169077150Y-59350282D01*
X169084537Y-59478393D01*
X169085027Y-59486897D01*
X169086164Y-59491943D01*
X169086165Y-59491949D01*
X169109469Y-59595354D01*
X169135946Y-59712842D01*
X169137888Y-59717624D01*
X169137889Y-59717628D01*
X169207794Y-59889782D01*
X169223084Y-59927437D01*
X169344101Y-60124919D01*
X169495747Y-60299984D01*
X169673949Y-60447930D01*
X169678419Y-60450542D01*
X169682111Y-60452700D01*
X169730832Y-60504340D01*
X169743901Y-60574124D01*
X169717166Y-60639894D01*
X169694189Y-60662245D01*
X169552101Y-60768928D01*
X169546255Y-60773317D01*
X169386239Y-60940764D01*
X169255719Y-61132099D01*
X169158202Y-61342181D01*
X169096307Y-61565369D01*
X169071695Y-61795669D01*
X169071992Y-61800822D01*
X169071992Y-61800825D01*
X169072615Y-61811630D01*
X169085027Y-62026897D01*
X169086164Y-62031943D01*
X169086165Y-62031949D01*
X169089630Y-62047324D01*
X169135946Y-62252842D01*
X169137888Y-62257624D01*
X169137889Y-62257628D01*
X169189542Y-62384833D01*
X169223084Y-62467437D01*
X169344101Y-62664919D01*
X169495747Y-62839984D01*
X169673949Y-62987930D01*
X169678419Y-62990542D01*
X169682111Y-62992700D01*
X169730832Y-63044340D01*
X169743901Y-63114124D01*
X169717166Y-63179894D01*
X169694189Y-63202245D01*
X169546255Y-63313317D01*
X169386239Y-63480764D01*
X169255719Y-63672099D01*
X169158202Y-63882181D01*
X169096307Y-64105369D01*
X169071695Y-64335669D01*
X169071992Y-64340822D01*
X169071992Y-64340825D01*
X169076404Y-64417341D01*
X169085027Y-64566897D01*
X169086164Y-64571943D01*
X169086165Y-64571949D01*
X169118341Y-64714723D01*
X169135946Y-64792842D01*
X169137888Y-64797624D01*
X169137889Y-64797628D01*
X169189542Y-64924833D01*
X169223084Y-65007437D01*
X169344101Y-65204919D01*
X169495747Y-65379984D01*
X169673949Y-65527930D01*
X169678419Y-65530542D01*
X169682111Y-65532700D01*
X169730832Y-65584340D01*
X169743901Y-65654124D01*
X169717166Y-65719894D01*
X169694189Y-65742245D01*
X169546255Y-65853317D01*
X169386239Y-66020764D01*
X169255719Y-66212099D01*
X169158202Y-66422181D01*
X169096307Y-66645369D01*
X169071695Y-66875669D01*
X169071992Y-66880822D01*
X169071992Y-66880825D01*
X169083584Y-67081876D01*
X169085027Y-67106897D01*
X169086164Y-67111943D01*
X169086165Y-67111949D01*
X169086259Y-67112365D01*
X169135946Y-67332842D01*
X169137888Y-67337624D01*
X169137889Y-67337628D01*
X169191986Y-67470852D01*
X169223084Y-67547437D01*
X169344101Y-67744919D01*
X169495747Y-67919984D01*
X169673949Y-68067930D01*
X169678414Y-68070539D01*
X169682579Y-68072973D01*
X169731300Y-68124614D01*
X169744367Y-68194398D01*
X169717633Y-68260168D01*
X169700923Y-68276421D01*
X169690108Y-68290911D01*
X169696851Y-68303240D01*
X170471789Y-69078179D01*
X170485732Y-69085792D01*
X170487566Y-69085661D01*
X170494180Y-69081410D01*
X171273594Y-68301995D01*
X171280611Y-68289144D01*
X171272837Y-68278475D01*
X171271255Y-68277225D01*
X171230192Y-68219309D01*
X171226959Y-68148386D01*
X171262583Y-68086974D01*
X171276178Y-68075763D01*
X171291793Y-68064625D01*
X171396843Y-67989694D01*
X171517449Y-67869508D01*
X171557242Y-67829854D01*
X171557246Y-67829849D01*
X171560903Y-67826205D01*
X171560974Y-67826106D01*
X171619128Y-67787998D01*
X171690122Y-67787367D01*
X171750187Y-67825218D01*
X171780253Y-67889534D01*
X171781700Y-67908574D01*
X171781700Y-68529588D01*
X171761698Y-68597709D01*
X171708042Y-68644202D01*
X171650761Y-68652526D01*
X171633573Y-68660438D01*
X170856621Y-69437389D01*
X170849008Y-69451332D01*
X170849139Y-69453166D01*
X170853390Y-69459780D01*
X171630907Y-70237296D01*
X171644844Y-70244906D01*
X171646710Y-70244773D01*
X171716085Y-70259864D01*
X171766287Y-70310066D01*
X171781700Y-70370452D01*
X171781700Y-70997065D01*
X171761698Y-71065186D01*
X171708042Y-71111679D01*
X171637768Y-71121783D01*
X171573188Y-71092289D01*
X171562506Y-71081864D01*
X171547331Y-71065186D01*
X171481795Y-70993163D01*
X171451965Y-70960380D01*
X171451963Y-70960378D01*
X171448487Y-70956558D01*
X171444436Y-70953359D01*
X171444432Y-70953355D01*
X171271269Y-70816600D01*
X171230206Y-70758683D01*
X171226974Y-70687760D01*
X171262599Y-70626348D01*
X171268087Y-70621823D01*
X171278097Y-70609074D01*
X171271110Y-70595921D01*
X170497411Y-69822221D01*
X170483468Y-69814608D01*
X170481634Y-69814739D01*
X170475020Y-69818990D01*
X169694780Y-70599231D01*
X169688023Y-70611606D01*
X169707330Y-70637397D01*
X169706640Y-70637913D01*
X169731227Y-70663937D01*
X169744343Y-70733711D01*
X169717655Y-70799500D01*
X169694623Y-70821919D01*
X169552663Y-70928506D01*
X169546255Y-70933317D01*
X169386239Y-71100764D01*
X169255719Y-71292099D01*
X169158202Y-71502181D01*
X169096307Y-71725369D01*
X169071695Y-71955669D01*
X169085027Y-72186897D01*
X169086164Y-72191943D01*
X169086165Y-72191949D01*
X169115529Y-72322247D01*
X169135946Y-72412842D01*
X169223084Y-72627437D01*
X169344101Y-72824919D01*
X169495747Y-72999984D01*
X169673949Y-73147930D01*
X169873922Y-73264784D01*
X170090294Y-73347409D01*
X170095360Y-73348440D01*
X170095361Y-73348440D01*
X170148446Y-73359240D01*
X170317256Y-73393585D01*
X170447924Y-73398376D01*
X170543549Y-73401883D01*
X170543553Y-73401883D01*
X170548713Y-73402072D01*
X170553833Y-73401416D01*
X170553835Y-73401416D01*
X170630296Y-73391621D01*
X170700406Y-73402806D01*
X170753340Y-73450119D01*
X170772291Y-73518539D01*
X170751243Y-73586344D01*
X170735407Y-73605689D01*
X170109392Y-74231703D01*
X170047082Y-74265727D01*
X170020299Y-74268606D01*
X169964407Y-74268606D01*
X169957955Y-74269978D01*
X169957950Y-74269978D01*
X169895235Y-74283309D01*
X169777606Y-74308312D01*
X169771576Y-74310997D01*
X169771575Y-74310997D01*
X169609172Y-74383303D01*
X169609170Y-74383304D01*
X169603142Y-74385988D01*
X169597801Y-74389868D01*
X169597800Y-74389869D01*
X169547737Y-74426242D01*
X169448641Y-74498240D01*
X169320854Y-74640162D01*
X169225367Y-74805550D01*
X169166352Y-74987178D01*
X169146390Y-75177106D01*
X169147080Y-75183671D01*
X169164432Y-75348762D01*
X169166352Y-75367034D01*
X169225367Y-75548662D01*
X169320854Y-75714050D01*
X169325272Y-75718957D01*
X169325273Y-75718958D01*
X169372012Y-75770867D01*
X169448641Y-75855972D01*
X169603142Y-75968224D01*
X169609172Y-75970909D01*
X169614895Y-75974213D01*
X169614048Y-75975680D01*
X169661720Y-76016209D01*
X169682362Y-76084139D01*
X169663002Y-76152445D01*
X169614158Y-76197290D01*
X169429788Y-76292450D01*
X169426287Y-76294911D01*
X169426283Y-76294913D01*
X169340909Y-76354915D01*
X169194577Y-76457759D01*
X169179492Y-76471777D01*
X168989884Y-76647972D01*
X168983978Y-76653460D01*
X168801887Y-76875932D01*
X168651673Y-77121058D01*
X168536117Y-77384302D01*
X168534942Y-77388429D01*
X168534941Y-77388430D01*
X168517769Y-77448712D01*
X168457356Y-77660794D01*
X168449908Y-77713129D01*
X168418963Y-77930565D01*
X168416849Y-77945416D01*
X168416827Y-77949705D01*
X168416826Y-77949712D01*
X168415365Y-78228617D01*
X168415343Y-78232903D01*
X168452868Y-78517934D01*
X168528729Y-78795236D01*
X168641523Y-79059676D01*
X168673147Y-79112515D01*
X168759933Y-79257524D01*
X168789161Y-79306361D01*
X168968913Y-79530728D01*
X169177451Y-79728623D01*
X169282580Y-79804166D01*
X169390047Y-79881389D01*
X169410917Y-79896386D01*
X169414712Y-79898395D01*
X169414713Y-79898396D01*
X169436469Y-79909915D01*
X169664992Y-80030912D01*
X169934973Y-80129711D01*
X170215864Y-80190955D01*
X170244441Y-80193204D01*
X170438882Y-80208507D01*
X170438891Y-80208507D01*
X170441339Y-80208700D01*
X170596871Y-80208700D01*
X170599007Y-80208554D01*
X170599018Y-80208554D01*
X170807148Y-80194365D01*
X170807154Y-80194364D01*
X170811425Y-80194073D01*
X170815620Y-80193204D01*
X170815622Y-80193204D01*
X170952184Y-80164923D01*
X171092942Y-80135774D01*
X171363943Y-80039807D01*
X171619412Y-79907950D01*
X171622913Y-79905489D01*
X171622917Y-79905487D01*
X171818542Y-79767999D01*
X171854623Y-79742641D01*
X171977023Y-79628900D01*
X172062079Y-79549861D01*
X172062081Y-79549858D01*
X172065222Y-79546940D01*
X172247313Y-79324468D01*
X172257467Y-79307899D01*
X172310114Y-79260267D01*
X172380156Y-79248660D01*
X172445354Y-79276763D01*
X172485008Y-79335653D01*
X172490900Y-79373733D01*
X172490900Y-114122700D01*
X172470898Y-114190821D01*
X172417242Y-114237314D01*
X172364900Y-114248700D01*
X164834700Y-114248700D01*
X164766579Y-114228698D01*
X164720086Y-114175042D01*
X164708700Y-114122700D01*
X164708700Y-112502594D01*
X164728702Y-112434473D01*
X164745605Y-112413499D01*
X165316849Y-111842255D01*
X168292858Y-111842255D01*
X168328104Y-112101238D01*
X168329412Y-112105724D01*
X168329412Y-112105726D01*
X168342911Y-112152038D01*
X168401243Y-112352167D01*
X168510668Y-112589528D01*
X168513231Y-112593437D01*
X168651410Y-112804196D01*
X168651414Y-112804201D01*
X168653976Y-112808109D01*
X168828018Y-113003106D01*
X169028970Y-113170237D01*
X169032973Y-113172666D01*
X169248422Y-113303404D01*
X169248426Y-113303406D01*
X169252419Y-113305829D01*
X169493455Y-113406903D01*
X169746783Y-113471241D01*
X169751434Y-113471709D01*
X169751438Y-113471710D01*
X169905273Y-113487200D01*
X169963867Y-113493100D01*
X170119354Y-113493100D01*
X170121679Y-113492927D01*
X170121685Y-113492927D01*
X170309000Y-113479007D01*
X170309004Y-113479006D01*
X170313652Y-113478661D01*
X170318200Y-113477632D01*
X170318206Y-113477631D01*
X170504601Y-113435453D01*
X170568577Y-113420977D01*
X170604769Y-113406903D01*
X170807824Y-113327940D01*
X170807827Y-113327939D01*
X170812177Y-113326247D01*
X171039098Y-113196551D01*
X171244357Y-113034738D01*
X171423443Y-112844363D01*
X171564988Y-112640328D01*
X171569759Y-112633451D01*
X171569761Y-112633448D01*
X171572424Y-112629609D01*
X171590262Y-112593437D01*
X171685960Y-112399381D01*
X171685961Y-112399378D01*
X171688025Y-112395193D01*
X171726839Y-112273939D01*
X171766280Y-112150723D01*
X171767707Y-112146265D01*
X171809721Y-111888293D01*
X171812538Y-111673111D01*
X171813081Y-111631622D01*
X171813081Y-111631619D01*
X171813142Y-111626945D01*
X171777896Y-111367962D01*
X171769972Y-111340774D01*
X171743751Y-111250816D01*
X171704757Y-111117033D01*
X171699515Y-111105661D01*
X171655617Y-111010440D01*
X171595332Y-110879672D01*
X171521801Y-110767518D01*
X171454590Y-110665004D01*
X171454586Y-110664999D01*
X171452024Y-110661091D01*
X171277982Y-110466094D01*
X171077030Y-110298963D01*
X170981208Y-110240817D01*
X170857578Y-110165796D01*
X170857574Y-110165794D01*
X170853581Y-110163371D01*
X170612545Y-110062297D01*
X170359217Y-109997959D01*
X170354566Y-109997491D01*
X170354562Y-109997490D01*
X170145271Y-109976416D01*
X170142133Y-109976100D01*
X169986646Y-109976100D01*
X169984321Y-109976273D01*
X169984315Y-109976273D01*
X169797000Y-109990193D01*
X169796996Y-109990194D01*
X169792348Y-109990539D01*
X169787800Y-109991568D01*
X169787794Y-109991569D01*
X169630892Y-110027073D01*
X169537423Y-110048223D01*
X169533071Y-110049915D01*
X169533069Y-110049916D01*
X169298176Y-110141260D01*
X169298173Y-110141261D01*
X169293823Y-110142953D01*
X169066902Y-110272649D01*
X168861643Y-110434462D01*
X168682557Y-110624837D01*
X168533576Y-110839591D01*
X168531510Y-110843781D01*
X168531508Y-110843784D01*
X168422896Y-111064029D01*
X168417975Y-111074007D01*
X168416553Y-111078450D01*
X168416552Y-111078452D01*
X168360177Y-111254569D01*
X168338293Y-111322935D01*
X168296279Y-111580907D01*
X168292858Y-111842255D01*
X165316849Y-111842255D01*
X168360899Y-108798205D01*
X168423211Y-108764179D01*
X168449994Y-108761300D01*
X171403607Y-108761300D01*
X171427216Y-108763532D01*
X171427519Y-108763590D01*
X171427523Y-108763590D01*
X171435306Y-108765075D01*
X171491351Y-108761549D01*
X171499262Y-108761300D01*
X171515256Y-108761300D01*
X171531130Y-108759294D01*
X171538990Y-108758552D01*
X171566449Y-108756824D01*
X171587137Y-108755523D01*
X171587138Y-108755523D01*
X171595050Y-108755025D01*
X171602591Y-108752575D01*
X171602887Y-108752479D01*
X171626031Y-108747306D01*
X171626335Y-108747268D01*
X171626340Y-108747267D01*
X171634197Y-108746274D01*
X171641562Y-108743358D01*
X171641566Y-108743357D01*
X171686411Y-108725601D01*
X171693830Y-108722929D01*
X171747275Y-108705564D01*
X171753972Y-108701314D01*
X171754231Y-108701150D01*
X171775358Y-108690385D01*
X171775646Y-108690271D01*
X171775651Y-108690268D01*
X171783017Y-108687352D01*
X171789425Y-108682696D01*
X171789431Y-108682693D01*
X171828452Y-108654342D01*
X171834989Y-108649899D01*
X171882418Y-108619800D01*
X171888059Y-108613793D01*
X171905846Y-108598112D01*
X171906091Y-108597934D01*
X171906093Y-108597932D01*
X171912507Y-108593272D01*
X171929301Y-108572972D01*
X171948303Y-108550004D01*
X171953534Y-108544070D01*
X171986558Y-108508902D01*
X171986560Y-108508899D01*
X171991986Y-108503121D01*
X171995958Y-108495897D01*
X172009281Y-108476294D01*
X172009480Y-108476054D01*
X172009484Y-108476047D01*
X172014533Y-108469944D01*
X172038447Y-108419124D01*
X172042029Y-108412092D01*
X172069095Y-108362860D01*
X172071065Y-108355185D01*
X172071068Y-108355179D01*
X172071144Y-108354881D01*
X172079176Y-108332572D01*
X172079306Y-108332297D01*
X172079309Y-108332289D01*
X172082683Y-108325118D01*
X172093206Y-108269951D01*
X172094932Y-108262229D01*
X172106929Y-108215507D01*
X172106929Y-108215506D01*
X172108900Y-108207830D01*
X172108900Y-108199593D01*
X172111132Y-108175984D01*
X172111190Y-108175681D01*
X172111190Y-108175677D01*
X172112675Y-108167894D01*
X172109149Y-108111849D01*
X172108900Y-108103938D01*
X172108900Y-87310563D01*
X172109427Y-87299379D01*
X172111101Y-87291891D01*
X172108962Y-87223832D01*
X172108900Y-87219875D01*
X172108900Y-87191944D01*
X172108394Y-87187938D01*
X172107461Y-87176092D01*
X172106322Y-87139837D01*
X172106073Y-87131910D01*
X172100422Y-87112458D01*
X172096414Y-87093106D01*
X172094868Y-87080868D01*
X172094867Y-87080866D01*
X172093874Y-87073003D01*
X172077594Y-87031886D01*
X172073759Y-87020685D01*
X172061418Y-86978206D01*
X172057385Y-86971387D01*
X172057383Y-86971382D01*
X172051107Y-86960771D01*
X172042410Y-86943021D01*
X172034952Y-86924183D01*
X172008971Y-86888423D01*
X172002453Y-86878501D01*
X171983978Y-86847260D01*
X171983974Y-86847255D01*
X171979942Y-86840437D01*
X171965618Y-86826113D01*
X171952776Y-86811078D01*
X171940872Y-86794693D01*
X171906806Y-86766511D01*
X171898027Y-86758522D01*
X169786100Y-84646595D01*
X169752074Y-84584283D01*
X169757139Y-84513468D01*
X169799686Y-84456632D01*
X169866206Y-84431821D01*
X169875195Y-84431500D01*
X170754734Y-84431500D01*
X170816916Y-84424745D01*
X170953305Y-84373615D01*
X171069861Y-84286261D01*
X171157215Y-84169705D01*
X171208345Y-84033316D01*
X171215100Y-83971134D01*
X171215100Y-81874866D01*
X171208345Y-81812684D01*
X171157215Y-81676295D01*
X171069861Y-81559739D01*
X170953305Y-81472385D01*
X170816916Y-81421255D01*
X170754734Y-81414500D01*
X169256194Y-81414500D01*
X169188073Y-81394498D01*
X169167099Y-81377595D01*
X162950685Y-75161180D01*
X157210343Y-69420838D01*
X169072493Y-69420838D01*
X169085227Y-69641668D01*
X169086661Y-69651870D01*
X169135285Y-69867639D01*
X169138373Y-69877492D01*
X169221586Y-70082420D01*
X169226234Y-70091621D01*
X169314697Y-70235981D01*
X169325153Y-70245442D01*
X169333931Y-70241658D01*
X170112579Y-69463011D01*
X170120192Y-69449068D01*
X170120061Y-69447234D01*
X170115810Y-69440620D01*
X169338462Y-68663273D01*
X169326930Y-68656976D01*
X169314648Y-68666599D01*
X169259067Y-68748077D01*
X169253979Y-68757033D01*
X169160852Y-68957659D01*
X169157289Y-68967346D01*
X169098181Y-69180480D01*
X169096250Y-69190600D01*
X169072745Y-69410549D01*
X169072493Y-69420838D01*
X157210343Y-69420838D01*
X156713852Y-68924347D01*
X156706312Y-68916061D01*
X156702200Y-68909582D01*
X156652548Y-68862956D01*
X156649707Y-68860202D01*
X156629970Y-68840465D01*
X156626773Y-68837985D01*
X156617751Y-68830280D01*
X156591300Y-68805441D01*
X156585521Y-68800014D01*
X156578575Y-68796195D01*
X156578572Y-68796193D01*
X156567766Y-68790252D01*
X156551247Y-68779401D01*
X156550783Y-68779041D01*
X156535241Y-68766986D01*
X156527972Y-68763841D01*
X156527968Y-68763838D01*
X156494663Y-68749426D01*
X156484013Y-68744209D01*
X156445260Y-68722905D01*
X156425637Y-68717867D01*
X156406934Y-68711463D01*
X156395620Y-68706567D01*
X156395619Y-68706567D01*
X156388345Y-68703419D01*
X156380522Y-68702180D01*
X156380512Y-68702177D01*
X156344676Y-68696501D01*
X156333056Y-68694095D01*
X156290231Y-68683100D01*
X156290979Y-68680185D01*
X156238852Y-68657458D01*
X156199444Y-68598402D01*
X156198220Y-68527416D01*
X156235567Y-68467037D01*
X156247259Y-68457737D01*
X156253033Y-68453679D01*
X156468223Y-68302441D01*
X156634006Y-68148386D01*
X156675679Y-68109661D01*
X156675681Y-68109658D01*
X156678822Y-68106740D01*
X156860913Y-67884268D01*
X157011127Y-67639142D01*
X157049450Y-67551841D01*
X157124957Y-67379830D01*
X157126683Y-67375898D01*
X157205444Y-67099406D01*
X157245951Y-66814784D01*
X157245978Y-66809798D01*
X157246068Y-66792703D01*
X163722343Y-66792703D01*
X163722902Y-66796947D01*
X163722902Y-66796951D01*
X163725774Y-66818764D01*
X163759868Y-67077734D01*
X163835729Y-67355036D01*
X163837413Y-67358984D01*
X163917796Y-67547437D01*
X163948523Y-67619476D01*
X164003040Y-67710567D01*
X164090557Y-67856797D01*
X164096161Y-67866161D01*
X164275913Y-68090528D01*
X164336883Y-68148386D01*
X164472651Y-68277225D01*
X164484451Y-68288423D01*
X164717917Y-68456186D01*
X164721712Y-68458195D01*
X164721713Y-68458196D01*
X164743469Y-68469715D01*
X164971992Y-68590712D01*
X164993006Y-68598402D01*
X165216489Y-68680185D01*
X165241973Y-68689511D01*
X165522864Y-68750755D01*
X165551441Y-68753004D01*
X165745882Y-68768307D01*
X165745891Y-68768307D01*
X165748339Y-68768500D01*
X165903871Y-68768500D01*
X165906007Y-68768354D01*
X165906018Y-68768354D01*
X166114148Y-68754165D01*
X166114154Y-68754164D01*
X166118425Y-68753873D01*
X166122620Y-68753004D01*
X166122622Y-68753004D01*
X166346858Y-68706567D01*
X166399942Y-68695574D01*
X166670943Y-68599607D01*
X166926412Y-68467750D01*
X166929913Y-68465289D01*
X166929917Y-68465287D01*
X167133691Y-68322072D01*
X167161623Y-68302441D01*
X167327406Y-68148386D01*
X167369079Y-68109661D01*
X167369081Y-68109658D01*
X167372222Y-68106740D01*
X167554313Y-67884268D01*
X167704527Y-67639142D01*
X167742850Y-67551841D01*
X167818357Y-67379830D01*
X167820083Y-67375898D01*
X167898844Y-67099406D01*
X167939351Y-66814784D01*
X167939378Y-66809798D01*
X167940835Y-66531583D01*
X167940835Y-66531576D01*
X167940857Y-66527297D01*
X167938088Y-66506259D01*
X167910221Y-66294597D01*
X167903332Y-66242266D01*
X167893910Y-66207823D01*
X167841714Y-66017027D01*
X167827471Y-65964964D01*
X167714677Y-65700524D01*
X167591053Y-65493963D01*
X167569243Y-65457521D01*
X167569240Y-65457517D01*
X167567039Y-65453839D01*
X167387287Y-65229472D01*
X167178749Y-65031577D01*
X166945283Y-64863814D01*
X166923443Y-64852250D01*
X166900254Y-64839972D01*
X166691208Y-64729288D01*
X166421227Y-64630489D01*
X166140336Y-64569245D01*
X166105482Y-64566502D01*
X165917318Y-64551693D01*
X165917309Y-64551693D01*
X165914861Y-64551500D01*
X165759329Y-64551500D01*
X165757193Y-64551646D01*
X165757182Y-64551646D01*
X165549052Y-64565835D01*
X165549046Y-64565836D01*
X165544775Y-64566127D01*
X165540580Y-64566996D01*
X165540578Y-64566996D01*
X165460883Y-64583500D01*
X165263258Y-64624426D01*
X164992257Y-64720393D01*
X164736788Y-64852250D01*
X164733287Y-64854711D01*
X164733283Y-64854713D01*
X164723194Y-64861804D01*
X164501577Y-65017559D01*
X164486492Y-65031577D01*
X164295754Y-65208822D01*
X164290978Y-65213260D01*
X164108887Y-65435732D01*
X163958673Y-65680858D01*
X163843117Y-65944102D01*
X163764356Y-66220594D01*
X163723849Y-66505216D01*
X163723827Y-66509505D01*
X163723826Y-66509512D01*
X163722509Y-66760967D01*
X163722343Y-66792703D01*
X157246068Y-66792703D01*
X157247435Y-66531583D01*
X157247435Y-66531576D01*
X157247457Y-66527297D01*
X157244688Y-66506259D01*
X157216821Y-66294597D01*
X157209932Y-66242266D01*
X157200510Y-66207823D01*
X157148314Y-66017027D01*
X157134071Y-65964964D01*
X157021277Y-65700524D01*
X156897653Y-65493963D01*
X156875843Y-65457521D01*
X156875840Y-65457517D01*
X156873639Y-65453839D01*
X156693887Y-65229472D01*
X156485349Y-65031577D01*
X156251883Y-64863814D01*
X156230043Y-64852250D01*
X156206854Y-64839972D01*
X155997808Y-64729288D01*
X155727827Y-64630489D01*
X155446936Y-64569245D01*
X155412082Y-64566502D01*
X155223918Y-64551693D01*
X155223909Y-64551693D01*
X155221461Y-64551500D01*
X155065929Y-64551500D01*
X155063793Y-64551646D01*
X155063782Y-64551646D01*
X154855652Y-64565835D01*
X154855646Y-64565836D01*
X154851375Y-64566127D01*
X154847180Y-64566996D01*
X154847178Y-64566996D01*
X154767483Y-64583500D01*
X154569858Y-64624426D01*
X154298857Y-64720393D01*
X154043388Y-64852250D01*
X154039887Y-64854711D01*
X154039883Y-64854713D01*
X154029794Y-64861804D01*
X153808177Y-65017559D01*
X153793092Y-65031577D01*
X153602354Y-65208822D01*
X153597578Y-65213260D01*
X153415487Y-65435732D01*
X153265273Y-65680858D01*
X153263547Y-65684791D01*
X153263546Y-65684792D01*
X153198673Y-65832577D01*
X153152977Y-65886913D01*
X153085159Y-65907918D01*
X153016751Y-65888924D01*
X152969471Y-65835960D01*
X152957300Y-65781932D01*
X152957300Y-61224503D01*
X161309143Y-61224503D01*
X161309702Y-61228747D01*
X161309702Y-61228751D01*
X161314135Y-61262424D01*
X161346668Y-61509534D01*
X161422529Y-61786836D01*
X161424213Y-61790784D01*
X161525490Y-62028222D01*
X161535323Y-62051276D01*
X161547093Y-62070942D01*
X161644587Y-62233842D01*
X161682961Y-62297961D01*
X161862713Y-62522328D01*
X161900427Y-62558117D01*
X162058369Y-62707998D01*
X162071251Y-62720223D01*
X162304717Y-62887986D01*
X162308512Y-62889995D01*
X162308513Y-62889996D01*
X162328622Y-62900643D01*
X162558792Y-63022512D01*
X162618033Y-63044191D01*
X162809134Y-63114124D01*
X162828773Y-63121311D01*
X163109664Y-63182555D01*
X163138241Y-63184804D01*
X163332682Y-63200107D01*
X163332691Y-63200107D01*
X163335139Y-63200300D01*
X163490671Y-63200300D01*
X163492807Y-63200154D01*
X163492818Y-63200154D01*
X163700948Y-63185965D01*
X163700954Y-63185964D01*
X163705225Y-63185673D01*
X163709420Y-63184804D01*
X163709422Y-63184804D01*
X163845983Y-63156524D01*
X163986742Y-63127374D01*
X164257743Y-63031407D01*
X164493558Y-62909694D01*
X164509405Y-62901515D01*
X164509406Y-62901515D01*
X164513212Y-62899550D01*
X164516713Y-62897089D01*
X164516717Y-62897087D01*
X164682222Y-62780768D01*
X164748423Y-62734241D01*
X164959022Y-62538540D01*
X165141113Y-62316068D01*
X165291327Y-62070942D01*
X165406883Y-61807698D01*
X165485644Y-61531206D01*
X165515915Y-61318504D01*
X165525546Y-61250836D01*
X165525546Y-61250834D01*
X165526151Y-61246584D01*
X165526245Y-61228751D01*
X165527635Y-60963383D01*
X165527635Y-60963376D01*
X165527657Y-60959097D01*
X165526681Y-60951679D01*
X165508257Y-60811736D01*
X165490132Y-60674066D01*
X165414271Y-60396764D01*
X165368124Y-60288574D01*
X165303163Y-60136276D01*
X165303161Y-60136272D01*
X165301477Y-60132324D01*
X165196929Y-59957637D01*
X165156043Y-59889321D01*
X165156040Y-59889317D01*
X165153839Y-59885639D01*
X164974087Y-59661272D01*
X164845567Y-59539311D01*
X164768658Y-59466327D01*
X164768655Y-59466325D01*
X164765549Y-59463377D01*
X164532083Y-59295614D01*
X164510243Y-59284050D01*
X164441850Y-59247838D01*
X164278008Y-59161088D01*
X164143017Y-59111688D01*
X164012058Y-59063764D01*
X164012056Y-59063763D01*
X164008027Y-59062289D01*
X163727136Y-59001045D01*
X163696085Y-58998601D01*
X163504118Y-58983493D01*
X163504109Y-58983493D01*
X163501661Y-58983300D01*
X163346129Y-58983300D01*
X163343993Y-58983446D01*
X163343982Y-58983446D01*
X163135852Y-58997635D01*
X163135846Y-58997636D01*
X163131575Y-58997927D01*
X163127380Y-58998796D01*
X163127378Y-58998796D01*
X162990816Y-59027077D01*
X162850058Y-59056226D01*
X162579057Y-59152193D01*
X162564681Y-59159613D01*
X162380521Y-59254665D01*
X162323588Y-59284050D01*
X162320087Y-59286511D01*
X162320083Y-59286513D01*
X162205983Y-59366704D01*
X162088377Y-59449359D01*
X162073292Y-59463377D01*
X161888870Y-59634753D01*
X161877778Y-59645060D01*
X161695687Y-59867532D01*
X161545473Y-60112658D01*
X161543747Y-60116591D01*
X161543746Y-60116592D01*
X161536840Y-60132324D01*
X161429917Y-60375902D01*
X161351156Y-60652394D01*
X161310649Y-60937016D01*
X161310627Y-60941305D01*
X161310626Y-60941312D01*
X161309222Y-61209408D01*
X161309143Y-61224503D01*
X152957300Y-61224503D01*
X152957300Y-59717968D01*
X152957827Y-59706785D01*
X152959502Y-59699292D01*
X152958215Y-59658325D01*
X152957362Y-59631202D01*
X152957300Y-59627244D01*
X152957300Y-59599344D01*
X152956796Y-59595353D01*
X152955863Y-59583511D01*
X152955384Y-59568249D01*
X152954474Y-59539311D01*
X152952262Y-59531697D01*
X152952261Y-59531692D01*
X152948823Y-59519859D01*
X152944812Y-59500495D01*
X152943733Y-59491949D01*
X152942274Y-59480403D01*
X152939357Y-59473036D01*
X152939356Y-59473031D01*
X152925998Y-59439292D01*
X152922154Y-59428065D01*
X152912030Y-59393222D01*
X152909818Y-59385607D01*
X152899507Y-59368172D01*
X152890812Y-59350424D01*
X152883352Y-59331583D01*
X152857364Y-59295813D01*
X152850848Y-59285893D01*
X152832380Y-59254665D01*
X152832378Y-59254662D01*
X152828342Y-59247838D01*
X152814021Y-59233517D01*
X152801180Y-59218483D01*
X152793931Y-59208506D01*
X152789272Y-59202093D01*
X152755195Y-59173902D01*
X152746416Y-59165912D01*
X150033452Y-56452947D01*
X150025912Y-56444661D01*
X150021800Y-56438182D01*
X149972148Y-56391556D01*
X149969307Y-56388802D01*
X149949570Y-56369065D01*
X149946373Y-56366585D01*
X149937351Y-56358880D01*
X149910900Y-56334041D01*
X149905121Y-56328614D01*
X149898175Y-56324795D01*
X149898172Y-56324793D01*
X149887366Y-56318852D01*
X149870847Y-56308001D01*
X149870383Y-56307641D01*
X149854841Y-56295586D01*
X149847572Y-56292441D01*
X149847568Y-56292438D01*
X149814263Y-56278026D01*
X149803613Y-56272809D01*
X149764860Y-56251505D01*
X149745237Y-56246467D01*
X149726534Y-56240063D01*
X149715220Y-56235167D01*
X149715219Y-56235167D01*
X149707945Y-56232019D01*
X149700122Y-56230780D01*
X149700112Y-56230777D01*
X149664276Y-56225101D01*
X149652656Y-56222695D01*
X149617511Y-56213672D01*
X149617510Y-56213672D01*
X149609830Y-56211700D01*
X149589576Y-56211700D01*
X149569865Y-56210149D01*
X149557686Y-56208220D01*
X149549857Y-56206980D01*
X149541965Y-56207726D01*
X149505839Y-56211141D01*
X149493981Y-56211700D01*
X130817994Y-56211700D01*
X130749873Y-56191698D01*
X130728899Y-56174795D01*
X130217310Y-55663206D01*
X131221823Y-55663206D01*
X131227104Y-55670261D01*
X131403480Y-55773327D01*
X131412763Y-55777774D01*
X131619403Y-55856683D01*
X131629301Y-55859559D01*
X131846053Y-55903657D01*
X131856283Y-55904876D01*
X132077314Y-55912982D01*
X132087623Y-55912514D01*
X132307023Y-55884408D01*
X132317088Y-55882268D01*
X132528957Y-55818705D01*
X132538552Y-55814944D01*
X132737178Y-55717638D01*
X132746036Y-55712359D01*
X132803497Y-55671372D01*
X132811897Y-55660674D01*
X132804910Y-55647521D01*
X132031211Y-54873821D01*
X132017268Y-54866208D01*
X132015434Y-54866339D01*
X132008820Y-54870590D01*
X131228580Y-55650831D01*
X131221823Y-55663206D01*
X130217310Y-55663206D01*
X129026543Y-54472438D01*
X130606293Y-54472438D01*
X130619027Y-54693268D01*
X130620461Y-54703470D01*
X130669085Y-54919239D01*
X130672173Y-54929092D01*
X130755386Y-55134020D01*
X130760034Y-55143221D01*
X130848497Y-55287581D01*
X130858953Y-55297042D01*
X130867731Y-55293258D01*
X131646379Y-54514611D01*
X131652756Y-54502932D01*
X132382808Y-54502932D01*
X132382939Y-54504766D01*
X132387190Y-54511380D01*
X133164707Y-55288896D01*
X133176713Y-55295452D01*
X133188452Y-55286484D01*
X133226410Y-55233659D01*
X133231721Y-55224820D01*
X133329718Y-55026537D01*
X133333517Y-55016942D01*
X133397815Y-54805317D01*
X133399994Y-54795236D01*
X133429102Y-54574138D01*
X133429621Y-54567463D01*
X133431144Y-54505164D01*
X133430950Y-54498446D01*
X133412679Y-54276200D01*
X133410996Y-54266038D01*
X133357110Y-54051508D01*
X133353789Y-54041753D01*
X133265593Y-53838918D01*
X133260715Y-53829820D01*
X133187624Y-53716838D01*
X133176938Y-53707635D01*
X133167373Y-53712038D01*
X132390421Y-54488989D01*
X132382808Y-54502932D01*
X131652756Y-54502932D01*
X131653992Y-54500668D01*
X131653861Y-54498834D01*
X131649610Y-54492220D01*
X130872262Y-53714873D01*
X130860730Y-53708576D01*
X130848448Y-53718199D01*
X130792867Y-53799677D01*
X130787779Y-53808633D01*
X130694652Y-54009259D01*
X130691089Y-54018946D01*
X130631981Y-54232080D01*
X130630050Y-54242200D01*
X130606545Y-54462149D01*
X130606293Y-54472438D01*
X129026543Y-54472438D01*
X128028061Y-53473956D01*
X127994035Y-53411644D01*
X127999100Y-53340828D01*
X128001915Y-53333914D01*
X128005840Y-53325037D01*
X128036293Y-53256152D01*
X128107734Y-53002843D01*
X128125092Y-52873608D01*
X128142343Y-52745176D01*
X128142344Y-52745168D01*
X128142770Y-52741994D01*
X128146447Y-52625000D01*
X128133037Y-52435592D01*
X128128174Y-52366915D01*
X128127859Y-52362466D01*
X128126853Y-52357791D01*
X128073401Y-52109523D01*
X128072464Y-52105171D01*
X128070352Y-52099444D01*
X127982910Y-51862424D01*
X127981369Y-51858247D01*
X127915472Y-51736118D01*
X127858504Y-51630538D01*
X127856391Y-51626622D01*
X127700024Y-51414918D01*
X127676125Y-51390640D01*
X127585586Y-51298668D01*
X127515387Y-51227358D01*
X127511847Y-51224657D01*
X127511841Y-51224651D01*
X127309706Y-51070386D01*
X127309702Y-51070383D01*
X127306165Y-51067684D01*
X127076532Y-50939084D01*
X126831070Y-50844122D01*
X126826745Y-50843119D01*
X126826740Y-50843118D01*
X126673240Y-50807539D01*
X126574676Y-50784693D01*
X126312467Y-50761983D01*
X126308032Y-50762227D01*
X126308028Y-50762227D01*
X126054116Y-50776200D01*
X126054109Y-50776201D01*
X126049673Y-50776445D01*
X125921569Y-50801927D01*
X125795911Y-50826921D01*
X125795906Y-50826922D01*
X125791539Y-50827791D01*
X125787336Y-50829267D01*
X125547423Y-50913518D01*
X125547420Y-50913519D01*
X125543215Y-50914996D01*
X125539262Y-50917049D01*
X125539256Y-50917052D01*
X125407815Y-50985331D01*
X125309656Y-51036321D01*
X125306041Y-51038904D01*
X125306035Y-51038908D01*
X125215216Y-51103809D01*
X125095522Y-51189344D01*
X125092295Y-51192422D01*
X125092293Y-51192424D01*
X124912393Y-51364040D01*
X124905085Y-51371011D01*
X124742145Y-51577700D01*
X124711454Y-51630538D01*
X124612187Y-51801438D01*
X124612184Y-51801444D01*
X124609953Y-51805285D01*
X124608283Y-51809408D01*
X124521399Y-52023915D01*
X124511147Y-52049225D01*
X124510076Y-52053538D01*
X124510074Y-52053543D01*
X124482749Y-52163549D01*
X124447698Y-52304654D01*
X124420872Y-52566474D01*
X124423045Y-52621779D01*
X124430207Y-52804051D01*
X124431205Y-52829462D01*
X124440034Y-52877805D01*
X124464954Y-53014252D01*
X124478490Y-53088371D01*
X124489756Y-53122139D01*
X124554776Y-53317027D01*
X124561784Y-53338034D01*
X124598565Y-53411644D01*
X124664828Y-53544256D01*
X124679425Y-53573470D01*
X124681954Y-53577129D01*
X124778971Y-53717501D01*
X124829065Y-53789982D01*
X125007720Y-53983249D01*
X125211823Y-54149415D01*
X125215631Y-54151708D01*
X125215633Y-54151709D01*
X125433488Y-54282868D01*
X125433492Y-54282870D01*
X125437304Y-54285165D01*
X125556752Y-54335745D01*
X125675559Y-54386054D01*
X125675564Y-54386056D01*
X125679662Y-54387791D01*
X125683960Y-54388930D01*
X125683964Y-54388932D01*
X125770774Y-54411949D01*
X125934062Y-54455244D01*
X126195429Y-54486179D01*
X126458547Y-54479978D01*
X126462945Y-54479246D01*
X126713776Y-54437496D01*
X126713780Y-54437495D01*
X126718166Y-54436765D01*
X126722407Y-54435424D01*
X126722410Y-54435423D01*
X126964861Y-54358746D01*
X126964863Y-54358745D01*
X126969107Y-54357403D01*
X126990350Y-54347202D01*
X127060412Y-54335745D01*
X127125550Y-54363985D01*
X127133986Y-54371690D01*
X129238700Y-56476405D01*
X129272726Y-56538717D01*
X129267661Y-56609533D01*
X129225114Y-56666368D01*
X129158594Y-56691179D01*
X129149605Y-56691500D01*
X128118346Y-56691500D01*
X128050225Y-56671498D01*
X128003732Y-56617842D01*
X128000134Y-56609111D01*
X127982910Y-56562425D01*
X127981369Y-56558247D01*
X127939363Y-56480397D01*
X127858504Y-56330538D01*
X127856391Y-56326622D01*
X127700024Y-56114918D01*
X127515387Y-55927358D01*
X127511847Y-55924657D01*
X127511841Y-55924651D01*
X127309706Y-55770386D01*
X127309702Y-55770383D01*
X127306165Y-55767684D01*
X127076532Y-55639084D01*
X126831070Y-55544122D01*
X126826745Y-55543119D01*
X126826740Y-55543118D01*
X126685994Y-55510495D01*
X126574676Y-55484693D01*
X126312467Y-55461983D01*
X126308032Y-55462227D01*
X126308028Y-55462227D01*
X126054116Y-55476200D01*
X126054109Y-55476201D01*
X126049673Y-55476445D01*
X125960795Y-55494124D01*
X125795911Y-55526921D01*
X125795906Y-55526922D01*
X125791539Y-55527791D01*
X125787336Y-55529267D01*
X125547423Y-55613518D01*
X125547420Y-55613519D01*
X125543215Y-55614996D01*
X125539262Y-55617049D01*
X125539256Y-55617052D01*
X125450407Y-55663206D01*
X125309656Y-55736321D01*
X125306041Y-55738904D01*
X125306035Y-55738908D01*
X125257871Y-55773327D01*
X125095522Y-55889344D01*
X125092295Y-55892422D01*
X125092293Y-55892424D01*
X124919996Y-56056787D01*
X124905085Y-56071011D01*
X124742145Y-56277700D01*
X124714791Y-56324793D01*
X124612187Y-56501438D01*
X124612184Y-56501444D01*
X124609953Y-56505285D01*
X124608283Y-56509408D01*
X124524739Y-56715669D01*
X124511147Y-56749225D01*
X124447698Y-57004654D01*
X124420872Y-57266474D01*
X124421047Y-57270926D01*
X124429188Y-57478117D01*
X124431205Y-57529462D01*
X124478490Y-57788371D01*
X124561784Y-58038034D01*
X124601202Y-58116922D01*
X124670975Y-58256558D01*
X124679425Y-58273470D01*
X124725180Y-58339672D01*
X124761546Y-58392289D01*
X124829065Y-58489982D01*
X125007720Y-58683249D01*
X125211823Y-58849415D01*
X125215631Y-58851708D01*
X125215633Y-58851709D01*
X125433488Y-58982868D01*
X125433492Y-58982870D01*
X125437304Y-58985165D01*
X125556119Y-59035477D01*
X125675559Y-59086054D01*
X125675564Y-59086056D01*
X125679662Y-59087791D01*
X125683960Y-59088930D01*
X125683964Y-59088932D01*
X125806862Y-59121517D01*
X125934062Y-59155244D01*
X126195429Y-59186179D01*
X126458547Y-59179978D01*
X126517755Y-59170123D01*
X126713776Y-59137496D01*
X126713780Y-59137495D01*
X126718166Y-59136765D01*
X126722407Y-59135424D01*
X126722410Y-59135423D01*
X126964861Y-59058746D01*
X126964863Y-59058745D01*
X126969107Y-59057403D01*
X126973118Y-59055477D01*
X126973123Y-59055475D01*
X127202343Y-58945405D01*
X127202344Y-58945404D01*
X127206362Y-58943475D01*
X127316387Y-58869958D01*
X127421489Y-58799732D01*
X127421493Y-58799729D01*
X127425197Y-58797254D01*
X127428514Y-58794283D01*
X127428518Y-58794280D01*
X127617929Y-58624629D01*
X127617930Y-58624628D01*
X127621247Y-58621657D01*
X127790598Y-58420189D01*
X127795906Y-58411679D01*
X127927520Y-58200643D01*
X127929874Y-58196869D01*
X127966948Y-58113010D01*
X128002075Y-58033553D01*
X128047914Y-57979337D01*
X128117316Y-57958500D01*
X131226237Y-57958500D01*
X131237420Y-57959027D01*
X131244913Y-57960702D01*
X131252839Y-57960453D01*
X131252840Y-57960453D01*
X131312990Y-57958562D01*
X131316949Y-57958500D01*
X131344860Y-57958500D01*
X131348795Y-57958003D01*
X131348860Y-57957995D01*
X131360697Y-57957062D01*
X131392955Y-57956048D01*
X131396974Y-57955922D01*
X131404893Y-57955673D01*
X131424347Y-57950021D01*
X131443704Y-57946013D01*
X131455934Y-57944468D01*
X131455935Y-57944468D01*
X131463801Y-57943474D01*
X131471171Y-57940556D01*
X131471175Y-57940555D01*
X131478767Y-57937549D01*
X131525152Y-57928700D01*
X149028810Y-57928700D01*
X149096931Y-57948702D01*
X149117905Y-57965605D01*
X150923995Y-59771696D01*
X150958021Y-59834008D01*
X150960900Y-59860791D01*
X150960900Y-69556633D01*
X150960373Y-69567816D01*
X150958698Y-69575309D01*
X150958947Y-69583235D01*
X150958947Y-69583236D01*
X150960838Y-69643386D01*
X150960900Y-69647345D01*
X150960900Y-69675256D01*
X150961397Y-69679190D01*
X150961397Y-69679191D01*
X150961405Y-69679256D01*
X150962338Y-69691093D01*
X150963727Y-69735289D01*
X150969378Y-69754739D01*
X150973387Y-69774100D01*
X150975926Y-69794197D01*
X150978845Y-69801568D01*
X150978845Y-69801570D01*
X150992204Y-69835312D01*
X150996049Y-69846542D01*
X151008382Y-69888993D01*
X151012415Y-69895812D01*
X151012417Y-69895817D01*
X151018693Y-69906428D01*
X151027388Y-69924176D01*
X151034848Y-69943017D01*
X151039510Y-69949433D01*
X151039510Y-69949434D01*
X151060836Y-69978787D01*
X151067352Y-69988707D01*
X151089858Y-70026762D01*
X151104179Y-70041083D01*
X151117019Y-70056116D01*
X151128928Y-70072507D01*
X151140911Y-70082420D01*
X151163005Y-70100698D01*
X151171784Y-70108688D01*
X151787400Y-70724304D01*
X151821426Y-70786616D01*
X151816361Y-70857431D01*
X151773814Y-70914267D01*
X151749554Y-70928506D01*
X151619078Y-70986597D01*
X151619076Y-70986598D01*
X151613048Y-70989282D01*
X151607707Y-70993162D01*
X151607706Y-70993163D01*
X151557643Y-71029536D01*
X151458547Y-71101534D01*
X151330760Y-71243456D01*
X151235273Y-71408844D01*
X151176258Y-71590472D01*
X151175568Y-71597033D01*
X151175568Y-71597035D01*
X151160194Y-71743309D01*
X151156296Y-71780400D01*
X151176258Y-71970328D01*
X151235273Y-72151956D01*
X151330760Y-72317344D01*
X151403937Y-72398615D01*
X151434653Y-72462621D01*
X151436300Y-72482924D01*
X151436300Y-75910806D01*
X151416298Y-75978927D01*
X151399395Y-75999901D01*
X150414658Y-76984637D01*
X150352346Y-77018663D01*
X150281530Y-77013598D01*
X150224695Y-76971051D01*
X150207581Y-76939771D01*
X150169768Y-76838905D01*
X150169767Y-76838903D01*
X150166615Y-76830495D01*
X150093370Y-76732764D01*
X150068522Y-76666259D01*
X150083575Y-76596876D01*
X150093370Y-76581635D01*
X150098883Y-76574279D01*
X150166615Y-76483905D01*
X150217745Y-76347516D01*
X150224500Y-76285334D01*
X150224500Y-74489066D01*
X150217745Y-74426884D01*
X150166615Y-74290495D01*
X150093370Y-74192764D01*
X150068522Y-74126259D01*
X150083575Y-74056876D01*
X150093370Y-74041635D01*
X150161229Y-73951091D01*
X150166615Y-73943905D01*
X150217745Y-73807516D01*
X150224500Y-73745334D01*
X150224500Y-71949066D01*
X150217745Y-71886884D01*
X150166615Y-71750495D01*
X150093058Y-71652348D01*
X150068210Y-71585842D01*
X150083263Y-71516459D01*
X150093058Y-71501218D01*
X150160786Y-71410849D01*
X150169324Y-71395254D01*
X150214478Y-71274806D01*
X150218105Y-71259551D01*
X150223631Y-71208686D01*
X150224000Y-71201872D01*
X150224000Y-70579315D01*
X150219525Y-70564076D01*
X150218135Y-70562871D01*
X150210452Y-70561200D01*
X145726116Y-70561200D01*
X145710877Y-70565675D01*
X145709672Y-70567065D01*
X145708001Y-70574748D01*
X145708001Y-71201869D01*
X145708371Y-71208690D01*
X145713895Y-71259552D01*
X145717521Y-71274804D01*
X145762676Y-71395254D01*
X145771214Y-71410849D01*
X145838942Y-71501218D01*
X145863790Y-71567725D01*
X145848737Y-71637107D01*
X145838942Y-71652348D01*
X145765385Y-71750495D01*
X145714255Y-71886884D01*
X145707500Y-71949066D01*
X145707500Y-72767419D01*
X145706787Y-72780807D01*
X145703251Y-72813895D01*
X145703548Y-72819048D01*
X145703548Y-72819051D01*
X145707291Y-72883963D01*
X145707500Y-72891216D01*
X145707500Y-73745334D01*
X145714255Y-73807516D01*
X145765385Y-73943905D01*
X145770771Y-73951091D01*
X145838630Y-74041635D01*
X145863478Y-74108141D01*
X145848425Y-74177524D01*
X145838632Y-74192762D01*
X145765385Y-74290495D01*
X145714255Y-74426884D01*
X145707500Y-74489066D01*
X145707500Y-75307419D01*
X145706787Y-75320807D01*
X145703251Y-75353895D01*
X145703548Y-75359048D01*
X145703548Y-75359051D01*
X145707291Y-75423963D01*
X145707500Y-75431216D01*
X145707500Y-76285334D01*
X145714255Y-76347516D01*
X145765385Y-76483905D01*
X145833117Y-76574279D01*
X145838630Y-76581635D01*
X145863478Y-76648141D01*
X145848425Y-76717524D01*
X145838632Y-76732762D01*
X145765385Y-76830495D01*
X145714255Y-76966884D01*
X145707500Y-77029066D01*
X145707500Y-77847419D01*
X145706787Y-77860807D01*
X145703251Y-77893895D01*
X145703548Y-77899048D01*
X145703548Y-77899051D01*
X145707291Y-77963963D01*
X145707500Y-77971216D01*
X145707500Y-78825334D01*
X145714255Y-78887516D01*
X145765385Y-79023905D01*
X145806933Y-79079342D01*
X145838630Y-79121635D01*
X145863478Y-79188141D01*
X145848425Y-79257524D01*
X145838632Y-79272762D01*
X145765385Y-79370495D01*
X145714255Y-79506884D01*
X145707500Y-79569066D01*
X145707500Y-80387419D01*
X145706787Y-80400807D01*
X145703251Y-80433895D01*
X145703548Y-80439048D01*
X145703548Y-80439051D01*
X145707291Y-80503963D01*
X145707500Y-80511216D01*
X145707500Y-81365334D01*
X145714255Y-81427516D01*
X145765385Y-81563905D01*
X145770771Y-81571091D01*
X145838942Y-81662052D01*
X145863790Y-81728558D01*
X145848737Y-81797941D01*
X145838942Y-81813182D01*
X145771214Y-81903551D01*
X145762676Y-81919146D01*
X145717522Y-82039594D01*
X145713895Y-82054849D01*
X145708369Y-82105714D01*
X145708000Y-82112528D01*
X145708000Y-82735085D01*
X145712475Y-82750324D01*
X145713865Y-82751529D01*
X145721548Y-82753200D01*
X150205884Y-82753200D01*
X150221123Y-82748725D01*
X150222328Y-82747335D01*
X150223999Y-82739652D01*
X150223999Y-82112531D01*
X150223629Y-82105710D01*
X150218105Y-82054848D01*
X150214479Y-82039596D01*
X150169324Y-81919146D01*
X150160786Y-81903551D01*
X150093058Y-81813182D01*
X150068210Y-81746675D01*
X150083263Y-81677293D01*
X150093058Y-81662052D01*
X150161229Y-81571091D01*
X150166615Y-81563905D01*
X150217745Y-81427516D01*
X150224500Y-81365334D01*
X150224500Y-79569066D01*
X150217745Y-79506884D01*
X150166615Y-79370495D01*
X150093370Y-79272764D01*
X150068522Y-79206259D01*
X150083575Y-79136876D01*
X150093370Y-79121635D01*
X150125067Y-79079342D01*
X150166615Y-79023905D01*
X150217745Y-78887516D01*
X150224500Y-78825334D01*
X150224500Y-78687626D01*
X150244502Y-78619505D01*
X150298158Y-78573012D01*
X150346539Y-78561688D01*
X150372009Y-78560887D01*
X150375987Y-78560762D01*
X150379945Y-78560700D01*
X150407856Y-78560700D01*
X150411791Y-78560203D01*
X150411856Y-78560195D01*
X150423693Y-78559262D01*
X150455951Y-78558248D01*
X150459970Y-78558122D01*
X150467889Y-78557873D01*
X150487343Y-78552221D01*
X150506700Y-78548213D01*
X150518930Y-78546668D01*
X150518931Y-78546668D01*
X150526797Y-78545674D01*
X150534168Y-78542755D01*
X150534170Y-78542755D01*
X150567912Y-78529396D01*
X150579142Y-78525551D01*
X150613983Y-78515429D01*
X150613984Y-78515429D01*
X150621593Y-78513218D01*
X150628412Y-78509185D01*
X150628417Y-78509183D01*
X150639028Y-78502907D01*
X150656776Y-78494212D01*
X150675617Y-78486752D01*
X150711387Y-78460764D01*
X150721307Y-78454248D01*
X150752535Y-78435780D01*
X150752538Y-78435778D01*
X150759362Y-78431742D01*
X150773683Y-78417421D01*
X150788717Y-78404580D01*
X150798694Y-78397331D01*
X150805107Y-78392672D01*
X150833298Y-78358595D01*
X150841288Y-78349816D01*
X152462047Y-76729057D01*
X152470337Y-76721513D01*
X152476818Y-76717400D01*
X152523459Y-76667732D01*
X152526213Y-76664891D01*
X152545935Y-76645169D01*
X152548412Y-76641976D01*
X152556117Y-76632955D01*
X152580959Y-76606500D01*
X152586386Y-76600721D01*
X152590207Y-76593771D01*
X152596146Y-76582968D01*
X152607002Y-76566441D01*
X152614557Y-76556702D01*
X152614558Y-76556700D01*
X152619414Y-76550440D01*
X152636974Y-76509860D01*
X152642191Y-76499212D01*
X152659675Y-76467409D01*
X152659676Y-76467407D01*
X152663495Y-76460460D01*
X152668533Y-76440837D01*
X152674937Y-76422134D01*
X152679833Y-76410820D01*
X152679833Y-76410819D01*
X152682981Y-76403545D01*
X152684220Y-76395722D01*
X152684223Y-76395712D01*
X152689899Y-76359876D01*
X152692305Y-76348256D01*
X152701328Y-76313111D01*
X152701328Y-76313110D01*
X152703300Y-76305430D01*
X152703300Y-76285176D01*
X152704851Y-76265465D01*
X152706780Y-76253286D01*
X152708020Y-76245457D01*
X152703859Y-76201438D01*
X152703300Y-76189581D01*
X152703300Y-72482924D01*
X152723302Y-72414803D01*
X152735658Y-72398621D01*
X152808840Y-72317344D01*
X152904327Y-72151956D01*
X152916991Y-72112980D01*
X152957066Y-72054375D01*
X153022463Y-72026739D01*
X153092419Y-72038847D01*
X153125919Y-72062823D01*
X155877596Y-74814500D01*
X155911622Y-74876812D01*
X155914501Y-74903595D01*
X155914501Y-75324624D01*
X155915039Y-75328709D01*
X155915039Y-75328713D01*
X155928533Y-75431216D01*
X155929867Y-75441348D01*
X155971613Y-75542132D01*
X155987829Y-75581282D01*
X155995418Y-75651872D01*
X155963638Y-75715359D01*
X155902580Y-75751586D01*
X155871420Y-75755500D01*
X155536218Y-75755501D01*
X155522376Y-75755501D01*
X155518291Y-75756039D01*
X155518287Y-75756039D01*
X155413839Y-75769789D01*
X155413837Y-75769789D01*
X155405652Y-75770867D01*
X155260424Y-75831022D01*
X155198069Y-75878869D01*
X155142268Y-75921686D01*
X155142266Y-75921688D01*
X155135715Y-75926715D01*
X155130689Y-75933265D01*
X155130688Y-75933266D01*
X155113124Y-75956156D01*
X155040022Y-76051425D01*
X154979867Y-76196652D01*
X154964500Y-76313375D01*
X154964500Y-76751405D01*
X154944498Y-76819526D01*
X154927595Y-76840500D01*
X152261747Y-79506348D01*
X152253461Y-79513888D01*
X152246982Y-79518000D01*
X152241557Y-79523777D01*
X152200357Y-79567651D01*
X152197602Y-79570493D01*
X152177865Y-79590230D01*
X152175385Y-79593427D01*
X152167682Y-79602447D01*
X152137414Y-79634679D01*
X152133595Y-79641625D01*
X152133593Y-79641628D01*
X152127652Y-79652434D01*
X152116801Y-79668953D01*
X152104386Y-79684959D01*
X152101241Y-79692228D01*
X152101238Y-79692232D01*
X152086826Y-79725537D01*
X152081609Y-79736187D01*
X152060305Y-79774940D01*
X152058334Y-79782615D01*
X152058334Y-79782616D01*
X152055267Y-79794562D01*
X152048863Y-79813266D01*
X152040819Y-79831855D01*
X152039580Y-79839678D01*
X152039577Y-79839688D01*
X152033901Y-79875524D01*
X152031495Y-79887144D01*
X152025649Y-79909915D01*
X152020500Y-79929970D01*
X152020500Y-79950224D01*
X152018949Y-79969934D01*
X152015780Y-79989943D01*
X152016526Y-79997835D01*
X152019941Y-80033961D01*
X152020500Y-80045819D01*
X152020500Y-106654606D01*
X152000498Y-106722727D01*
X151983595Y-106743701D01*
X150439094Y-108288202D01*
X150376783Y-108322227D01*
X150305968Y-108317162D01*
X150249132Y-108274615D01*
X150224321Y-108208095D01*
X150224000Y-108199106D01*
X150223999Y-107512531D01*
X150223629Y-107505710D01*
X150218105Y-107454848D01*
X150214479Y-107439596D01*
X150169324Y-107319146D01*
X150160786Y-107303551D01*
X150093058Y-107213182D01*
X150068210Y-107146675D01*
X150083263Y-107077293D01*
X150093058Y-107062052D01*
X150161229Y-106971091D01*
X150166615Y-106963905D01*
X150217745Y-106827516D01*
X150224500Y-106765334D01*
X150224500Y-104969066D01*
X150217745Y-104906884D01*
X150166615Y-104770495D01*
X150093370Y-104672764D01*
X150068522Y-104606259D01*
X150083575Y-104536876D01*
X150093370Y-104521635D01*
X150166615Y-104423905D01*
X150217745Y-104287516D01*
X150224500Y-104225334D01*
X150224500Y-102429066D01*
X150217745Y-102366884D01*
X150166615Y-102230495D01*
X150093370Y-102132764D01*
X150068522Y-102066259D01*
X150083575Y-101996876D01*
X150093370Y-101981635D01*
X150166615Y-101883905D01*
X150217745Y-101747516D01*
X150224500Y-101685334D01*
X150224500Y-99889066D01*
X150217745Y-99826884D01*
X150166615Y-99690495D01*
X150093370Y-99592764D01*
X150068522Y-99526259D01*
X150083575Y-99456876D01*
X150093370Y-99441635D01*
X150161229Y-99351091D01*
X150166615Y-99343905D01*
X150217745Y-99207516D01*
X150224500Y-99145334D01*
X150224500Y-97349066D01*
X150217745Y-97286884D01*
X150166615Y-97150495D01*
X150093370Y-97052764D01*
X150068522Y-96986259D01*
X150083575Y-96916876D01*
X150093370Y-96901635D01*
X150098002Y-96895455D01*
X150166615Y-96803905D01*
X150217745Y-96667516D01*
X150224500Y-96605334D01*
X150224500Y-94809066D01*
X150217745Y-94746884D01*
X150166615Y-94610495D01*
X150093370Y-94512764D01*
X150068522Y-94446259D01*
X150083575Y-94376876D01*
X150093370Y-94361635D01*
X150161229Y-94271091D01*
X150166615Y-94263905D01*
X150217745Y-94127516D01*
X150224500Y-94065334D01*
X150224500Y-92269066D01*
X150217745Y-92206884D01*
X150166615Y-92070495D01*
X150093370Y-91972764D01*
X150068522Y-91906259D01*
X150083575Y-91836876D01*
X150093370Y-91821635D01*
X150161229Y-91731091D01*
X150166615Y-91723905D01*
X150217745Y-91587516D01*
X150224500Y-91525334D01*
X150224500Y-89729066D01*
X150217745Y-89666884D01*
X150166615Y-89530495D01*
X150093370Y-89432764D01*
X150068522Y-89366259D01*
X150083575Y-89296876D01*
X150093370Y-89281635D01*
X150161229Y-89191091D01*
X150166615Y-89183905D01*
X150217745Y-89047516D01*
X150224500Y-88985334D01*
X150224500Y-87189066D01*
X150217745Y-87126884D01*
X150166615Y-86990495D01*
X150093370Y-86892764D01*
X150068522Y-86826259D01*
X150083575Y-86756876D01*
X150093370Y-86741635D01*
X150161229Y-86651091D01*
X150166615Y-86643905D01*
X150217745Y-86507516D01*
X150224500Y-86445334D01*
X150224500Y-84649066D01*
X150217745Y-84586884D01*
X150166615Y-84450495D01*
X150093058Y-84352348D01*
X150068210Y-84285842D01*
X150083263Y-84216459D01*
X150093058Y-84201218D01*
X150160786Y-84110849D01*
X150169324Y-84095254D01*
X150214478Y-83974806D01*
X150218105Y-83959551D01*
X150223631Y-83908686D01*
X150224000Y-83901872D01*
X150224000Y-83279315D01*
X150219525Y-83264076D01*
X150218135Y-83262871D01*
X150210452Y-83261200D01*
X145726116Y-83261200D01*
X145710877Y-83265675D01*
X145709672Y-83267065D01*
X145708001Y-83274748D01*
X145708001Y-83901869D01*
X145708371Y-83908690D01*
X145713895Y-83959552D01*
X145717521Y-83974804D01*
X145762676Y-84095254D01*
X145771214Y-84110849D01*
X145838942Y-84201218D01*
X145863790Y-84267725D01*
X145848737Y-84337107D01*
X145838942Y-84352348D01*
X145765385Y-84450495D01*
X145714255Y-84586884D01*
X145707500Y-84649066D01*
X145707500Y-85467419D01*
X145706787Y-85480807D01*
X145703251Y-85513895D01*
X145703548Y-85519048D01*
X145703548Y-85519051D01*
X145707291Y-85583963D01*
X145707500Y-85591216D01*
X145707500Y-86445334D01*
X145714255Y-86507516D01*
X145765385Y-86643905D01*
X145770771Y-86651091D01*
X145838630Y-86741635D01*
X145863478Y-86808141D01*
X145848425Y-86877524D01*
X145838632Y-86892762D01*
X145765385Y-86990495D01*
X145714255Y-87126884D01*
X145707500Y-87189066D01*
X145707500Y-88007419D01*
X145706787Y-88020807D01*
X145703251Y-88053895D01*
X145703548Y-88059048D01*
X145703548Y-88059051D01*
X145707291Y-88123963D01*
X145707500Y-88131216D01*
X145707500Y-88985334D01*
X145714255Y-89047516D01*
X145765385Y-89183905D01*
X145770771Y-89191091D01*
X145838630Y-89281635D01*
X145863478Y-89348141D01*
X145848425Y-89417524D01*
X145838632Y-89432762D01*
X145765385Y-89530495D01*
X145714255Y-89666884D01*
X145707500Y-89729066D01*
X145707500Y-90547419D01*
X145706787Y-90560807D01*
X145703251Y-90593895D01*
X145703548Y-90599048D01*
X145703548Y-90599051D01*
X145707291Y-90663963D01*
X145707500Y-90671216D01*
X145707500Y-91525334D01*
X145714255Y-91587516D01*
X145765385Y-91723905D01*
X145770771Y-91731091D01*
X145838630Y-91821635D01*
X145863478Y-91888141D01*
X145848425Y-91957524D01*
X145838632Y-91972762D01*
X145765385Y-92070495D01*
X145714255Y-92206884D01*
X145707500Y-92269066D01*
X145707500Y-93087419D01*
X145706787Y-93100807D01*
X145703251Y-93133895D01*
X145703548Y-93139048D01*
X145703548Y-93139051D01*
X145707291Y-93203963D01*
X145707500Y-93211216D01*
X145707500Y-94065334D01*
X145714255Y-94127516D01*
X145765385Y-94263905D01*
X145770771Y-94271091D01*
X145838630Y-94361635D01*
X145863478Y-94428141D01*
X145848425Y-94497524D01*
X145838632Y-94512762D01*
X145765385Y-94610495D01*
X145714255Y-94746884D01*
X145707500Y-94809066D01*
X145707500Y-96605334D01*
X145714255Y-96667516D01*
X145765385Y-96803905D01*
X145833998Y-96895455D01*
X145838630Y-96901635D01*
X145863478Y-96968141D01*
X145848425Y-97037524D01*
X145838632Y-97052762D01*
X145765385Y-97150495D01*
X145714255Y-97286884D01*
X145707500Y-97349066D01*
X145707500Y-98167419D01*
X145706787Y-98180807D01*
X145703251Y-98213895D01*
X145703548Y-98219048D01*
X145703548Y-98219051D01*
X145707291Y-98283963D01*
X145707500Y-98291216D01*
X145707500Y-99145334D01*
X145714255Y-99207516D01*
X145765385Y-99343905D01*
X145770771Y-99351091D01*
X145838630Y-99441635D01*
X145863478Y-99508141D01*
X145848425Y-99577524D01*
X145838632Y-99592762D01*
X145765385Y-99690495D01*
X145714255Y-99826884D01*
X145707500Y-99889066D01*
X145707500Y-100707419D01*
X145706787Y-100720807D01*
X145703251Y-100753895D01*
X145703548Y-100759048D01*
X145703548Y-100759051D01*
X145707291Y-100823963D01*
X145707500Y-100831216D01*
X145707500Y-101685334D01*
X145714255Y-101747516D01*
X145765385Y-101883905D01*
X145838630Y-101981635D01*
X145863478Y-102048141D01*
X145848425Y-102117524D01*
X145838632Y-102132762D01*
X145765385Y-102230495D01*
X145714255Y-102366884D01*
X145707500Y-102429066D01*
X145707500Y-103247419D01*
X145706787Y-103260807D01*
X145703251Y-103293895D01*
X145703548Y-103299048D01*
X145703548Y-103299051D01*
X145707291Y-103363963D01*
X145707500Y-103371216D01*
X145707500Y-104225334D01*
X145714255Y-104287516D01*
X145765385Y-104423905D01*
X145838630Y-104521635D01*
X145863478Y-104588141D01*
X145848425Y-104657524D01*
X145838632Y-104672762D01*
X145765385Y-104770495D01*
X145714255Y-104906884D01*
X145707500Y-104969066D01*
X145707500Y-105787419D01*
X145706787Y-105800807D01*
X145703251Y-105833895D01*
X145703548Y-105839048D01*
X145703548Y-105839051D01*
X145707291Y-105903963D01*
X145707500Y-105911216D01*
X145707500Y-106765334D01*
X145714255Y-106827516D01*
X145765385Y-106963905D01*
X145770771Y-106971091D01*
X145838942Y-107062052D01*
X145863790Y-107128558D01*
X145848737Y-107197941D01*
X145838942Y-107213182D01*
X145771214Y-107303551D01*
X145762676Y-107319146D01*
X145717522Y-107439594D01*
X145713895Y-107454849D01*
X145708369Y-107505714D01*
X145708000Y-107512528D01*
X145708000Y-108135085D01*
X145712475Y-108150324D01*
X145713865Y-108151529D01*
X145721548Y-108153200D01*
X148338000Y-108153200D01*
X148406121Y-108173202D01*
X148452614Y-108226858D01*
X148464000Y-108279200D01*
X148464000Y-108535200D01*
X148443998Y-108603321D01*
X148390342Y-108649814D01*
X148338000Y-108661200D01*
X145726116Y-108661200D01*
X145710877Y-108665675D01*
X145709672Y-108667065D01*
X145708001Y-108674748D01*
X145708001Y-109301869D01*
X145708371Y-109308690D01*
X145713895Y-109359552D01*
X145717521Y-109374804D01*
X145762676Y-109495254D01*
X145771214Y-109510849D01*
X145838942Y-109601218D01*
X145863790Y-109667725D01*
X145848737Y-109737107D01*
X145838942Y-109752348D01*
X145765385Y-109850495D01*
X145714255Y-109986884D01*
X145707500Y-110049066D01*
X145707500Y-110867419D01*
X145706787Y-110880807D01*
X145703251Y-110913895D01*
X145703548Y-110919048D01*
X145703548Y-110919051D01*
X145707291Y-110983963D01*
X145707500Y-110991216D01*
X145707500Y-111845334D01*
X145714255Y-111907516D01*
X145765385Y-112043905D01*
X145838630Y-112141635D01*
X145863478Y-112208141D01*
X145848425Y-112277524D01*
X145838632Y-112292762D01*
X145765385Y-112390495D01*
X145714255Y-112526884D01*
X145707500Y-112589066D01*
X145707500Y-113407419D01*
X145706787Y-113420807D01*
X145703251Y-113453895D01*
X145703548Y-113459048D01*
X145703548Y-113459051D01*
X145707291Y-113523963D01*
X145707500Y-113531216D01*
X145707500Y-114122700D01*
X145687498Y-114190821D01*
X145633842Y-114237314D01*
X145581500Y-114248700D01*
X130770500Y-114248700D01*
X130702379Y-114228698D01*
X130655886Y-114175042D01*
X130644500Y-114122700D01*
X130644500Y-113585056D01*
X130645578Y-113568609D01*
X130647092Y-113557108D01*
X130647529Y-113553790D01*
X130647775Y-113543727D01*
X130649074Y-113490565D01*
X130649074Y-113490561D01*
X130649156Y-113487200D01*
X130644924Y-113435724D01*
X130644500Y-113425400D01*
X130644500Y-112589066D01*
X130637745Y-112526884D01*
X130586615Y-112390495D01*
X130513370Y-112292764D01*
X130488522Y-112226259D01*
X130503575Y-112156876D01*
X130513370Y-112141635D01*
X130586615Y-112043905D01*
X130637745Y-111907516D01*
X130644500Y-111845334D01*
X130644500Y-111045056D01*
X130645578Y-111028609D01*
X130647092Y-111017108D01*
X130647529Y-111013790D01*
X130649156Y-110947200D01*
X130644924Y-110895724D01*
X130644500Y-110885400D01*
X130644500Y-110049066D01*
X130637745Y-109986884D01*
X130606174Y-109902669D01*
X131860895Y-109902669D01*
X131861192Y-109907822D01*
X131861192Y-109907825D01*
X131869385Y-110049916D01*
X131874227Y-110133897D01*
X131875364Y-110138943D01*
X131875365Y-110138949D01*
X131902127Y-110257699D01*
X131925146Y-110359842D01*
X131927088Y-110364624D01*
X131927089Y-110364628D01*
X131974900Y-110482371D01*
X132012284Y-110574437D01*
X132133301Y-110771919D01*
X132284947Y-110946984D01*
X132463149Y-111094930D01*
X132663122Y-111211784D01*
X132879494Y-111294409D01*
X132884560Y-111295440D01*
X132884561Y-111295440D01*
X132937646Y-111306240D01*
X133106456Y-111340585D01*
X133237124Y-111345376D01*
X133332749Y-111348883D01*
X133332753Y-111348883D01*
X133337913Y-111349072D01*
X133343033Y-111348416D01*
X133343035Y-111348416D01*
X133416091Y-111339057D01*
X133567647Y-111319642D01*
X133572595Y-111318157D01*
X133572602Y-111318156D01*
X133784547Y-111254569D01*
X133789490Y-111253086D01*
X133870961Y-111213174D01*
X133992849Y-111153462D01*
X133992852Y-111153460D01*
X133997484Y-111151191D01*
X134186043Y-111016694D01*
X134350103Y-110853205D01*
X134353119Y-110849008D01*
X134353126Y-110849000D01*
X134440760Y-110727044D01*
X134496754Y-110683396D01*
X134567458Y-110676950D01*
X134630422Y-110709753D01*
X134650515Y-110734736D01*
X134670600Y-110767513D01*
X134670604Y-110767518D01*
X134673301Y-110771919D01*
X134824947Y-110946984D01*
X135003149Y-111094930D01*
X135203122Y-111211784D01*
X135419494Y-111294409D01*
X135424560Y-111295440D01*
X135424561Y-111295440D01*
X135477646Y-111306240D01*
X135646456Y-111340585D01*
X135777124Y-111345376D01*
X135872749Y-111348883D01*
X135872753Y-111348883D01*
X135877913Y-111349072D01*
X135883033Y-111348416D01*
X135883035Y-111348416D01*
X135956091Y-111339057D01*
X136107647Y-111319642D01*
X136112595Y-111318157D01*
X136112602Y-111318156D01*
X136324547Y-111254569D01*
X136329490Y-111253086D01*
X136410961Y-111213174D01*
X136532849Y-111153462D01*
X136532852Y-111153460D01*
X136537484Y-111151191D01*
X136611206Y-111098606D01*
X137557223Y-111098606D01*
X137562504Y-111105661D01*
X137738880Y-111208727D01*
X137748163Y-111213174D01*
X137954803Y-111292083D01*
X137964701Y-111294959D01*
X138181453Y-111339057D01*
X138191683Y-111340276D01*
X138412714Y-111348382D01*
X138423023Y-111347914D01*
X138642423Y-111319808D01*
X138652488Y-111317668D01*
X138864357Y-111254105D01*
X138873952Y-111250344D01*
X139072578Y-111153038D01*
X139081436Y-111147759D01*
X139138897Y-111106772D01*
X139147297Y-111096074D01*
X139140310Y-111082921D01*
X138366611Y-110309221D01*
X138352668Y-110301608D01*
X138350834Y-110301739D01*
X138344220Y-110305990D01*
X137563980Y-111086231D01*
X137557223Y-111098606D01*
X136611206Y-111098606D01*
X136726043Y-111016694D01*
X136890103Y-110853205D01*
X136902647Y-110835749D01*
X136981075Y-110726604D01*
X137037070Y-110682956D01*
X137107773Y-110676510D01*
X137170738Y-110709313D01*
X137175942Y-110715784D01*
X137194353Y-110732442D01*
X137203131Y-110728658D01*
X137981779Y-109950011D01*
X137988156Y-109938332D01*
X138718208Y-109938332D01*
X138718339Y-109940166D01*
X138722590Y-109946780D01*
X139500107Y-110724296D01*
X139512113Y-110730852D01*
X139538748Y-110710504D01*
X139539627Y-110711654D01*
X139576472Y-110682934D01*
X139647176Y-110676489D01*
X139710140Y-110709292D01*
X139730232Y-110734274D01*
X139750600Y-110767513D01*
X139750604Y-110767518D01*
X139753301Y-110771919D01*
X139904947Y-110946984D01*
X140083149Y-111094930D01*
X140283122Y-111211784D01*
X140499494Y-111294409D01*
X140504560Y-111295440D01*
X140504561Y-111295440D01*
X140557646Y-111306240D01*
X140726456Y-111340585D01*
X140857124Y-111345376D01*
X140952749Y-111348883D01*
X140952753Y-111348883D01*
X140957913Y-111349072D01*
X140963033Y-111348416D01*
X140963035Y-111348416D01*
X141036091Y-111339057D01*
X141187647Y-111319642D01*
X141192595Y-111318157D01*
X141192602Y-111318156D01*
X141404547Y-111254569D01*
X141409490Y-111253086D01*
X141490961Y-111213174D01*
X141612849Y-111153462D01*
X141612852Y-111153460D01*
X141617484Y-111151191D01*
X141806043Y-111016694D01*
X141970103Y-110853205D01*
X141973119Y-110849008D01*
X141973126Y-110849000D01*
X142060760Y-110727044D01*
X142116754Y-110683396D01*
X142187458Y-110676950D01*
X142250422Y-110709753D01*
X142270515Y-110734736D01*
X142290600Y-110767513D01*
X142290604Y-110767518D01*
X142293301Y-110771919D01*
X142444947Y-110946984D01*
X142623149Y-111094930D01*
X142823122Y-111211784D01*
X143039494Y-111294409D01*
X143044560Y-111295440D01*
X143044561Y-111295440D01*
X143097646Y-111306240D01*
X143266456Y-111340585D01*
X143397124Y-111345376D01*
X143492749Y-111348883D01*
X143492753Y-111348883D01*
X143497913Y-111349072D01*
X143503033Y-111348416D01*
X143503035Y-111348416D01*
X143576091Y-111339057D01*
X143727647Y-111319642D01*
X143732595Y-111318157D01*
X143732602Y-111318156D01*
X143944547Y-111254569D01*
X143949490Y-111253086D01*
X144030961Y-111213174D01*
X144152849Y-111153462D01*
X144152852Y-111153460D01*
X144157484Y-111151191D01*
X144346043Y-111016694D01*
X144510103Y-110853205D01*
X144645258Y-110665117D01*
X144692441Y-110569650D01*
X144745584Y-110462122D01*
X144745585Y-110462120D01*
X144747878Y-110457480D01*
X144815208Y-110235871D01*
X144845440Y-110006241D01*
X144845614Y-109999111D01*
X144847045Y-109940565D01*
X144847045Y-109940561D01*
X144847127Y-109937200D01*
X144839408Y-109843309D01*
X144828573Y-109711518D01*
X144828572Y-109711512D01*
X144828149Y-109706367D01*
X144794597Y-109572792D01*
X144772984Y-109486744D01*
X144772983Y-109486740D01*
X144771725Y-109481733D01*
X144769666Y-109476997D01*
X144681430Y-109274068D01*
X144681428Y-109274065D01*
X144679370Y-109269331D01*
X144553564Y-109074865D01*
X144397687Y-108903558D01*
X144393636Y-108900359D01*
X144393632Y-108900355D01*
X144219977Y-108763211D01*
X144219972Y-108763208D01*
X144215923Y-108760010D01*
X144211407Y-108757517D01*
X144211404Y-108757515D01*
X144017679Y-108650573D01*
X144017675Y-108650571D01*
X144013155Y-108648076D01*
X144008286Y-108646352D01*
X144008282Y-108646350D01*
X143799703Y-108572488D01*
X143799699Y-108572487D01*
X143794828Y-108570762D01*
X143789735Y-108569855D01*
X143789732Y-108569854D01*
X143571895Y-108531051D01*
X143571889Y-108531050D01*
X143566806Y-108530145D01*
X143493896Y-108529254D01*
X143340381Y-108527379D01*
X143340379Y-108527379D01*
X143335211Y-108527316D01*
X143106264Y-108562350D01*
X142886114Y-108634306D01*
X142881526Y-108636694D01*
X142881522Y-108636696D01*
X142715891Y-108722918D01*
X142680672Y-108741252D01*
X142676539Y-108744355D01*
X142676536Y-108744357D01*
X142499590Y-108877212D01*
X142495455Y-108880317D01*
X142335439Y-109047764D01*
X142268106Y-109146471D01*
X142213197Y-109191471D01*
X142142672Y-109199642D01*
X142078925Y-109168388D01*
X142058228Y-109143905D01*
X142016371Y-109079204D01*
X142013564Y-109074865D01*
X141857687Y-108903558D01*
X141853636Y-108900359D01*
X141853632Y-108900355D01*
X141679977Y-108763211D01*
X141679972Y-108763208D01*
X141675923Y-108760010D01*
X141671407Y-108757517D01*
X141671404Y-108757515D01*
X141477679Y-108650573D01*
X141477675Y-108650571D01*
X141473155Y-108648076D01*
X141468286Y-108646352D01*
X141468282Y-108646350D01*
X141259703Y-108572488D01*
X141259699Y-108572487D01*
X141254828Y-108570762D01*
X141249735Y-108569855D01*
X141249732Y-108569854D01*
X141031895Y-108531051D01*
X141031889Y-108531050D01*
X141026806Y-108530145D01*
X140953896Y-108529254D01*
X140800381Y-108527379D01*
X140800379Y-108527379D01*
X140795211Y-108527316D01*
X140566264Y-108562350D01*
X140346114Y-108634306D01*
X140341526Y-108636694D01*
X140341522Y-108636696D01*
X140175891Y-108722918D01*
X140140672Y-108741252D01*
X140136539Y-108744355D01*
X140136536Y-108744357D01*
X139959590Y-108877212D01*
X139955455Y-108880317D01*
X139795439Y-109047764D01*
X139779563Y-109071038D01*
X139727802Y-109146916D01*
X139672890Y-109191918D01*
X139602365Y-109200089D01*
X139538619Y-109168834D01*
X139528779Y-109157194D01*
X139512338Y-109143035D01*
X139502773Y-109147438D01*
X138725821Y-109924389D01*
X138718208Y-109938332D01*
X137988156Y-109938332D01*
X137989392Y-109936068D01*
X137989261Y-109934234D01*
X137985010Y-109927620D01*
X137207662Y-109150273D01*
X137196130Y-109143976D01*
X137168474Y-109165644D01*
X137167334Y-109164189D01*
X137133495Y-109191924D01*
X137062971Y-109200098D01*
X136999222Y-109168846D01*
X136978522Y-109144359D01*
X136936375Y-109079209D01*
X136936370Y-109079203D01*
X136933564Y-109074865D01*
X136777687Y-108903558D01*
X136773636Y-108900359D01*
X136773632Y-108900355D01*
X136618590Y-108777911D01*
X137559308Y-108777911D01*
X137566051Y-108790240D01*
X138340989Y-109565179D01*
X138354932Y-109572792D01*
X138356766Y-109572661D01*
X138363380Y-109568410D01*
X139142794Y-108788995D01*
X139149811Y-108776144D01*
X139142037Y-108765474D01*
X139139702Y-108763630D01*
X139131120Y-108757929D01*
X138937478Y-108651033D01*
X138928072Y-108646806D01*
X138719572Y-108572972D01*
X138709609Y-108570340D01*
X138491847Y-108531550D01*
X138481596Y-108530581D01*
X138260416Y-108527879D01*
X138250132Y-108528599D01*
X138031493Y-108562055D01*
X138021466Y-108564444D01*
X137811226Y-108633161D01*
X137801716Y-108637158D01*
X137605525Y-108739289D01*
X137596807Y-108744778D01*
X137567761Y-108766586D01*
X137559308Y-108777911D01*
X136618590Y-108777911D01*
X136599977Y-108763211D01*
X136599972Y-108763208D01*
X136595923Y-108760010D01*
X136591407Y-108757517D01*
X136591404Y-108757515D01*
X136397679Y-108650573D01*
X136397675Y-108650571D01*
X136393155Y-108648076D01*
X136388286Y-108646352D01*
X136388282Y-108646350D01*
X136179703Y-108572488D01*
X136179699Y-108572487D01*
X136174828Y-108570762D01*
X136169735Y-108569855D01*
X136169732Y-108569854D01*
X135951895Y-108531051D01*
X135951889Y-108531050D01*
X135946806Y-108530145D01*
X135873896Y-108529254D01*
X135720381Y-108527379D01*
X135720379Y-108527379D01*
X135715211Y-108527316D01*
X135486264Y-108562350D01*
X135266114Y-108634306D01*
X135261526Y-108636694D01*
X135261522Y-108636696D01*
X135095891Y-108722918D01*
X135060672Y-108741252D01*
X135056539Y-108744355D01*
X135056536Y-108744357D01*
X134879590Y-108877212D01*
X134875455Y-108880317D01*
X134715439Y-109047764D01*
X134648106Y-109146471D01*
X134593197Y-109191471D01*
X134522672Y-109199642D01*
X134458925Y-109168388D01*
X134438228Y-109143905D01*
X134396371Y-109079204D01*
X134393564Y-109074865D01*
X134237687Y-108903558D01*
X134233636Y-108900359D01*
X134233632Y-108900355D01*
X134059977Y-108763211D01*
X134059972Y-108763208D01*
X134055923Y-108760010D01*
X134051407Y-108757517D01*
X134051404Y-108757515D01*
X133857679Y-108650573D01*
X133857675Y-108650571D01*
X133853155Y-108648076D01*
X133848286Y-108646352D01*
X133848282Y-108646350D01*
X133639703Y-108572488D01*
X133639699Y-108572487D01*
X133634828Y-108570762D01*
X133629735Y-108569855D01*
X133629732Y-108569854D01*
X133411895Y-108531051D01*
X133411889Y-108531050D01*
X133406806Y-108530145D01*
X133333896Y-108529254D01*
X133180381Y-108527379D01*
X133180379Y-108527379D01*
X133175211Y-108527316D01*
X132946264Y-108562350D01*
X132726114Y-108634306D01*
X132721526Y-108636694D01*
X132721522Y-108636696D01*
X132555891Y-108722918D01*
X132520672Y-108741252D01*
X132516539Y-108744355D01*
X132516536Y-108744357D01*
X132339590Y-108877212D01*
X132335455Y-108880317D01*
X132175439Y-109047764D01*
X132172530Y-109052029D01*
X132172524Y-109052037D01*
X132156952Y-109074865D01*
X132044919Y-109239099D01*
X131947402Y-109449181D01*
X131885507Y-109672369D01*
X131860895Y-109902669D01*
X130606174Y-109902669D01*
X130586615Y-109850495D01*
X130513058Y-109752348D01*
X130488210Y-109685842D01*
X130503263Y-109616459D01*
X130513058Y-109601218D01*
X130580786Y-109510849D01*
X130589324Y-109495254D01*
X130634478Y-109374806D01*
X130638105Y-109359551D01*
X130643631Y-109308686D01*
X130644000Y-109301872D01*
X130644000Y-108679315D01*
X130639525Y-108664076D01*
X130638135Y-108662871D01*
X130630452Y-108661200D01*
X126146116Y-108661200D01*
X126130877Y-108665675D01*
X126129672Y-108667065D01*
X126128001Y-108674748D01*
X126128001Y-109301869D01*
X126128371Y-109308690D01*
X126133895Y-109359552D01*
X126137521Y-109374804D01*
X126182676Y-109495254D01*
X126191214Y-109510849D01*
X126258942Y-109601218D01*
X126283790Y-109667725D01*
X126268737Y-109737107D01*
X126258942Y-109752348D01*
X126185385Y-109850495D01*
X126134255Y-109986884D01*
X126127500Y-110049066D01*
X126127500Y-111845334D01*
X126134255Y-111907516D01*
X126185385Y-112043905D01*
X126258630Y-112141635D01*
X126283478Y-112208141D01*
X126268425Y-112277524D01*
X126258632Y-112292762D01*
X126185385Y-112390495D01*
X126134255Y-112526884D01*
X126127500Y-112589066D01*
X126127500Y-114122700D01*
X126107498Y-114190821D01*
X126053842Y-114237314D01*
X126001500Y-114248700D01*
X115594900Y-114248700D01*
X115526779Y-114228698D01*
X115480286Y-114175042D01*
X115468900Y-114122700D01*
X115468900Y-111893055D01*
X116146658Y-111893055D01*
X116181904Y-112152038D01*
X116183212Y-112156524D01*
X116183212Y-112156526D01*
X116200897Y-112217200D01*
X116255043Y-112402967D01*
X116364468Y-112640328D01*
X116367031Y-112644237D01*
X116505210Y-112854996D01*
X116505214Y-112855001D01*
X116507776Y-112858909D01*
X116681818Y-113053906D01*
X116882770Y-113221037D01*
X116886773Y-113223466D01*
X117102222Y-113354204D01*
X117102226Y-113354206D01*
X117106219Y-113356629D01*
X117347255Y-113457703D01*
X117600583Y-113522041D01*
X117605234Y-113522509D01*
X117605238Y-113522510D01*
X117798108Y-113541931D01*
X117817667Y-113543900D01*
X117973154Y-113543900D01*
X117975479Y-113543727D01*
X117975485Y-113543727D01*
X118162800Y-113529807D01*
X118162804Y-113529806D01*
X118167452Y-113529461D01*
X118172000Y-113528432D01*
X118172006Y-113528431D01*
X118396506Y-113477631D01*
X118422377Y-113471777D01*
X118426731Y-113470084D01*
X118661624Y-113378740D01*
X118661627Y-113378739D01*
X118665977Y-113377047D01*
X118892898Y-113247351D01*
X119098157Y-113085538D01*
X119277243Y-112895163D01*
X119426224Y-112680409D01*
X119469584Y-112592483D01*
X119539760Y-112450181D01*
X119539761Y-112450178D01*
X119541825Y-112445993D01*
X119621507Y-112197065D01*
X119663521Y-111939093D01*
X119666942Y-111677745D01*
X119631696Y-111418762D01*
X119617273Y-111369277D01*
X119594913Y-111292564D01*
X119558557Y-111167833D01*
X119551737Y-111153038D01*
X119517352Y-111078452D01*
X119449132Y-110930472D01*
X119413263Y-110875763D01*
X119308390Y-110715804D01*
X119308386Y-110715799D01*
X119305824Y-110711891D01*
X119131782Y-110516894D01*
X118930830Y-110349763D01*
X118803750Y-110272649D01*
X118711378Y-110216596D01*
X118711374Y-110216594D01*
X118707381Y-110214171D01*
X118466345Y-110113097D01*
X118213017Y-110048759D01*
X118208366Y-110048291D01*
X118208362Y-110048290D01*
X117999071Y-110027216D01*
X117995933Y-110026900D01*
X117840446Y-110026900D01*
X117838121Y-110027073D01*
X117838115Y-110027073D01*
X117650800Y-110040993D01*
X117650796Y-110040994D01*
X117646148Y-110041339D01*
X117641600Y-110042368D01*
X117641594Y-110042369D01*
X117455199Y-110084547D01*
X117391223Y-110099023D01*
X117386871Y-110100715D01*
X117386869Y-110100716D01*
X117151976Y-110192060D01*
X117151973Y-110192061D01*
X117147623Y-110193753D01*
X116920702Y-110323449D01*
X116715443Y-110485262D01*
X116536357Y-110675637D01*
X116466856Y-110775822D01*
X116391867Y-110883918D01*
X116387376Y-110890391D01*
X116385310Y-110894581D01*
X116385308Y-110894584D01*
X116275245Y-111117771D01*
X116271775Y-111124807D01*
X116270353Y-111129250D01*
X116270352Y-111129252D01*
X116200198Y-111348416D01*
X116192093Y-111373735D01*
X116150079Y-111631707D01*
X116150018Y-111636380D01*
X116146782Y-111883620D01*
X116146658Y-111893055D01*
X115468900Y-111893055D01*
X115468900Y-106765334D01*
X126127500Y-106765334D01*
X126134255Y-106827516D01*
X126185385Y-106963905D01*
X126190771Y-106971091D01*
X126258942Y-107062052D01*
X126283790Y-107128558D01*
X126268737Y-107197941D01*
X126258942Y-107213182D01*
X126191214Y-107303551D01*
X126182676Y-107319146D01*
X126137522Y-107439594D01*
X126133895Y-107454849D01*
X126128369Y-107505714D01*
X126128000Y-107512528D01*
X126128000Y-108135085D01*
X126132475Y-108150324D01*
X126133865Y-108151529D01*
X126141548Y-108153200D01*
X130625884Y-108153200D01*
X130641123Y-108148725D01*
X130642328Y-108147335D01*
X130643999Y-108139652D01*
X130643999Y-107512531D01*
X130643629Y-107505710D01*
X130638105Y-107454848D01*
X130634479Y-107439596D01*
X130589324Y-107319146D01*
X130580786Y-107303551D01*
X130513058Y-107213182D01*
X130488210Y-107146675D01*
X130503263Y-107077293D01*
X130513058Y-107062052D01*
X130581229Y-106971091D01*
X130586615Y-106963905D01*
X130637745Y-106827516D01*
X130644500Y-106765334D01*
X130644500Y-105965056D01*
X130645578Y-105948609D01*
X130647092Y-105937108D01*
X130647529Y-105933790D01*
X130649156Y-105867200D01*
X130644924Y-105815724D01*
X130644500Y-105805400D01*
X130644500Y-104969066D01*
X130637745Y-104906884D01*
X130586615Y-104770495D01*
X130513370Y-104672764D01*
X130488522Y-104606259D01*
X130503575Y-104536876D01*
X130513370Y-104521635D01*
X130586615Y-104423905D01*
X130637745Y-104287516D01*
X130644500Y-104225334D01*
X130644500Y-103425056D01*
X130645578Y-103408609D01*
X130647092Y-103397108D01*
X130647529Y-103393790D01*
X130649156Y-103327200D01*
X130644924Y-103275724D01*
X130644500Y-103265400D01*
X130644500Y-102429066D01*
X130637745Y-102366884D01*
X130586615Y-102230495D01*
X130513370Y-102132764D01*
X130488522Y-102066259D01*
X130503575Y-101996876D01*
X130513370Y-101981635D01*
X130586615Y-101883905D01*
X130637745Y-101747516D01*
X130644500Y-101685334D01*
X130644500Y-100885056D01*
X130645578Y-100868609D01*
X130647092Y-100857108D01*
X130647529Y-100853790D01*
X130649156Y-100787200D01*
X130644924Y-100735724D01*
X130644500Y-100725400D01*
X130644500Y-99889066D01*
X130637745Y-99826884D01*
X130586615Y-99690495D01*
X130513370Y-99592764D01*
X130488522Y-99526259D01*
X130503575Y-99456876D01*
X130513370Y-99441635D01*
X130581229Y-99351091D01*
X130586615Y-99343905D01*
X130637745Y-99207516D01*
X130644500Y-99145334D01*
X130644500Y-98345056D01*
X130645578Y-98328609D01*
X130647092Y-98317108D01*
X130647529Y-98313790D01*
X130647611Y-98310440D01*
X130649074Y-98250565D01*
X130649074Y-98250561D01*
X130649156Y-98247200D01*
X130644924Y-98195724D01*
X130644500Y-98185400D01*
X130644500Y-97349066D01*
X130637745Y-97286884D01*
X130586615Y-97150495D01*
X130526548Y-97070348D01*
X130513058Y-97052348D01*
X130488210Y-96985842D01*
X130503263Y-96916459D01*
X130513058Y-96901218D01*
X130580786Y-96810849D01*
X130589324Y-96795254D01*
X130634478Y-96674806D01*
X130638105Y-96659551D01*
X130643631Y-96608686D01*
X130644000Y-96601872D01*
X130644000Y-95979315D01*
X130639525Y-95964076D01*
X130638135Y-95962871D01*
X130630452Y-95961200D01*
X126146116Y-95961200D01*
X126130877Y-95965675D01*
X126129672Y-95967065D01*
X126128001Y-95974748D01*
X126128001Y-96601869D01*
X126128371Y-96608690D01*
X126133895Y-96659552D01*
X126137521Y-96674804D01*
X126182676Y-96795254D01*
X126191214Y-96810849D01*
X126258942Y-96901218D01*
X126283790Y-96967725D01*
X126268737Y-97037107D01*
X126258942Y-97052348D01*
X126245452Y-97070348D01*
X126185385Y-97150495D01*
X126134255Y-97286884D01*
X126127500Y-97349066D01*
X126127500Y-99145334D01*
X126134255Y-99207516D01*
X126185385Y-99343905D01*
X126190771Y-99351091D01*
X126258630Y-99441635D01*
X126283478Y-99508141D01*
X126268425Y-99577524D01*
X126258632Y-99592762D01*
X126185385Y-99690495D01*
X126134255Y-99826884D01*
X126127500Y-99889066D01*
X126127500Y-101685334D01*
X126134255Y-101747516D01*
X126185385Y-101883905D01*
X126258630Y-101981635D01*
X126283478Y-102048141D01*
X126268425Y-102117524D01*
X126258632Y-102132762D01*
X126185385Y-102230495D01*
X126134255Y-102366884D01*
X126127500Y-102429066D01*
X126127500Y-104225334D01*
X126134255Y-104287516D01*
X126185385Y-104423905D01*
X126258630Y-104521635D01*
X126283478Y-104588141D01*
X126268425Y-104657524D01*
X126258632Y-104672762D01*
X126185385Y-104770495D01*
X126134255Y-104906884D01*
X126127500Y-104969066D01*
X126127500Y-106765334D01*
X115468900Y-106765334D01*
X115468900Y-94065334D01*
X126127500Y-94065334D01*
X126134255Y-94127516D01*
X126185385Y-94263905D01*
X126190771Y-94271091D01*
X126258942Y-94362052D01*
X126283790Y-94428558D01*
X126268737Y-94497941D01*
X126258942Y-94513182D01*
X126191214Y-94603551D01*
X126182676Y-94619146D01*
X126137522Y-94739594D01*
X126133895Y-94754849D01*
X126128369Y-94805714D01*
X126128000Y-94812528D01*
X126128000Y-95435085D01*
X126132475Y-95450324D01*
X126133865Y-95451529D01*
X126141548Y-95453200D01*
X130625884Y-95453200D01*
X130641123Y-95448725D01*
X130642328Y-95447335D01*
X130643999Y-95439652D01*
X130643999Y-94812531D01*
X130643629Y-94805710D01*
X130638105Y-94754848D01*
X130634479Y-94739596D01*
X130589324Y-94619146D01*
X130580786Y-94603551D01*
X130513058Y-94513182D01*
X130488210Y-94446675D01*
X130503263Y-94377293D01*
X130513058Y-94362052D01*
X130581229Y-94271091D01*
X130586615Y-94263905D01*
X130637745Y-94127516D01*
X130644500Y-94065334D01*
X130644500Y-93265056D01*
X130645578Y-93248609D01*
X130647092Y-93237108D01*
X130647529Y-93233790D01*
X130649156Y-93167200D01*
X130644924Y-93115724D01*
X130644500Y-93105400D01*
X130644500Y-92269066D01*
X130637745Y-92206884D01*
X130586615Y-92070495D01*
X130513370Y-91972764D01*
X130488522Y-91906259D01*
X130503575Y-91836876D01*
X130513370Y-91821635D01*
X130581229Y-91731091D01*
X130586615Y-91723905D01*
X130637745Y-91587516D01*
X130644500Y-91525334D01*
X130644500Y-90725056D01*
X130645578Y-90708609D01*
X130647092Y-90697108D01*
X130647529Y-90693790D01*
X130649156Y-90627200D01*
X130644924Y-90575724D01*
X130644500Y-90565400D01*
X130644500Y-89729066D01*
X130637745Y-89666884D01*
X130586615Y-89530495D01*
X130513370Y-89432764D01*
X130488522Y-89366259D01*
X130503575Y-89296876D01*
X130513370Y-89281635D01*
X130581229Y-89191091D01*
X130586615Y-89183905D01*
X130637745Y-89047516D01*
X130644500Y-88985334D01*
X130644500Y-88185056D01*
X130645578Y-88168609D01*
X130647092Y-88157108D01*
X130647529Y-88153790D01*
X130649156Y-88087200D01*
X130644924Y-88035724D01*
X130644500Y-88025400D01*
X130644500Y-87189066D01*
X130637745Y-87126884D01*
X130586615Y-86990495D01*
X130513370Y-86892764D01*
X130488522Y-86826259D01*
X130503575Y-86756876D01*
X130513370Y-86741635D01*
X130581229Y-86651091D01*
X130586615Y-86643905D01*
X130637745Y-86507516D01*
X130644500Y-86445334D01*
X130644500Y-85645056D01*
X130645578Y-85628609D01*
X130647092Y-85617108D01*
X130647529Y-85613790D01*
X130649156Y-85547200D01*
X130644924Y-85495724D01*
X130644500Y-85485400D01*
X130644500Y-84649066D01*
X130637745Y-84586884D01*
X130586615Y-84450495D01*
X130513058Y-84352348D01*
X130488210Y-84285842D01*
X130503263Y-84216459D01*
X130513058Y-84201218D01*
X130580786Y-84110849D01*
X130589324Y-84095254D01*
X130634478Y-83974806D01*
X130638105Y-83959551D01*
X130643631Y-83908686D01*
X130644000Y-83901872D01*
X130644000Y-83279315D01*
X130639525Y-83264076D01*
X130638135Y-83262871D01*
X130630452Y-83261200D01*
X126146116Y-83261200D01*
X126130877Y-83265675D01*
X126129672Y-83267065D01*
X126128001Y-83274748D01*
X126128001Y-83901869D01*
X126128371Y-83908690D01*
X126133895Y-83959552D01*
X126137521Y-83974804D01*
X126182676Y-84095254D01*
X126191214Y-84110849D01*
X126258942Y-84201218D01*
X126283790Y-84267725D01*
X126268737Y-84337107D01*
X126258942Y-84352348D01*
X126185385Y-84450495D01*
X126134255Y-84586884D01*
X126127500Y-84649066D01*
X126127500Y-86445334D01*
X126134255Y-86507516D01*
X126185385Y-86643905D01*
X126190771Y-86651091D01*
X126258630Y-86741635D01*
X126283478Y-86808141D01*
X126268425Y-86877524D01*
X126258632Y-86892762D01*
X126185385Y-86990495D01*
X126134255Y-87126884D01*
X126127500Y-87189066D01*
X126127500Y-88985334D01*
X126134255Y-89047516D01*
X126185385Y-89183905D01*
X126190771Y-89191091D01*
X126258630Y-89281635D01*
X126283478Y-89348141D01*
X126268425Y-89417524D01*
X126258632Y-89432762D01*
X126185385Y-89530495D01*
X126134255Y-89666884D01*
X126127500Y-89729066D01*
X126127500Y-91525334D01*
X126134255Y-91587516D01*
X126185385Y-91723905D01*
X126190771Y-91731091D01*
X126258630Y-91821635D01*
X126283478Y-91888141D01*
X126268425Y-91957524D01*
X126258632Y-91972762D01*
X126185385Y-92070495D01*
X126134255Y-92206884D01*
X126127500Y-92269066D01*
X126127500Y-94065334D01*
X115468900Y-94065334D01*
X115468900Y-79227129D01*
X115488902Y-79159008D01*
X115542558Y-79112515D01*
X115612832Y-79102411D01*
X115677412Y-79131905D01*
X115703016Y-79162423D01*
X115759933Y-79257524D01*
X115789161Y-79306361D01*
X115968913Y-79530728D01*
X116177451Y-79728623D01*
X116282580Y-79804166D01*
X116390047Y-79881389D01*
X116410917Y-79896386D01*
X116414712Y-79898395D01*
X116414713Y-79898396D01*
X116436469Y-79909915D01*
X116664992Y-80030912D01*
X116934973Y-80129711D01*
X117215864Y-80190955D01*
X117244441Y-80193204D01*
X117438882Y-80208507D01*
X117438891Y-80208507D01*
X117441339Y-80208700D01*
X117596871Y-80208700D01*
X117599007Y-80208554D01*
X117599018Y-80208554D01*
X117807148Y-80194365D01*
X117807154Y-80194364D01*
X117811425Y-80194073D01*
X117815620Y-80193204D01*
X117815622Y-80193204D01*
X117952184Y-80164923D01*
X118092942Y-80135774D01*
X118363943Y-80039807D01*
X118619412Y-79907950D01*
X118622913Y-79905489D01*
X118622917Y-79905487D01*
X118818542Y-79767999D01*
X118854623Y-79742641D01*
X118977023Y-79628900D01*
X119062079Y-79549861D01*
X119062081Y-79549858D01*
X119065222Y-79546940D01*
X119247313Y-79324468D01*
X119397527Y-79079342D01*
X119513083Y-78816098D01*
X119591844Y-78539606D01*
X119632351Y-78254984D01*
X119632445Y-78237151D01*
X119633835Y-77971783D01*
X119633835Y-77971776D01*
X119633857Y-77967497D01*
X119627861Y-77921949D01*
X119598706Y-77700502D01*
X119596332Y-77682466D01*
X119520471Y-77405164D01*
X119407677Y-77140724D01*
X119287105Y-76939263D01*
X119262243Y-76897721D01*
X119262240Y-76897717D01*
X119260039Y-76894039D01*
X119080287Y-76669672D01*
X118906141Y-76504414D01*
X118874858Y-76474727D01*
X118874855Y-76474725D01*
X118871749Y-76471777D01*
X118638283Y-76304014D01*
X118616443Y-76292450D01*
X118565477Y-76265465D01*
X118384208Y-76169488D01*
X118114227Y-76070689D01*
X117833336Y-76009445D01*
X117802285Y-76007001D01*
X117610318Y-75991893D01*
X117610309Y-75991893D01*
X117607861Y-75991700D01*
X117452329Y-75991700D01*
X117450193Y-75991846D01*
X117450182Y-75991846D01*
X117242052Y-76006035D01*
X117242046Y-76006036D01*
X117237775Y-76006327D01*
X117233580Y-76007196D01*
X117233578Y-76007196D01*
X117097016Y-76035477D01*
X116956258Y-76064626D01*
X116685257Y-76160593D01*
X116681448Y-76162559D01*
X116520836Y-76245457D01*
X116429788Y-76292450D01*
X116426287Y-76294911D01*
X116426283Y-76294913D01*
X116340909Y-76354915D01*
X116194577Y-76457759D01*
X116179492Y-76471777D01*
X115989884Y-76647972D01*
X115983978Y-76653460D01*
X115801887Y-76875932D01*
X115746151Y-76966884D01*
X115702333Y-77038389D01*
X115649685Y-77086020D01*
X115579644Y-77097627D01*
X115514446Y-77069524D01*
X115474792Y-77010633D01*
X115468900Y-76972554D01*
X115468900Y-64384279D01*
X115488902Y-64316158D01*
X115542558Y-64269665D01*
X115612832Y-64259561D01*
X115679208Y-64290642D01*
X115816256Y-64414040D01*
X115981644Y-64509527D01*
X116163272Y-64568542D01*
X116169833Y-64569232D01*
X116169835Y-64569232D01*
X116223089Y-64574829D01*
X116305590Y-64583500D01*
X117100810Y-64583500D01*
X117183311Y-64574829D01*
X117236565Y-64569232D01*
X117236567Y-64569232D01*
X117243128Y-64568542D01*
X117424756Y-64509527D01*
X117590144Y-64414040D01*
X117732066Y-64286253D01*
X117804064Y-64187157D01*
X117840437Y-64137094D01*
X117840438Y-64137093D01*
X117844318Y-64131752D01*
X117848076Y-64123313D01*
X117919309Y-63963319D01*
X117919309Y-63963318D01*
X117921994Y-63957288D01*
X117956481Y-63795042D01*
X117960328Y-63776944D01*
X117960328Y-63776939D01*
X117961700Y-63770487D01*
X117961700Y-63579513D01*
X117955303Y-63549415D01*
X117923366Y-63399169D01*
X117921994Y-63392712D01*
X117917781Y-63383249D01*
X117847003Y-63224278D01*
X117847002Y-63224276D01*
X117844318Y-63218248D01*
X117825982Y-63193010D01*
X117772817Y-63119836D01*
X117732066Y-63063747D01*
X117685237Y-63021582D01*
X117595052Y-62940379D01*
X117595051Y-62940378D01*
X117590144Y-62935960D01*
X117424756Y-62840473D01*
X117243128Y-62781458D01*
X117236567Y-62780768D01*
X117236565Y-62780768D01*
X117183311Y-62775171D01*
X117100810Y-62766500D01*
X116305590Y-62766500D01*
X116223089Y-62775171D01*
X116169835Y-62780768D01*
X116169833Y-62780768D01*
X116163272Y-62781458D01*
X115981644Y-62840473D01*
X115816256Y-62935960D01*
X115679208Y-63059358D01*
X115615203Y-63090074D01*
X115544749Y-63081310D01*
X115490218Y-63035848D01*
X115468900Y-62965721D01*
X115468900Y-51334279D01*
X115488902Y-51266158D01*
X115542558Y-51219665D01*
X115612832Y-51209561D01*
X115679208Y-51240642D01*
X115816256Y-51364040D01*
X115981644Y-51459527D01*
X116163272Y-51518542D01*
X116169833Y-51519232D01*
X116169835Y-51519232D01*
X116223089Y-51524829D01*
X116305590Y-51533500D01*
X117100810Y-51533500D01*
X117183311Y-51524829D01*
X117236565Y-51519232D01*
X117236567Y-51519232D01*
X117243128Y-51518542D01*
X117424756Y-51459527D01*
X117590144Y-51364040D01*
X117732066Y-51236253D01*
X117844318Y-51081752D01*
X117849379Y-51070386D01*
X117919309Y-50913319D01*
X117919309Y-50913318D01*
X117921994Y-50907288D01*
X117949858Y-50776200D01*
X117960328Y-50726944D01*
X117960328Y-50726939D01*
X117961700Y-50720487D01*
X117961700Y-50529513D01*
X117948557Y-50467677D01*
X117923367Y-50349172D01*
X117921994Y-50342712D01*
X117915695Y-50328564D01*
X117906261Y-50258197D01*
X117936368Y-50193900D01*
X117996457Y-50156087D01*
X118005251Y-50153934D01*
X118054216Y-50143794D01*
X118092942Y-50135774D01*
X118363943Y-50039807D01*
X118619412Y-49907950D01*
X118622913Y-49905489D01*
X118622917Y-49905487D01*
X118737017Y-49825296D01*
X118854623Y-49742641D01*
X119065222Y-49546940D01*
X119247313Y-49324468D01*
X119397527Y-49079342D01*
X119513083Y-48816098D01*
X119519398Y-48793931D01*
X119590668Y-48543734D01*
X119591844Y-48539606D01*
X119628490Y-48282115D01*
X119631746Y-48259236D01*
X119631746Y-48259234D01*
X119632351Y-48254984D01*
X119632383Y-48248996D01*
X119633835Y-47971783D01*
X119633835Y-47971776D01*
X119633857Y-47967497D01*
X119633041Y-47961294D01*
X119600815Y-47716519D01*
X119596332Y-47682466D01*
X119520471Y-47405164D01*
X119475359Y-47299400D01*
X119409363Y-47144676D01*
X119409361Y-47144672D01*
X119407677Y-47140724D01*
X119296020Y-46954159D01*
X119262243Y-46897721D01*
X119262240Y-46897717D01*
X119260039Y-46894039D01*
X119080287Y-46669672D01*
X118914004Y-46511875D01*
X118874858Y-46474727D01*
X118874855Y-46474725D01*
X118871749Y-46471777D01*
X118681664Y-46335187D01*
X118641772Y-46306521D01*
X118641771Y-46306520D01*
X118638283Y-46304014D01*
X118616443Y-46292450D01*
X118585687Y-46276166D01*
X118384208Y-46169488D01*
X118212574Y-46106679D01*
X118118258Y-46072164D01*
X118118256Y-46072163D01*
X118114227Y-46070689D01*
X117833336Y-46009445D01*
X117802285Y-46007001D01*
X117610318Y-45991893D01*
X117610309Y-45991893D01*
X117607861Y-45991700D01*
X117452329Y-45991700D01*
X117450193Y-45991846D01*
X117450182Y-45991846D01*
X117242052Y-46006035D01*
X117242046Y-46006036D01*
X117237775Y-46006327D01*
X117233580Y-46007196D01*
X117233578Y-46007196D01*
X117153357Y-46023809D01*
X116956258Y-46064626D01*
X116685257Y-46160593D01*
X116429788Y-46292450D01*
X116426287Y-46294911D01*
X116426283Y-46294913D01*
X116334892Y-46359144D01*
X116194577Y-46457759D01*
X116181582Y-46469835D01*
X116039923Y-46601473D01*
X115983978Y-46653460D01*
X115801887Y-46875932D01*
X115756886Y-46949367D01*
X115702333Y-47038389D01*
X115649685Y-47086020D01*
X115579644Y-47097627D01*
X115514446Y-47069524D01*
X115474792Y-47010633D01*
X115468900Y-46972554D01*
X115468900Y-40595255D01*
X116197458Y-40595255D01*
X116232704Y-40854238D01*
X116234012Y-40858724D01*
X116234012Y-40858726D01*
X116253698Y-40926264D01*
X116305843Y-41105167D01*
X116415268Y-41342528D01*
X116417831Y-41346437D01*
X116556010Y-41557196D01*
X116556014Y-41557201D01*
X116558576Y-41561109D01*
X116732618Y-41756106D01*
X116933570Y-41923237D01*
X116937573Y-41925666D01*
X117153022Y-42056404D01*
X117153026Y-42056406D01*
X117157019Y-42058829D01*
X117398055Y-42159903D01*
X117651383Y-42224241D01*
X117656034Y-42224709D01*
X117656038Y-42224710D01*
X117848908Y-42244131D01*
X117868467Y-42246100D01*
X118023954Y-42246100D01*
X118026279Y-42245927D01*
X118026285Y-42245927D01*
X118213600Y-42232007D01*
X118213604Y-42232006D01*
X118218252Y-42231661D01*
X118222800Y-42230632D01*
X118222806Y-42230631D01*
X118409201Y-42188453D01*
X118473177Y-42173977D01*
X118484983Y-42169386D01*
X118712424Y-42080940D01*
X118712427Y-42080939D01*
X118716777Y-42079247D01*
X118943698Y-41949551D01*
X119148957Y-41787738D01*
X119328043Y-41597363D01*
X119477024Y-41382609D01*
X119479092Y-41378416D01*
X119590560Y-41152381D01*
X119590561Y-41152378D01*
X119592625Y-41148193D01*
X119614854Y-41078751D01*
X119670880Y-40903723D01*
X119672307Y-40899265D01*
X119714321Y-40641293D01*
X119717742Y-40379945D01*
X119682496Y-40120962D01*
X119668073Y-40071477D01*
X119610668Y-39874532D01*
X119609357Y-39870033D01*
X119499932Y-39632672D01*
X119418407Y-39508325D01*
X119359190Y-39418004D01*
X119359186Y-39417999D01*
X119356624Y-39414091D01*
X119182582Y-39219094D01*
X118981630Y-39051963D01*
X118911839Y-39009613D01*
X118762178Y-38918796D01*
X118762174Y-38918794D01*
X118758181Y-38916371D01*
X118517145Y-38815297D01*
X118263817Y-38750959D01*
X118259166Y-38750491D01*
X118259162Y-38750490D01*
X118049871Y-38729416D01*
X118046733Y-38729100D01*
X117891246Y-38729100D01*
X117888921Y-38729273D01*
X117888915Y-38729273D01*
X117701600Y-38743193D01*
X117701596Y-38743194D01*
X117696948Y-38743539D01*
X117692400Y-38744568D01*
X117692394Y-38744569D01*
X117505999Y-38786747D01*
X117442023Y-38801223D01*
X117437671Y-38802915D01*
X117437669Y-38802916D01*
X117202776Y-38894260D01*
X117202773Y-38894261D01*
X117198423Y-38895953D01*
X117194369Y-38898270D01*
X117194367Y-38898271D01*
X117114404Y-38943974D01*
X116971502Y-39025649D01*
X116766243Y-39187462D01*
X116587157Y-39377837D01*
X116438176Y-39592591D01*
X116436110Y-39596781D01*
X116436108Y-39596784D01*
X116367633Y-39735639D01*
X116322575Y-39827007D01*
X116242893Y-40075935D01*
X116200879Y-40333907D01*
X116200818Y-40338580D01*
X116198674Y-40502394D01*
X116197458Y-40595255D01*
X115468900Y-40595255D01*
X115468900Y-38124900D01*
X115488902Y-38056779D01*
X115542558Y-38010286D01*
X115594900Y-37998900D01*
X128441005Y-37998900D01*
X128509126Y-38018902D01*
G37*
%TD.AperFunction*%
%TD*%
M02*
