M48
; DRILL file {KiCad (6.0.9)} date Mon Jan 30 22:18:11 2023
; FORMAT={-:-/ absolute / inch / decimal}
; #@! TF.CreationDate,2023-01-30T22:18:11+01:00
; #@! TF.GenerationSoftware,Kicad,Pcbnew,(6.0.9)
; #@! TF.FileFunction,Plated,1,2,PTH
FMAT,2
INCH
; #@! TA.AperFunction,Plated,PTH,ViaDrill
T1C0.0157
; #@! TA.AperFunction,Plated,PTH,ViaDrill
T2C0.0315
; #@! TA.AperFunction,Plated,PTH,ComponentDrill
T3C0.0315
; #@! TA.AperFunction,Plated,PTH,ComponentDrill
T4C0.0394
; #@! TA.AperFunction,Plated,PTH,ComponentDrill
T5C0.0402
; #@! TA.AperFunction,Plated,PTH,ComponentDrill
T6C0.0728
%
G90
G05
T1
X4.785Y-2.635
X5.05Y-1.68
X5.987Y-2.826
X6.181Y-3.759
X6.264Y-3.843
X6.42Y-2.192
X6.585Y-2.385
X6.6953Y-2.9597
T2
X6.444Y-3.193
T3
X5.247Y-4.3282
X5.347Y-4.3282
X5.447Y-4.3282
X5.547Y-4.3282
X5.647Y-4.3282
T4
X5.1976Y-1.8457
X5.1976Y-1.9473
X5.1976Y-2.0457
X5.1976Y-2.1457
X6.0617Y-2.0787
X6.1302Y-3.2647
X6.1302Y-4.1702
X6.1617Y-2.0787
X6.2302Y-3.2647
X6.247Y-4.028
X6.2617Y-2.0787
X6.347Y-4.028
X6.3617Y-2.0787
X6.447Y-4.028
X6.4617Y-2.0787
X6.5617Y-2.0787
X6.5814Y-3.2647
X6.6814Y-3.2647
X6.6814Y-4.1702
X6.712Y-2.1343
X6.712Y-2.2343
X6.712Y-2.3343
X6.712Y-2.4343
X6.712Y-2.5343
X6.712Y-2.6343
X6.712Y-2.7343
X6.712Y-2.8343
T5
X5.09Y-2.568
X5.09Y-2.668
X5.09Y-2.768
X5.09Y-2.868
X5.09Y-2.968
X5.09Y-3.068
X5.09Y-3.168
X5.09Y-3.268
X5.09Y-3.368
X5.09Y-3.468
X5.09Y-3.568
X5.09Y-3.668
X5.09Y-3.768
X5.09Y-3.868
X5.09Y-3.968
X5.09Y-4.068
X5.09Y-4.168
X5.09Y-4.268
X5.09Y-4.368
X5.09Y-4.468
X5.34Y-2.5771
X5.44Y-2.5771
X5.54Y-2.5771
X5.79Y-2.568
X5.79Y-2.668
X5.79Y-2.768
X5.79Y-2.868
X5.79Y-2.968
X5.79Y-3.068
X5.79Y-3.168
X5.79Y-3.268
X5.79Y-3.368
X5.79Y-3.468
X5.79Y-3.568
X5.79Y-3.668
X5.79Y-3.768
X5.79Y-3.868
X5.79Y-3.968
X5.79Y-4.068
X5.79Y-4.168
X5.79Y-4.268
X5.79Y-4.368
X5.79Y-4.468
T6
X4.9718Y-2.0719
X4.9718Y-2.2569
X4.9718Y-2.4419
T0
M30
