%TF.GenerationSoftware,KiCad,Pcbnew,(6.0.9)*%
%TF.CreationDate,2023-01-30T22:20:02+01:00*%
%TF.ProjectId,P_ytka_pcb,50427974-6b61-45f7-9063-622e6b696361,rev?*%
%TF.SameCoordinates,Original*%
%TF.FileFunction,Soldermask,Top*%
%TF.FilePolarity,Negative*%
%FSLAX46Y46*%
G04 Gerber Fmt 4.6, Leading zero omitted, Abs format (unit mm)*
G04 Created by KiCad (PCBNEW (6.0.9)) date 2023-01-30 22:20:02*
%MOMM*%
%LPD*%
G01*
G04 APERTURE LIST*
G04 Aperture macros list*
%AMRoundRect*
0 Rectangle with rounded corners*
0 $1 Rounding radius*
0 $2 $3 $4 $5 $6 $7 $8 $9 X,Y pos of 4 corners*
0 Add a 4 corners polygon primitive as box body*
4,1,4,$2,$3,$4,$5,$6,$7,$8,$9,$2,$3,0*
0 Add four circle primitives for the rounded corners*
1,1,$1+$1,$2,$3*
1,1,$1+$1,$4,$5*
1,1,$1+$1,$6,$7*
1,1,$1+$1,$8,$9*
0 Add four rect primitives between the rounded corners*
20,1,$1+$1,$2,$3,$4,$5,0*
20,1,$1+$1,$4,$5,$6,$7,0*
20,1,$1+$1,$6,$7,$8,$9,0*
20,1,$1+$1,$8,$9,$2,$3,0*%
G04 Aperture macros list end*
%ADD10C,3.200000*%
%ADD11C,1.800000*%
%ADD12C,2.500000*%
%ADD13C,3.100000*%
%ADD14R,1.700000X1.400000*%
%ADD15RoundRect,0.088500X0.206500X-0.526500X0.206500X0.526500X-0.206500X0.526500X-0.206500X-0.526500X0*%
%ADD16R,2.000000X2.000000*%
%ADD17C,1.750000*%
%ADD18O,1.500000X0.800000*%
%ADD19C,2.700000*%
%ADD20O,1.700000X1.700000*%
%ADD21R,1.700000X1.700000*%
G04 APERTURE END LIST*
D10*
%TO.C,U3*%
X133018400Y-40941800D03*
X133018400Y-61091800D03*
X163418400Y-40941800D03*
X163418400Y-61091800D03*
D11*
X132018400Y-46881800D03*
X132018400Y-49461800D03*
X132018400Y-51961800D03*
X132018400Y-54501800D03*
%TD*%
%TO.C,J1*%
X133273800Y-109937200D03*
X135813800Y-109937200D03*
X138353800Y-109937200D03*
X140893800Y-109937200D03*
X143433800Y-109937200D03*
%TD*%
D12*
%TO.C,REF\u002A\u002A*%
X117906800Y-111785400D03*
%TD*%
%TO.C,REF\u002A\u002A*%
X170053000Y-111734600D03*
%TD*%
%TO.C,REF\u002A\u002A*%
X117957600Y-40487600D03*
%TD*%
D10*
%TO.C,U2*%
X117524600Y-48100200D03*
D13*
X170524600Y-48100200D03*
D10*
X117524600Y-78100200D03*
X170524600Y-78100200D03*
D11*
X170484600Y-71990200D03*
X170484600Y-69450200D03*
X170484600Y-66910200D03*
X170484600Y-64370200D03*
X170484600Y-61830200D03*
X170484600Y-59290200D03*
X170484600Y-56750200D03*
X170484600Y-54210200D03*
%TD*%
D12*
%TO.C,REF\u002A\u002A*%
X170053000Y-40487600D03*
%TD*%
D11*
%TO.C,U4*%
X163753800Y-102311200D03*
X161213800Y-102311200D03*
X158673800Y-102311200D03*
%TD*%
D14*
%TO.C,J3*%
X143916400Y-105415800D03*
X143916400Y-103215800D03*
X143916400Y-101015800D03*
%TD*%
D15*
%TO.C,Q1*%
X163896000Y-76625000D03*
X165796000Y-76625000D03*
X164846000Y-74505000D03*
%TD*%
D16*
%TO.C,U6*%
X169706600Y-105923000D03*
X155706600Y-105923000D03*
X169706600Y-82923000D03*
X155706600Y-82923000D03*
X167166600Y-82923000D03*
X158246600Y-82923000D03*
%TD*%
D10*
%TO.C,U5*%
X165831600Y-66660000D03*
X155138200Y-66660000D03*
D17*
X153968200Y-52800000D03*
X156508200Y-52800000D03*
X159048200Y-52800000D03*
X161588200Y-52800000D03*
X164128200Y-52800000D03*
X166668200Y-52800000D03*
%TD*%
D18*
%TO.C,SW5*%
X116703200Y-50625000D03*
D19*
X126283200Y-62025000D03*
D18*
X116703200Y-63675000D03*
D19*
X126283200Y-57325000D03*
X126283200Y-52625000D03*
%TD*%
D20*
%TO.C,U1*%
X129286000Y-113487200D03*
X129286000Y-110947200D03*
D21*
X129286000Y-108407200D03*
D20*
X129286000Y-105867200D03*
X129286000Y-103327200D03*
X129286000Y-100787200D03*
X129286000Y-98247200D03*
D21*
X129286000Y-95707200D03*
D20*
X129286000Y-93167200D03*
X129286000Y-90627200D03*
X129286000Y-88087200D03*
X129286000Y-85547200D03*
D21*
X129286000Y-83007200D03*
D20*
X129286000Y-80467200D03*
X129286000Y-77927200D03*
X129286000Y-75387200D03*
X129286000Y-72847200D03*
D21*
X129286000Y-70307200D03*
D20*
X129286000Y-67767200D03*
X129286000Y-65227200D03*
X147066000Y-65227200D03*
X147066000Y-67767200D03*
D21*
X147066000Y-70307200D03*
D20*
X147066000Y-72847200D03*
X147066000Y-75387200D03*
X147066000Y-77927200D03*
X147066000Y-80467200D03*
D21*
X147066000Y-83007200D03*
D20*
X147066000Y-85547200D03*
X147066000Y-88087200D03*
X147066000Y-90627200D03*
X147066000Y-93167200D03*
D21*
X147066000Y-95707200D03*
D20*
X147066000Y-98247200D03*
X147066000Y-100787200D03*
X147066000Y-103327200D03*
X147066000Y-105867200D03*
D21*
X147066000Y-108407200D03*
D20*
X147066000Y-110947200D03*
X147066000Y-113487200D03*
X135636000Y-65457200D03*
D21*
X138176000Y-65457200D03*
D20*
X140716000Y-65457200D03*
%TD*%
M02*
